<svg width="24" height="24" viewBox="0 0 24 24" fill="none" xmlns="http://www.w3.org/2000/svg">
<path fill-rule="evenodd" clip-rule="evenodd" d="M3 6.9C3 6.66131 3.08889 6.43239 3.24713 6.2636C3.40536 6.09482 3.61997 6 3.84375 6H20.1562C20.38 6 20.5946 6.09482 20.7529 6.2636C20.9111 6.43239 21 6.66131 21 6.9C21 7.13869 20.9111 7.36761 20.7529 7.5364C20.5946 7.70518 20.38 7.8 20.1562 7.8H3.84375C3.61997 7.8 3.40536 7.70518 3.24713 7.5364C3.08889 7.36761 3 7.13869 3 6.9ZM3 12C3 11.7613 3.08889 11.5324 3.24713 11.3636C3.40536 11.1948 3.61997 11.1 3.84375 11.1H20.1562C20.38 11.1 20.5946 11.1948 20.7529 11.3636C20.9111 11.5324 21 11.7613 21 12C21 12.2387 20.9111 12.4676 20.7529 12.6364C20.5946 12.8052 20.38 12.9 20.1562 12.9H3.84375C3.61997 12.9 3.40536 12.8052 3.24713 12.6364C3.08889 12.4676 3 12.2387 3 12ZM3.84375 16.2C3.61997 16.2 3.40536 16.2948 3.24713 16.4636C3.08889 16.6324 3 16.8613 3 17.1C3 17.3387 3.08889 17.5676 3.24713 17.7364C3.40536 17.9052 3.61997 18 3.84375 18H20.1562C20.38 18 20.5946 17.9052 20.7529 17.7364C20.9111 17.5676 21 17.3387 21 17.1C21 16.8613 20.9111 16.6324 20.7529 16.4636C20.5946 16.2948 20.38 16.2 20.1562 16.2H3.84375Z" fill="#44475B"/>
</svg>
