<svg width="40" height="40" viewBox="0 0 40 40" fill="none" xmlns="http://www.w3.org/2000/svg">
<path d="M27.125 17.625C27.125 18.2549 26.8748 18.859 26.4294 19.3044C25.984 19.7498 25.3799 20 24.75 20C24.1201 20 23.516 19.7498 23.0706 19.3044C22.6252 18.859 22.375 18.2549 22.375 17.625C22.375 16.9951 22.6252 16.391 23.0706 15.9456C23.516 15.5002 24.1201 15.25 24.75 15.25C25.3799 15.25 25.984 15.5002 26.4294 15.9456C26.8748 16.391 27.125 16.9951 27.125 17.625ZM31.875 20C32.5049 20 33.109 19.7498 33.5544 19.3044C33.9998 18.859 34.25 18.2549 34.25 17.625C34.25 16.9951 33.9998 16.391 33.5544 15.9456C33.109 15.5002 32.5049 15.25 31.875 15.25C31.2451 15.25 30.641 15.5002 30.1956 15.9456C29.7502 16.391 29.5 16.9951 29.5 17.625C29.5 18.2549 29.7502 18.859 30.1956 19.3044C30.641 19.7498 31.2451 20 31.875 20ZM1 16.4375C1 14.8628 1.62556 13.3526 2.73905 12.2391C3.85255 11.1256 5.36278 10.5 6.9375 10.5H33.0625C34.6372 10.5 36.1474 11.1256 37.2609 12.2391C38.3744 13.3526 39 14.8628 39 16.4375V23.5625C39 25.1372 38.3744 26.6474 37.2609 27.7609C36.1474 28.8744 34.6372 29.5 33.0625 29.5H6.9375C5.36278 29.5 3.85255 28.8744 2.73905 27.7609C1.62556 26.6474 1 25.1372 1 23.5625V16.4375ZM6.9375 12.875C5.99267 12.875 5.08653 13.2503 4.41843 13.9184C3.75033 14.5865 3.375 15.4927 3.375 16.4375V23.5625C3.375 24.5073 3.75033 25.4135 4.41843 26.0816C5.08653 26.7497 5.99267 27.125 6.9375 27.125H33.0625C34.0073 27.125 34.9135 26.7497 35.5816 26.0816C36.2497 25.4135 36.625 24.5073 36.625 23.5625V16.4375C36.625 15.4927 36.2497 14.5865 35.5816 13.9184C34.9135 13.2503 34.0073 12.875 33.0625 12.875H6.9375Z" fill="#737790"/>
</svg>
