<svg width="87" height="76" viewBox="0 0 87 76" fill="none" xmlns="http://www.w3.org/2000/svg">
<path d="M45.2364 24.14L73.0821 72.3828C73.7736 73.6086 75.5336 73.64 76.3193 72.4771L86.6279 56.5428C87.005 55.9457 87.0364 55.1914 86.6907 54.5628L55.8279 1.22856C55.105 -0.0285801 53.2821 -0.0285801 52.5593 1.22856L43.4764 16.88C43.1307 17.4771 42.5021 17.8228 41.8421 17.8228H22.8593C22.1678 17.8228 21.5707 18.1686 21.225 18.7657L0.544991 54.6571C0.199277 55.2543 0.199277 55.9457 0.544991 56.5428L10.665 74.1428C11.0107 74.74 11.6393 75.0857 12.2993 75.0857H52.905C54.3507 75.0857 55.2621 73.5143 54.5393 72.2571L45.205 56.1343C44.4821 54.8771 42.6593 54.8771 41.9364 56.1343L34.6764 68.7686C33.9536 70.0257 32.1307 70.0257 31.4078 68.7686L24.3678 56.5428C24.0221 55.9457 24.0221 55.2543 24.3678 54.6571L41.9364 24.1714C42.6593 22.9143 44.4821 22.9143 45.205 24.1714L45.2364 24.14Z" fill="#FF802C"/>
</svg>
