<svg width="28" height="28" viewBox="0 0 28 28" fill="none" xmlns="http://www.w3.org/2000/svg">
<mask id="path-1-inside-1_1228_4290" fill="white">
<path d="M11.6693 13.9974C10.3859 13.9974 9.28733 13.5405 8.37344 12.6266C7.45955 11.7127 7.0026 10.6141 7.0026 9.33073C7.0026 8.0474 7.45955 6.94879 8.37344 6.0349C9.28733 5.12101 10.3859 4.66406 11.6693 4.66406C12.9526 4.66406 14.0512 5.12101 14.9651 6.0349C15.879 6.94879 16.3359 8.0474 16.3359 9.33073C16.3359 10.6141 15.879 11.7127 14.9651 12.6266C14.0512 13.5405 12.9526 13.9974 11.6693 13.9974ZM2.33594 20.9974V20.0641C2.33594 19.4224 2.50122 18.8196 2.83177 18.2557C3.16233 17.6918 3.61927 17.2641 4.2026 16.9724C5.33038 16.4085 6.49705 15.966 7.7026 15.6447C8.90816 15.3235 10.1429 15.1633 11.4068 15.1641C11.7373 15.1641 12.0146 15.2807 12.2386 15.5141C12.4626 15.7474 12.5742 16.0293 12.5734 16.3599C12.5727 16.6905 12.4607 16.9677 12.2374 17.1917C12.0142 17.4157 11.7373 17.5273 11.4068 17.5266C10.3179 17.5266 9.26283 17.6627 8.2416 17.9349C7.22038 18.2071 6.22405 18.5863 5.2526 19.0724C5.05816 19.1696 4.91233 19.3057 4.8151 19.4807C4.71788 19.6557 4.66927 19.8502 4.66927 20.0641V20.9974H11.4068C11.7373 20.9974 12.0146 21.1094 12.2386 21.3334C12.4626 21.5574 12.5742 21.8343 12.5734 22.1641C12.5727 22.4938 12.4607 22.7711 12.2374 22.9959C12.0142 23.2207 11.7373 23.3323 11.4068 23.3307H4.66927C4.0276 23.3307 3.47849 23.1025 3.02194 22.6459C2.56538 22.1893 2.33672 21.6398 2.33594 20.9974ZM18.4943 23.5641L18.3193 22.7474C18.0859 22.6502 17.8674 22.5483 17.6636 22.4417C17.4598 22.3352 17.2506 22.2037 17.0359 22.0474L16.1901 22.3099C15.9373 22.3877 15.6896 22.378 15.4469 22.2807C15.2043 22.1835 15.0145 22.028 14.8776 21.8141L14.6443 21.4057C14.5082 21.1724 14.4595 20.9196 14.4984 20.6474C14.5373 20.3752 14.6637 20.1516 14.8776 19.9766L15.5193 19.4224C15.4804 19.1502 15.4609 18.8974 15.4609 18.6641C15.4609 18.4307 15.4804 18.178 15.5193 17.9057L14.8776 17.3516C14.6637 17.1766 14.5373 16.9576 14.4984 16.6947C14.4595 16.4318 14.5082 16.1841 14.6443 15.9516L14.9068 15.5141C15.0429 15.3002 15.2276 15.1446 15.4609 15.0474C15.6943 14.9502 15.9373 14.9405 16.1901 15.0182L17.0359 15.2807C17.2498 15.1252 17.459 14.9937 17.6636 14.8864C17.8682 14.7791 18.0867 14.6772 18.3193 14.5807L18.4943 13.7349C18.5526 13.4627 18.684 13.2441 18.8886 13.0792C19.0932 12.9143 19.3312 12.8315 19.6026 12.8307H20.0693C20.3415 12.8307 20.5799 12.9182 20.7844 13.0932C20.989 13.2682 21.12 13.4918 21.1776 13.7641L21.3526 14.5807C21.5859 14.678 21.8045 14.7849 22.0083 14.9016C22.212 15.0182 22.4213 15.1641 22.6359 15.3391L23.4234 15.0766C23.6957 14.9793 23.9582 14.9793 24.2109 15.0766C24.4637 15.1738 24.6582 15.3391 24.7943 15.5724L25.0276 15.9807C25.1637 16.2141 25.2123 16.4668 25.1734 16.7391C25.1345 17.0113 25.0082 17.2349 24.7943 17.4099L24.1526 17.9641C24.1915 18.1974 24.2109 18.4405 24.2109 18.6932C24.2109 18.946 24.1915 19.1891 24.1526 19.4224L24.7943 19.9766C25.0082 20.1516 25.1345 20.3705 25.1734 20.6334C25.2123 20.8963 25.1637 21.144 25.0276 21.3766L24.7651 21.8141C24.629 22.028 24.4443 22.1835 24.2109 22.2807C23.9776 22.378 23.7345 22.3877 23.4818 22.3099L22.6359 22.0474C22.422 22.203 22.2128 22.334 22.0083 22.4406C21.8037 22.5471 21.5852 22.6494 21.3526 22.7474L21.1776 23.5932C21.1193 23.8655 20.9882 24.0844 20.7844 24.2501C20.5807 24.4157 20.3423 24.4982 20.0693 24.4974H19.6026C19.3304 24.4974 19.0924 24.4099 18.8886 24.2349C18.6848 24.0599 18.5534 23.8363 18.4943 23.5641ZM19.8359 20.9974C20.4776 20.9974 21.0271 20.7691 21.4844 20.3126C21.9418 19.856 22.17 19.3065 22.1693 18.6641C22.1685 18.0216 21.9402 17.4725 21.4844 17.0167C21.0287 16.561 20.4792 16.3323 19.8359 16.3307C19.1927 16.3292 18.6436 16.5578 18.1886 17.0167C17.7336 17.4756 17.5049 18.0247 17.5026 18.6641C17.5003 19.3034 17.7289 19.8529 18.1886 20.3126C18.6483 20.7722 19.1974 21.0005 19.8359 20.9974ZM11.6693 11.6641C12.3109 11.6641 12.8604 11.4358 13.3178 10.9792C13.7751 10.5227 14.0034 9.97317 14.0026 9.33073C14.0018 8.68828 13.7735 8.13917 13.3178 7.6834C12.862 7.22762 12.3125 6.99895 11.6693 6.9974C11.026 6.99584 10.4769 7.22451 10.0219 7.6834C9.56694 8.14228 9.33827 8.6914 9.33594 9.33073C9.3336 9.97006 9.56227 10.5196 10.0219 10.9792C10.4816 11.4389 11.0307 11.6672 11.6693 11.6641Z"/>
</mask>
<path d="M11.6693 13.9974C10.3859 13.9974 9.28733 13.5405 8.37344 12.6266C7.45955 11.7127 7.0026 10.6141 7.0026 9.33073C7.0026 8.0474 7.45955 6.94879 8.37344 6.0349C9.28733 5.12101 10.3859 4.66406 11.6693 4.66406C12.9526 4.66406 14.0512 5.12101 14.9651 6.0349C15.879 6.94879 16.3359 8.0474 16.3359 9.33073C16.3359 10.6141 15.879 11.7127 14.9651 12.6266C14.0512 13.5405 12.9526 13.9974 11.6693 13.9974ZM2.33594 20.9974V20.0641C2.33594 19.4224 2.50122 18.8196 2.83177 18.2557C3.16233 17.6918 3.61927 17.2641 4.2026 16.9724C5.33038 16.4085 6.49705 15.966 7.7026 15.6447C8.90816 15.3235 10.1429 15.1633 11.4068 15.1641C11.7373 15.1641 12.0146 15.2807 12.2386 15.5141C12.4626 15.7474 12.5742 16.0293 12.5734 16.3599C12.5727 16.6905 12.4607 16.9677 12.2374 17.1917C12.0142 17.4157 11.7373 17.5273 11.4068 17.5266C10.3179 17.5266 9.26283 17.6627 8.2416 17.9349C7.22038 18.2071 6.22405 18.5863 5.2526 19.0724C5.05816 19.1696 4.91233 19.3057 4.8151 19.4807C4.71788 19.6557 4.66927 19.8502 4.66927 20.0641V20.9974H11.4068C11.7373 20.9974 12.0146 21.1094 12.2386 21.3334C12.4626 21.5574 12.5742 21.8343 12.5734 22.1641C12.5727 22.4938 12.4607 22.7711 12.2374 22.9959C12.0142 23.2207 11.7373 23.3323 11.4068 23.3307H4.66927C4.0276 23.3307 3.47849 23.1025 3.02194 22.6459C2.56538 22.1893 2.33672 21.6398 2.33594 20.9974ZM18.4943 23.5641L18.3193 22.7474C18.0859 22.6502 17.8674 22.5483 17.6636 22.4417C17.4598 22.3352 17.2506 22.2037 17.0359 22.0474L16.1901 22.3099C15.9373 22.3877 15.6896 22.378 15.4469 22.2807C15.2043 22.1835 15.0145 22.028 14.8776 21.8141L14.6443 21.4057C14.5082 21.1724 14.4595 20.9196 14.4984 20.6474C14.5373 20.3752 14.6637 20.1516 14.8776 19.9766L15.5193 19.4224C15.4804 19.1502 15.4609 18.8974 15.4609 18.6641C15.4609 18.4307 15.4804 18.178 15.5193 17.9057L14.8776 17.3516C14.6637 17.1766 14.5373 16.9576 14.4984 16.6947C14.4595 16.4318 14.5082 16.1841 14.6443 15.9516L14.9068 15.5141C15.0429 15.3002 15.2276 15.1446 15.4609 15.0474C15.6943 14.9502 15.9373 14.9405 16.1901 15.0182L17.0359 15.2807C17.2498 15.1252 17.459 14.9937 17.6636 14.8864C17.8682 14.7791 18.0867 14.6772 18.3193 14.5807L18.4943 13.7349C18.5526 13.4627 18.684 13.2441 18.8886 13.0792C19.0932 12.9143 19.3312 12.8315 19.6026 12.8307H20.0693C20.3415 12.8307 20.5799 12.9182 20.7844 13.0932C20.989 13.2682 21.12 13.4918 21.1776 13.7641L21.3526 14.5807C21.5859 14.678 21.8045 14.7849 22.0083 14.9016C22.212 15.0182 22.4213 15.1641 22.6359 15.3391L23.4234 15.0766C23.6957 14.9793 23.9582 14.9793 24.2109 15.0766C24.4637 15.1738 24.6582 15.3391 24.7943 15.5724L25.0276 15.9807C25.1637 16.2141 25.2123 16.4668 25.1734 16.7391C25.1345 17.0113 25.0082 17.2349 24.7943 17.4099L24.1526 17.9641C24.1915 18.1974 24.2109 18.4405 24.2109 18.6932C24.2109 18.946 24.1915 19.1891 24.1526 19.4224L24.7943 19.9766C25.0082 20.1516 25.1345 20.3705 25.1734 20.6334C25.2123 20.8963 25.1637 21.144 25.0276 21.3766L24.7651 21.8141C24.629 22.028 24.4443 22.1835 24.2109 22.2807C23.9776 22.378 23.7345 22.3877 23.4818 22.3099L22.6359 22.0474C22.422 22.203 22.2128 22.334 22.0083 22.4406C21.8037 22.5471 21.5852 22.6494 21.3526 22.7474L21.1776 23.5932C21.1193 23.8655 20.9882 24.0844 20.7844 24.2501C20.5807 24.4157 20.3423 24.4982 20.0693 24.4974H19.6026C19.3304 24.4974 19.0924 24.4099 18.8886 24.2349C18.6848 24.0599 18.5534 23.8363 18.4943 23.5641ZM19.8359 20.9974C20.4776 20.9974 21.0271 20.7691 21.4844 20.3126C21.9418 19.856 22.17 19.3065 22.1693 18.6641C22.1685 18.0216 21.9402 17.4725 21.4844 17.0167C21.0287 16.561 20.4792 16.3323 19.8359 16.3307C19.1927 16.3292 18.6436 16.5578 18.1886 17.0167C17.7336 17.4756 17.5049 18.0247 17.5026 18.6641C17.5003 19.3034 17.7289 19.8529 18.1886 20.3126C18.6483 20.7722 19.1974 21.0005 19.8359 20.9974ZM11.6693 11.6641C12.3109 11.6641 12.8604 11.4358 13.3178 10.9792C13.7751 10.5227 14.0034 9.97317 14.0026 9.33073C14.0018 8.68828 13.7735 8.13917 13.3178 7.6834C12.862 7.22762 12.3125 6.99895 11.6693 6.9974C11.026 6.99584 10.4769 7.22451 10.0219 7.6834C9.56694 8.14228 9.33827 8.6914 9.33594 9.33073C9.3336 9.97006 9.56227 10.5196 10.0219 10.9792C10.4816 11.4389 11.0307 11.6672 11.6693 11.6641Z" fill="#44475B" stroke="white" stroke-width="0.5" mask="url(#path-1-inside-1_1228_4290)"/>
</svg>
