<svg width="16" height="16" viewBox="0 0 16 16" fill="none" xmlns="http://www.w3.org/2000/svg">
<g clip-path="url(#clip0_1453_5887)">
<path d="M12.0007 6.66634H8.66732M14.6673 7.86501C14.6673 6.11034 14.6673 5.23234 14.154 4.66234C14.1069 4.60974 14.057 4.55967 14.0047 4.51234C13.4347 3.99967 12.5567 3.99967 10.802 3.99967H10.5527C9.78398 3.99967 9.39932 3.99967 9.04065 3.89767C8.84382 3.84141 8.65413 3.76267 8.47532 3.66301C8.14998 3.48234 7.87798 3.20967 7.33398 2.66634L6.96732 2.29967C6.78465 2.11701 6.69398 2.02634 6.59798 1.94634C6.18509 1.6041 5.67861 1.3943 5.14465 1.34434C5.02065 1.33301 4.89132 1.33301 4.63398 1.33301C4.04532 1.33301 3.75132 1.33301 3.50598 1.37967C2.97921 1.47916 2.49465 1.7351 2.11552 2.11411C1.73639 2.49312 1.4803 2.9776 1.38065 3.50434C1.33398 3.75034 1.33398 4.04501 1.33398 4.63301M8.33398 14.6663H6.66732C4.15332 14.6663 2.89598 14.6663 2.11532 13.885C1.33465 13.1037 1.33398 11.847 1.33398 9.33301V7.33301" stroke="#298DFF" stroke-width="1.25" stroke-linecap="round"/>
<path fill-rule="evenodd" clip-rule="evenodd" d="M13 16C12.8011 16 12.6103 15.921 12.4697 15.7803C12.329 15.6397 12.25 15.4489 12.25 15.25V13.75H10.75C10.5511 13.75 10.3603 13.671 10.2197 13.5303C10.079 13.3897 10 13.1989 10 13C10 12.8011 10.079 12.6103 10.2197 12.4697C10.3603 12.329 10.5511 12.25 10.75 12.25H12.25V10.75C12.25 10.5511 12.329 10.3603 12.4697 10.2197C12.6103 10.079 12.8011 10 13 10C13.1989 10 13.3897 10.079 13.5303 10.2197C13.671 10.3603 13.75 10.5511 13.75 10.75V12.25H15.25C15.4489 12.25 15.6397 12.329 15.7803 12.4697C15.921 12.6103 16 12.8011 16 13C16 13.1989 15.921 13.3897 15.7803 13.5303C15.6397 13.671 15.4489 13.75 15.25 13.75H13.75V15.25C13.75 15.4489 13.671 15.6397 13.5303 15.7803C13.3897 15.921 13.1989 16 13 16Z" fill="#298DFF"/>
</g>
<defs>
<clipPath id="clip0_1453_5887">
<rect width="16" height="16" fill="white"/>
</clipPath>
</defs>
</svg>
