<svg width="20" height="20" viewBox="0 0 20 20" fill="none" xmlns="http://www.w3.org/2000/svg">
<g clip-path="url(#clip0_1461_5111)">
<path d="M14.8 8.40195H10.8M18 9.84035C18 7.73475 18 6.68115 17.384 5.99715C17.3275 5.93403 17.2677 5.87395 17.2048 5.81715C16.5208 5.20195 15.4672 5.20195 13.3616 5.20195H13.0624C12.14 5.20195 11.6784 5.20195 11.248 5.07955C11.0118 5.01204 10.7842 4.91755 10.5696 4.79795C10.1792 4.58115 9.8528 4.25395 9.2 3.60195L8.76 3.16195C8.5408 2.94275 8.432 2.83395 8.3168 2.73795C7.82133 2.32726 7.21355 2.07551 6.5728 2.01555C6.424 2.00195 6.2688 2.00195 5.96 2.00195C5.2536 2.00195 4.9008 2.00195 4.6064 2.05795C3.97427 2.17733 3.3928 2.48446 2.93784 2.93927C2.48289 3.39409 2.17558 3.97546 2.056 4.60755C2 4.90275 2 5.25635 2 5.96195M10.4 18.002H8.4C5.3832 18.002 3.8744 18.002 2.9376 17.0644C2.0008 16.1268 2 14.6188 2 11.602V9.20195" stroke="#737790" stroke-width="1.5" stroke-linecap="round"/>
<path fill-rule="evenodd" clip-rule="evenodd" d="M16.0004 19.6004C15.7617 19.6004 15.5328 19.5056 15.364 19.3368C15.1952 19.168 15.1004 18.9391 15.1004 18.7004V16.9004H13.3004C13.0617 16.9004 12.8328 16.8056 12.664 16.6368C12.4952 16.468 12.4004 16.2391 12.4004 16.0004C12.4004 15.7617 12.4952 15.5328 12.664 15.364C12.8328 15.1952 13.0617 15.1004 13.3004 15.1004H15.1004V13.3004C15.1004 13.0617 15.1952 12.8328 15.364 12.664C15.5328 12.4952 15.7617 12.4004 16.0004 12.4004C16.2391 12.4004 16.468 12.4952 16.6368 12.664C16.8056 12.8328 16.9004 13.0617 16.9004 13.3004V15.1004H18.7004C18.9391 15.1004 19.168 15.1952 19.3368 15.364C19.5056 15.5328 19.6004 15.7617 19.6004 16.0004C19.6004 16.2391 19.5056 16.468 19.3368 16.6368C19.168 16.8056 18.9391 16.9004 18.7004 16.9004H16.9004V18.7004C16.9004 18.9391 16.8056 19.168 16.6368 19.3368C16.468 19.5056 16.2391 19.6004 16.0004 19.6004Z" fill="#737790"/>
</g>
<defs>
<clipPath id="clip0_1461_5111">
<rect width="19.2" height="19.2" fill="white" transform="translate(0.400391 0.400391)"/>
</clipPath>
</defs>
</svg>
