<svg width="18" height="17" viewBox="0 0 18 17" fill="none" xmlns="http://www.w3.org/2000/svg">
<path d="M10.8764 8.88041C11.5803 8.88041 12.2691 8.99721 12.9203 9.2228C12.9889 9.24565 13.0524 9.28197 13.1068 9.32963C13.1613 9.3773 13.2057 9.43535 13.2374 9.50039C13.2691 9.56542 13.2876 9.63614 13.2916 9.70839C13.2957 9.78064 13.2853 9.85298 13.2611 9.92117C13.2102 10.0593 13.1069 10.1718 12.9737 10.2344C12.8404 10.297 12.6879 10.3046 12.5491 10.2556C12.0112 10.07 11.4462 9.97534 10.8772 9.97557C8.10369 9.97557 5.85659 12.1811 5.85659 14.9026C5.85659 15.0689 5.86459 15.234 5.88059 15.3977C5.8937 15.5433 5.84851 15.6882 5.75492 15.8006C5.66134 15.9129 5.527 15.9835 5.38141 15.9969C5.2354 16.0124 5.0892 15.9694 4.9748 15.8773C4.86041 15.7853 4.78714 15.6517 4.77104 15.5057C4.75142 15.3053 4.74127 15.104 4.74064 14.9026C4.74064 11.5771 7.48772 8.88041 10.8764 8.88041ZM15.193 10.9756C15.3403 10.977 15.4811 11.0358 15.5857 11.1395C15.6903 11.2431 15.7503 11.3835 15.753 11.5307V13.3379L17.4441 13.3339C17.5773 13.3367 17.7052 13.3863 17.8055 13.4739C17.9058 13.5615 17.9721 13.6815 17.9929 13.813L17.9993 13.8946C17.9998 13.9668 17.9859 14.0383 17.9584 14.1049C17.9309 14.1716 17.8902 14.2321 17.8389 14.2828C17.7876 14.3335 17.7267 14.3734 17.6597 14.4002C17.5927 14.4269 17.521 14.44 17.4489 14.4386L15.753 14.4426V16.3385C15.7545 16.4107 15.7415 16.4824 15.7148 16.5494C15.6881 16.6165 15.6481 16.6774 15.5974 16.7288C15.5467 16.7801 15.4862 16.8207 15.4195 16.8482C15.3527 16.8757 15.2812 16.8896 15.209 16.8889C15.0618 16.8875 14.9209 16.8287 14.8163 16.725C14.7118 16.6213 14.6517 16.481 14.649 16.3337L14.6482 14.445L12.6403 14.4506C12.5075 14.4476 12.3798 14.3981 12.2797 14.3107C12.1796 14.2232 12.1133 14.1035 12.0924 13.9722L12.086 13.8898C12.0854 13.8178 12.0993 13.7463 12.1268 13.6797C12.1543 13.6131 12.1948 13.5527 12.2461 13.502C12.2973 13.4513 12.3581 13.4114 12.425 13.3845C12.4919 13.3577 12.5635 13.3446 12.6355 13.3459L14.6482 13.3403V11.5251C14.647 11.453 14.6601 11.3814 14.687 11.3144C14.7139 11.2475 14.7539 11.1866 14.8046 11.1354C14.8554 11.0841 14.916 11.0436 14.9827 11.0162C15.0494 10.9887 15.1209 10.9749 15.193 10.9756ZM6.13653 6.57571C6.20909 6.57498 6.28107 6.58855 6.34838 6.61566C6.41568 6.64277 6.47698 6.68288 6.52877 6.7337C6.58055 6.78452 6.62181 6.84505 6.65018 6.91183C6.67856 6.97861 6.69348 7.05034 6.69411 7.12289C6.69359 7.19551 6.67874 7.26732 6.65041 7.33419C6.62209 7.40107 6.58085 7.46169 6.52905 7.5126C6.47725 7.5635 6.41592 7.60369 6.34856 7.63085C6.28121 7.658 6.20915 7.6716 6.13653 7.67087C3.36305 7.67087 1.11595 9.87637 1.11595 12.5979C1.11595 12.7637 1.12395 12.9285 1.13995 13.0922C1.15329 13.238 1.1082 13.3831 1.01459 13.4956C0.920981 13.6081 0.786519 13.6788 0.640772 13.6922C0.494759 13.7077 0.348558 13.6647 0.234165 13.5726C0.119773 13.4806 0.0465057 13.347 0.0303987 13.201C0.0107793 13.0006 0.00063508 12.7993 0 12.5979C0 9.2716 2.74788 6.57571 6.13653 6.57571ZM11.086 2.3727C12.8323 2.3727 14.2474 3.76224 14.2474 5.47496C14.2474 7.18769 12.8315 8.57723 11.086 8.57723C9.34044 8.57723 7.9253 7.18849 7.9253 5.47496C7.9253 3.76224 9.34044 2.3727 11.086 2.3727ZM11.086 3.46785C9.95641 3.46785 9.04045 4.36621 9.04045 5.47576C9.04045 6.58371 9.95641 7.48207 11.086 7.48207C12.2155 7.48207 13.1315 6.58371 13.1315 5.47496C13.1315 4.36621 12.2155 3.46785 11.086 3.46785ZM6.41972 0C7.41568 0 8.33564 0.45598 8.93001 1.21595C9.1172 1.45594 9.0708 1.79992 8.82602 1.98391C8.7082 2.07218 8.56057 2.11096 8.41458 2.09198C8.26859 2.073 8.13579 1.99777 8.04445 1.88232C7.85138 1.63614 7.60467 1.43727 7.32311 1.30085C7.04155 1.16444 6.73258 1.09409 6.41972 1.09515C5.29017 1.09515 4.37421 1.99351 4.37421 3.10226C4.37421 4.07182 5.07978 4.89819 6.03894 5.07498C6.34132 5.13098 6.54132 5.41656 6.48452 5.71415C6.45534 5.85818 6.37047 5.98487 6.24838 6.06666C6.12629 6.14845 5.97685 6.17874 5.83255 6.15093C4.34861 5.87734 3.25826 4.6006 3.25826 3.10226C3.25826 1.38874 4.6742 0 6.41972 0Z" fill="#737790"/>
</svg>
