<svg width="18" height="19" viewBox="0 0 18 19" fill="none" xmlns="http://www.w3.org/2000/svg">
<path d="M8.15627 13.1562C8.15627 13.38 8.24516 13.5946 8.4034 13.7529C8.56163 13.9111 8.77624 14 9.00002 14C9.22379 14 9.43841 13.9111 9.59664 13.7529C9.75487 13.5946 9.84377 13.38 9.84377 13.1562C9.84377 12.9325 9.75487 12.7179 9.59664 12.5596C9.43841 12.4014 9.22379 12.3125 9.00002 12.3125C8.77624 12.3125 8.56163 12.4014 8.4034 12.5596C8.24516 12.7179 8.15627 12.9325 8.15627 13.1562ZM8.43752 7.8125V11.0469C8.43752 11.1242 8.5008 11.1875 8.57814 11.1875H9.42189C9.49924 11.1875 9.56252 11.1242 9.56252 11.0469V7.8125C9.56252 7.73516 9.49924 7.67188 9.42189 7.67188H8.57814C8.5008 7.67188 8.43752 7.73516 8.43752 7.8125ZM16.7994 15.5469L9.48693 2.89062C9.37795 2.70254 9.18986 2.60938 9.00002 2.60938C8.81017 2.60938 8.62033 2.70254 8.5131 2.89062L1.2006 15.5469C0.984393 15.923 1.2551 16.3906 1.68752 16.3906H16.3125C16.7449 16.3906 17.0156 15.923 16.7994 15.5469ZM3.02697 15.0564L9.00002 4.71699L14.9731 15.0564H3.02697Z" fill="#F0C61D"/>
</svg>
