<svg width="12" height="13" viewBox="0 0 12 13" fill="none" xmlns="http://www.w3.org/2000/svg">
<g clip-path="url(#clip0_468_1793)">
<rect y="0.5" width="12" height="12" rx="6" fill="white"/>
<path d="M1.5 0.5C1.10218 0.5 0.720644 0.658035 0.43934 0.93934C0.158035 1.22064 0 1.60218 0 2L0 11C0 11.3978 0.158035 11.7794 0.43934 12.0607C0.720644 12.342 1.10218 12.5 1.5 12.5H10.5C10.8978 12.5 11.2794 12.342 11.5607 12.0607C11.842 11.7794 12 11.3978 12 11V2C12 1.60218 11.842 1.22064 11.5607 0.93934C11.2794 0.658035 10.8978 0.5 10.5 0.5H1.5ZM9.0225 4.2275C9.12667 4.33156 9.18589 4.47233 9.18743 4.61957C9.18897 4.7668 9.13272 4.90878 9.03075 5.015L6.03675 8.7575C5.98529 8.81292 5.92319 8.8574 5.85415 8.88828C5.78511 8.91915 5.71055 8.93578 5.63494 8.93718C5.55932 8.93858 5.4842 8.92472 5.41407 8.89642C5.34393 8.86813 5.28022 8.82598 5.22675 8.7725L3.243 6.788C3.18773 6.7365 3.14341 6.6744 3.11266 6.6054C3.08192 6.5364 3.06539 6.46192 3.06406 6.38639C3.06272 6.31086 3.07662 6.23584 3.10491 6.1658C3.1332 6.09576 3.17531 6.03214 3.22872 5.97872C3.28214 5.92531 3.34576 5.8832 3.4158 5.85491C3.48584 5.82662 3.56086 5.81272 3.63639 5.81406C3.71192 5.81539 3.7864 5.83192 3.8554 5.86266C3.9244 5.89341 3.9865 5.93773 4.038 5.993L5.6085 7.56275L8.21325 4.244C8.2646 4.18848 8.32663 4.14388 8.39561 4.11288C8.4646 4.08187 8.53913 4.0651 8.61474 4.06356C8.69036 4.06202 8.76551 4.07574 8.8357 4.10391C8.90589 4.13208 8.96968 4.17411 9.02325 4.2275H9.0225Z" fill="#00A255"/>
</g>
<defs>
<clipPath id="clip0_468_1793">
<rect y="0.5" width="12" height="12" rx="6" fill="white"/>
</clipPath>
</defs>
</svg>
