<svg width="18" height="18" viewBox="0 0 18 18" fill="none" xmlns="http://www.w3.org/2000/svg">
<g clip-path="url(#clip0_1573_6449)">
<path d="M6 8.25C5.58579 8.25 5.25 8.58578 5.25 9C5.25 9.41422 5.58579 9.75 6 9.75H12C12.4142 9.75 12.75 9.41422 12.75 9C12.75 8.58578 12.4142 8.25 12 8.25H6Z" fill="#8C8FA3"/>
<path fill-rule="evenodd" clip-rule="evenodd" d="M17.25 9C17.25 13.5563 13.5563 17.25 9 17.25C4.44365 17.25 0.75 13.5563 0.75 9C0.75 4.44365 4.44365 0.75 9 0.75C13.5563 0.75 17.25 4.44365 17.25 9ZM15.75 9C15.75 12.728 12.728 15.75 9 15.75C5.27208 15.75 2.25 12.728 2.25 9C2.25 5.27208 5.27208 2.25 9 2.25C12.728 2.25 15.75 5.27208 15.75 9Z" fill="#8C8FA3"/>
</g>
<defs>
<clipPath id="clip0_1573_6449">
<rect width="18" height="18" fill="white"/>
</clipPath>
</defs>
</svg>
