<svg width="28" height="29" viewBox="0 0 28 29" fill="none" xmlns="http://www.w3.org/2000/svg">
<path d="M15.201 21.4935C15.2593 22.3102 15.446 23.1035 15.7493 23.8268H7.58268C5.83268 23.8268 4.30435 23.2435 3.04435 21.9952C1.79602 20.7702 1.16602 19.2652 1.16602 17.5035C1.16602 15.9868 1.62102 14.6335 2.53102 13.4435C3.89602 11.6585 4.66602 11.4952 6.12435 11.1685C6.61435 9.38349 7.58268 7.93682 9.04101 6.82849C10.4993 5.72016 12.156 5.16016 13.9993 5.16016C16.2743 5.16016 18.1993 5.95349 19.786 7.54016C21.3727 9.12682 22.166 11.0518 22.166 13.3268H22.2827C21.4193 13.4085 20.591 13.5952 19.8327 13.9102V13.3268C19.8327 11.7168 19.2493 10.3402 18.1293 9.19682C16.986 8.07682 15.6093 7.49349 13.9993 7.49349C12.3893 7.49349 11.0127 8.07682 9.86935 9.19682C8.74935 10.3402 8.16601 11.7168 8.16601 13.3268H7.58268C6.45101 13.3268 5.49435 13.7235 4.70102 14.5285C3.89602 15.3218 3.49935 16.2785 3.49935 17.4102C3.49935 18.5418 3.89602 19.4985 4.70102 20.3268C5.49435 21.0968 6.45101 21.4935 7.58268 21.4935H15.201ZM22.166 16.2435V14.4935L19.541 17.1185L22.166 19.7435V17.9935C22.9396 17.9935 23.6814 18.3008 24.2284 18.8478C24.7754 19.3947 25.0827 20.1366 25.0827 20.9102C25.0827 21.3768 24.9777 21.8202 24.7793 22.2168L26.051 23.4885C26.541 22.7535 26.8327 21.8668 26.8327 20.9102C26.8327 18.3318 24.7443 16.2435 22.166 16.2435ZM22.166 23.8268C21.3925 23.8268 20.6506 23.5195 20.1036 22.9725C19.5566 22.4256 19.2493 21.6837 19.2493 20.9102C19.2493 20.4435 19.3543 20.0002 19.5527 19.6035L18.281 18.3318C17.791 19.0668 17.4993 19.9535 17.4993 20.9102C17.4993 23.4885 19.5877 25.5768 22.166 25.5768V27.3268L24.791 24.7018L22.166 22.0768V23.8268Z" fill="#737790"/>
</svg>
