<svg width="40" height="40" viewBox="0 0 40 40" fill="none" xmlns="http://www.w3.org/2000/svg">
<path d="M6.66667 28.8885H2.22187M20 6.66667V0M28.8885 6.66667V2.22187M11.1115 6.66667V2.22187M33.3333 20H40M33.3333 28.8885H37.7781M33.3333 11.1115H37.7781M20 33.3333V40M11.1115 33.3333V37.7781M28.8885 33.3333V37.7781M6.66667 20H0M6.66667 11.1115H2.22187" stroke="#737790" stroke-width="2.13333" stroke-linecap="round" stroke-linejoin="round"/>
<path d="M31.1118 33.3327H8.88886C8.29958 33.3327 7.73444 33.0986 7.31776 32.6819C6.90108 32.2652 6.66699 31.7001 6.66699 31.1108V8.88788C6.66699 8.29861 6.90108 7.73347 7.31776 7.31679C7.73444 6.9001 8.29958 6.66602 8.88886 6.66602H31.1118C31.7011 6.66602 32.2662 6.9001 32.6829 7.31679C33.0996 7.73347 33.3337 8.29861 33.3337 8.88788V31.1108C33.3337 31.7001 33.0996 32.2652 32.6829 32.6819C32.2662 33.0986 31.7011 33.3327 31.1118 33.3327ZM24.4451 15.5545H15.5555V24.4441H24.4451V15.5545Z" stroke="#737790" stroke-width="2.13333" stroke-linecap="round" stroke-linejoin="round"/>
</svg>
