<svg width="72" height="72" viewBox="0 0 72 72" fill="none" xmlns="http://www.w3.org/2000/svg">
<path d="M54 68.25C50.658 68.25 47.823 67.086 45.495 64.758C43.165 62.426 42 59.59 42 56.25C42 52.91 43.165 50.075 45.495 47.745C47.825 45.415 50.66 44.25 54 44.25C57.34 44.25 60.176 45.415 62.508 47.745C64.84 50.075 66.004 52.91 66 56.25C65.996 59.59 64.832 62.426 62.508 64.758C60.184 67.09 57.348 68.254 54 68.25ZM52.845 59.61L48.843 55.602C48.619 55.38 48.355 55.26 48.051 55.242C47.749 55.222 47.467 55.342 47.205 55.602C46.943 55.866 46.812 56.14 46.812 56.424C46.812 56.708 46.942 56.981 47.202 57.243L52.302 62.343C52.564 62.603 52.834 62.787 53.112 62.895C53.392 62.999 53.69 63.051 54.006 63.051C54.322 63.051 54.618 62.999 54.894 62.895C55.17 62.791 55.438 62.607 55.698 62.343L60.798 57.243C61.02 57.019 61.14 56.755 61.158 56.451C61.178 56.149 61.058 55.867 60.798 55.605C60.534 55.343 60.26 55.212 59.976 55.212C59.692 55.212 59.412 55.349 59.136 55.623L55.152 59.607V49.617C55.152 49.307 55.037 49.037 54.807 48.807C54.577 48.577 54.308 48.462 54 48.462C53.692 48.462 53.422 48.577 53.19 48.807C52.962 49.039 52.848 49.309 52.848 49.617L52.845 59.61Z" fill="url(#paint0_linear_1385_4634)"/>
<path d="M35.076 12.5191L16.725 23.1391L36 34.2842L55.275 23.1452L36.924 12.5221C36.616 12.3301 36.308 12.2341 36 12.2341C35.692 12.2341 35.384 12.3271 35.076 12.5191ZM12 46.8302V25.1702C12 24.3022 12.212 23.4992 12.636 22.7612C13.06 22.0232 13.656 21.4281 14.424 20.9761L33.576 9.94215C34 9.69215 34.4 9.52015 34.776 9.42615C35.152 9.33215 35.56 9.28615 36 9.28815C36.44 9.29015 36.86 9.33615 37.26 9.42615C37.664 9.52015 38.053 9.69215 38.427 9.94215L57.579 20.9761C58.347 21.4281 58.943 22.0232 59.367 22.7612C59.791 23.4992 60.002 24.3022 60 25.1702V34.0352C60 34.4612 59.856 34.8182 59.568 35.1062C59.28 35.3942 58.923 35.5372 58.497 35.5352C58.071 35.5332 57.715 35.3902 57.429 35.1062C57.143 34.8222 57 34.4652 57 34.0352V25.5691L38.349 36.3392C37.579 36.7752 36.768 36.9932 35.916 36.9932C35.064 36.9932 34.259 36.7762 33.501 36.3422L15 25.5691V46.8092C15 47.1192 15.077 47.4092 15.231 47.6792C15.385 47.9492 15.615 48.1792 15.921 48.3692L34.098 58.9502C34.322 59.0762 34.502 59.2512 34.638 59.4752C34.774 59.6992 34.844 59.9492 34.848 60.2252C34.848 60.8032 34.607 61.2252 34.125 61.4912C33.645 61.7592 33.155 61.7522 32.655 61.4702L14.424 51.0242C13.656 50.5722 13.06 49.9772 12.636 49.2392C12.212 48.5012 12 47.6982 12 46.8302Z" fill="url(#paint1_linear_1385_4634)"/>
<defs>
<linearGradient id="paint0_linear_1385_4634" x1="39" y1="9.28784" x2="39" y2="68.2499" gradientUnits="userSpaceOnUse">
<stop stop-color="#3D98FF"/>
<stop offset="1" stop-color="#1F77DB"/>
</linearGradient>
<linearGradient id="paint1_linear_1385_4634" x1="39" y1="9.28809" x2="39" y2="68.2502" gradientUnits="userSpaceOnUse">
<stop stop-color="#3D98FF"/>
<stop offset="1" stop-color="#1F77DB"/>
</linearGradient>
</defs>
</svg>
