<svg width="72" height="72" viewBox="0 0 72 72" fill="none" xmlns="http://www.w3.org/2000/svg">
<g clip-path="url(#clip0_1381_5026)">
<rect x="42" y="44" width="24" height="24" rx="12" fill="white"/>
<path d="M45 44C44.2044 44 43.4413 44.3161 42.8787 44.8787C42.3161 45.4413 42 46.2044 42 47V65C42 65.7956 42.3161 66.5587 42.8787 67.1213C43.4413 67.6839 44.2044 68 45 68H63C63.7956 68 64.5587 67.6839 65.1213 67.1213C65.6839 66.5587 66 65.7956 66 65V47C66 46.2044 65.6839 45.4413 65.1213 44.8787C64.5587 44.3161 63.7956 44 63 44H45ZM60.045 51.455C60.2533 51.6631 60.3718 51.9447 60.3749 52.2391C60.3779 52.5336 60.2654 52.8176 60.0615 53.03L54.0735 60.515C53.9706 60.6258 53.8464 60.7148 53.7083 60.7766C53.5702 60.8383 53.4211 60.8716 53.2699 60.8744C53.1186 60.8772 52.9684 60.8494 52.8281 60.7928C52.6879 60.7363 52.5604 60.652 52.4535 60.545L48.486 56.576C48.3755 56.473 48.2868 56.3488 48.2253 56.2108C48.1638 56.0728 48.1308 55.9238 48.1281 55.7728C48.1254 55.6217 48.1532 55.4717 48.2098 55.3316C48.2664 55.1915 48.3506 55.0643 48.4574 54.9574C48.5643 54.8506 48.6915 54.7664 48.8316 54.7098C48.9717 54.6532 49.1217 54.6254 49.2728 54.6281C49.4238 54.6308 49.5728 54.6638 49.7108 54.7253C49.8488 54.7868 49.973 54.8755 50.076 54.986L53.217 58.1255L58.4265 51.488C58.5292 51.377 58.6533 51.2878 58.7912 51.2258C58.9292 51.1637 59.0783 51.1302 59.2295 51.1271C59.3807 51.124 59.531 51.1515 59.6714 51.2078C59.8118 51.2642 59.9394 51.3482 60.0465 51.455H60.045Z" fill="#00A255"/>
</g>
<path d="M35.076 12.5182L16.725 23.1382L36 34.2832L55.275 23.1442L36.924 12.5212C36.616 12.3292 36.308 12.2332 36 12.2332C35.692 12.2332 35.384 12.3262 35.076 12.5182ZM12 46.8292V25.1692C12 24.3012 12.212 23.4982 12.636 22.7602C13.06 22.0222 13.656 21.4272 14.424 20.9752L33.576 9.94117C34 9.69117 34.4 9.51917 34.776 9.42517C35.152 9.33117 35.56 9.28517 36 9.28717C36.44 9.28917 36.86 9.33517 37.26 9.42517C37.664 9.51917 38.053 9.69117 38.427 9.94117L57.579 20.9752C58.347 21.4272 58.943 22.0222 59.367 22.7602C59.791 23.4982 60.002 24.3012 60 25.1692V34.0342C60 34.4602 59.856 34.8172 59.568 35.1052C59.28 35.3932 58.923 35.5362 58.497 35.5342C58.071 35.5322 57.715 35.3892 57.429 35.1052C57.143 34.8212 57 34.4642 57 34.0342V25.5682L38.349 36.3382C37.579 36.7742 36.768 36.9922 35.916 36.9922C35.064 36.9922 34.259 36.7752 33.501 36.3412L15 25.5682V46.8082C15 47.1182 15.077 47.4082 15.231 47.6782C15.385 47.9482 15.615 48.1782 15.921 48.3682L34.098 58.9492C34.322 59.0752 34.502 59.2502 34.638 59.4742C34.774 59.6982 34.844 59.9482 34.848 60.2242C34.848 60.8022 34.607 61.2242 34.125 61.4902C33.645 61.7582 33.155 61.7512 32.655 61.4692L14.424 51.0232C13.656 50.5712 13.06 49.9762 12.636 49.2382C12.212 48.5002 12 47.6972 12 46.8292Z" fill="url(#paint0_linear_1381_5026)"/>
<defs>
<linearGradient id="paint0_linear_1381_5026" x1="39" y1="9.28711" x2="39" y2="68.2492" gradientUnits="userSpaceOnUse">
<stop stop-color="#3D98FF"/>
<stop offset="1" stop-color="#1F77DB"/>
</linearGradient>
<clipPath id="clip0_1381_5026">
<rect x="42" y="44" width="24" height="24" rx="12" fill="white"/>
</clipPath>
</defs>
</svg>
