<svg width="18" height="19" viewBox="0 0 18 19" fill="none" xmlns="http://www.w3.org/2000/svg">
<path d="M9 3.45161C12.3427 3.45161 15.0484 6.15678 15.0484 9.5C15.0484 12.8427 12.3432 15.5484 9 15.5484C5.6573 15.5484 2.95161 12.8432 2.95161 9.5C2.95161 6.1573 5.65678 3.45161 9 3.45161ZM9 2C4.85785 2 1.5 5.35785 1.5 9.5C1.5 13.6421 4.85785 17 9 17C13.1421 17 16.5 13.6421 16.5 9.5C16.5 5.35785 13.1421 2 9 2ZM9 7.08065C7.66382 7.08065 6.58065 8.16382 6.58065 9.5C6.58065 10.8362 7.66382 11.9194 9 11.9194C10.3362 11.9194 11.4194 10.8362 11.4194 9.5C11.4194 8.16382 10.3362 7.08065 9 7.08065Z" fill="#6F7C70"/>
</svg>
