<svg width="16" height="16" viewBox="0 0 16 16" fill="none" xmlns="http://www.w3.org/2000/svg">
<g clip-path="url(#clip0_1409_11774)">
<path d="M12.0007 6.66634H8.66732M14.6673 7.86501C14.6673 6.11034 14.6673 5.23234 14.154 4.66234C14.1069 4.60974 14.057 4.55967 14.0047 4.51234C13.4347 3.99967 12.5567 3.99967 10.802 3.99967H10.5527C9.78398 3.99967 9.39932 3.99967 9.04065 3.89767C8.84382 3.84141 8.65413 3.76267 8.47532 3.66301C8.14998 3.48234 7.87798 3.20967 7.33398 2.66634L6.96732 2.29967C6.78465 2.11701 6.69398 2.02634 6.59798 1.94634C6.18509 1.6041 5.67861 1.3943 5.14465 1.34434C5.02065 1.33301 4.89132 1.33301 4.63398 1.33301C4.04532 1.33301 3.75132 1.33301 3.50598 1.37967C2.97921 1.47916 2.49465 1.7351 2.11552 2.11411C1.73639 2.49312 1.4803 2.9776 1.38065 3.50434C1.33398 3.75034 1.33398 4.04501 1.33398 4.63301M14.6613 10.6663C14.6373 12.3197 14.5146 13.2563 13.886 13.885C13.1053 14.6663 11.848 14.6663 9.33398 14.6663H6.66732C4.15332 14.6663 2.89598 14.6663 2.11532 13.885C1.33465 13.1037 1.33398 11.847 1.33398 9.33301V7.33301" stroke="#727799" stroke-linecap="round"/>
</g>
<defs>
<clipPath id="clip0_1409_11774">
<rect width="16" height="16" fill="white"/>
</clipPath>
</defs>
</svg>
