<svg width="76" height="68" viewBox="0 0 76 68" fill="none" xmlns="http://www.w3.org/2000/svg">
<g clip-path="url(#clip0_1537_7289)">
<path d="M38.986 25.7902L55.8622 55.0283C56.2813 55.7711 57.3479 55.7902 57.8241 55.0854L64.0717 45.4282C64.3003 45.0663 64.3194 44.6092 64.1098 44.2282L45.4051 11.9044C44.967 11.1425 43.8622 11.1425 43.4241 11.9044L37.9194 21.3902C37.7098 21.7521 37.3289 21.9616 36.9289 21.9616H25.4241C25.0051 21.9616 24.6432 22.1711 24.4336 22.533L11.9003 44.2854C11.6908 44.6473 11.6908 45.0663 11.9003 45.4282L18.0336 56.0949C18.2432 56.4568 18.6241 56.6663 19.0241 56.6663H43.6336C44.5098 56.6663 45.0622 55.714 44.6241 54.9521L38.967 45.1806C38.5289 44.4187 37.4241 44.4187 36.986 45.1806L32.586 52.8378C32.1479 53.5997 31.0432 53.5997 30.6051 52.8378L26.3384 45.4282C26.1289 45.0663 26.1289 44.6473 26.3384 44.2854L36.986 25.8092C37.4241 25.0473 38.5289 25.0473 38.967 25.8092L38.986 25.7902Z" fill="#FF802C"/>
</g>
<defs>
<clipPath id="clip0_1537_7289">
<rect width="52.5126" height="45.3333" fill="white" transform="translate(11.7432 11.333)"/>
</clipPath>
</defs>
</svg>
