<svg width="127" height="24" viewBox="0 0 127 24" fill="none" xmlns="http://www.w3.org/2000/svg">
<path d="M41.6134 15.9916H37.1034L36.2434 18.0716H33.9434L38.2734 8.35156H40.4934L44.8334 18.0716H42.4734L41.6134 15.9916ZM40.9034 14.2816L39.3634 10.5616L37.8234 14.2816H40.9034Z" fill="#272B42"/>
<path d="M48.623 8.36328H50.873V18.0833H48.623V8.36328Z" fill="#272B42"/>
<path d="M62.1431 18.0833L60.2731 15.3733H58.2031V18.0833H55.9531V8.36328H60.1631C61.0231 8.36328 61.7731 8.50328 62.4031 8.79328C63.0331 9.08328 63.5231 9.48328 63.8631 10.0133C64.2031 10.5433 64.3731 11.1633 64.3731 11.8833C64.3731 12.6033 64.2031 13.2233 63.8531 13.7533C63.5031 14.2833 63.0131 14.6733 62.3731 14.9533L64.5531 18.0733H62.1331L62.1431 18.0833ZM61.5731 10.6333C61.2231 10.3433 60.7031 10.1933 60.0331 10.1933H58.2031V13.5833H60.0331C60.7131 13.5833 61.2231 13.4333 61.5731 13.1433C61.9231 12.8433 62.1031 12.4333 62.1031 11.8933C62.1031 11.3533 61.9231 10.9333 61.5731 10.6333Z" fill="#272B42"/>
<path d="M78.2743 8.36328L74.0643 18.0833H71.8443L67.6543 8.36328H70.0843L73.0443 15.3033L76.0443 8.36328H78.2743Z" fill="#272B42"/>
<path d="M87.9337 15.9916H83.4237L82.5637 18.0716H80.2637L84.5937 8.35156H86.8137L91.1537 18.0716H88.7937L87.9337 15.9916ZM87.2237 14.2816L85.6837 10.5616L84.1437 14.2816H87.2237Z" fill="#272B42"/>
<path d="M95.8143 17.0933C95.0443 16.3233 94.6543 15.2333 94.6543 13.8033V8.36328H96.9043V13.7233C96.9043 15.4633 97.6243 16.3333 99.0743 16.3333C99.7743 16.3333 100.314 16.1233 100.684 15.7033C101.054 15.2833 101.234 14.6233 101.234 13.7233V8.36328H103.454V13.8033C103.454 15.2333 103.064 16.3233 102.294 17.0933C101.524 17.8633 100.444 18.2433 99.0543 18.2433C97.6643 18.2433 96.5843 17.8633 95.8143 17.0933Z" fill="#272B42"/>
<path d="M108.443 8.36156H110.693V16.2416H115.563V18.0716H108.443V8.35156V8.36156Z" fill="#272B42"/>
<path d="M120.714 10.1933H117.604V8.36328H126.074V10.1933H122.964V18.0733H120.714V10.1933Z" fill="#272B42"/>
<path d="M14.3025 7.59L23.1625 22.94C23.3825 23.33 23.9425 23.34 24.1925 22.97L27.4725 17.9C27.5925 17.71 27.6025 17.47 27.4925 17.27L17.6725 0.3C17.4425 -0.1 16.8625 -0.1 16.6325 0.3L13.7425 5.28C13.6325 5.47 13.4325 5.58 13.2225 5.58H7.1825C6.9625 5.58 6.7725 5.69 6.6625 5.88L0.0825 17.3C-0.0275 17.49 -0.0275 17.71 0.0825 17.9L3.3025 23.5C3.4125 23.69 3.6125 23.8 3.8225 23.8H16.7425C17.2025 23.8 17.4925 23.3 17.2625 22.9L14.2925 17.77C14.0625 17.37 13.4825 17.37 13.2525 17.77L10.9425 21.79C10.7125 22.19 10.1325 22.19 9.9025 21.79L7.6625 17.9C7.5525 17.71 7.5525 17.49 7.6625 17.3L13.2525 7.6C13.4825 7.2 14.0625 7.2 14.2925 7.6L14.3025 7.59Z" fill="#FF802C"/>
</svg>
