<svg width="214" height="48" viewBox="0 0 214 48" fill="none" xmlns="http://www.w3.org/2000/svg">
<g clip-path="url(#clip0_1502_10936)">
<path d="M26.4227 19.6538L35.3571 35.1328C35.579 35.5261 36.1437 35.5361 36.3958 35.163L39.7034 30.0504C39.8244 29.8588 39.8345 29.6168 39.7235 29.4151L29.821 12.3025C29.5891 11.8992 29.0042 11.8992 28.7723 12.3025L25.858 17.3244C25.7471 17.516 25.5454 17.6269 25.3336 17.6269H19.2429C19.021 17.6269 18.8294 17.7378 18.7185 17.9294L12.0832 29.4454C11.9723 29.637 11.9723 29.8588 12.0832 30.0504L15.3303 35.6975C15.4412 35.8891 15.6429 36 15.8546 36H28.8832C29.3471 36 29.6395 35.4958 29.4076 35.0924L26.4126 29.9193C26.1807 29.516 25.5958 29.516 25.3639 29.9193L23.0345 33.9731C22.8025 34.3765 22.2176 34.3765 21.9857 33.9731L19.7269 30.0504C19.616 29.8588 19.616 29.637 19.7269 29.4454L25.3639 19.6639C25.5958 19.2605 26.1807 19.2605 26.4126 19.6639L26.4227 19.6538Z" fill="#FF802C"/>
</g>
<defs>
<clipPath id="clip0_1502_10936">
<rect width="27.8008" height="24" fill="white" transform="translate(12 12)"/>
</clipPath>
</defs>
</svg>
