<svg width="30" height="30" viewBox="0 0 30 30" fill="none" xmlns="http://www.w3.org/2000/svg">
<g clip-path="url(#clip0_1502_10729)">
<path d="M13.1146 22.5648C13.1089 22.3146 13.1533 22.0658 13.2451 21.8329C13.3369 21.6001 13.4744 21.3879 13.6493 21.209C13.8243 21.03 14.0332 20.8877 14.2639 20.7906C14.4946 20.6935 14.7423 20.6434 14.9926 20.6433C15.2429 20.6433 15.4907 20.6932 15.7214 20.7902C15.9521 20.8872 16.1611 21.0294 16.3362 21.2083C16.5112 21.3872 16.6487 21.5993 16.7407 21.832C16.8326 22.0648 16.8771 22.3136 16.8716 22.5639C16.8608 23.0548 16.6581 23.522 16.3071 23.8654C15.9561 24.2089 15.4846 24.4012 14.9935 24.4013C14.5025 24.4015 14.0309 24.2093 13.6797 23.8661C13.3285 23.5228 13.1257 23.0558 13.1146 22.5648ZM14.9936 9.41182C14.7433 9.41747 14.4945 9.37308 14.2617 9.28125C14.0288 9.18942 13.8167 9.052 13.6377 8.87705C13.4587 8.7021 13.3165 8.49316 13.2193 8.26248C13.1222 8.03181 13.0721 7.78406 13.0721 7.53377C13.072 7.28348 13.122 7.0357 13.219 6.80497C13.316 6.57425 13.4581 6.36524 13.637 6.1902C13.8159 6.01516 14.028 5.87763 14.2608 5.78569C14.4936 5.69374 14.7424 5.64922 14.9926 5.65476C15.4836 5.66561 15.9507 5.86823 16.2942 6.21924C16.6376 6.57026 16.8299 7.04176 16.8301 7.53283C16.8302 8.02389 16.6381 8.4955 16.2948 8.84668C15.9516 9.19786 15.4845 9.40071 14.9936 9.41182ZM14.9936 16.9278C14.7433 16.9335 14.4945 16.8891 14.2617 16.7973C14.0288 16.7054 13.8167 16.568 13.6377 16.393C13.4587 16.2181 13.3165 16.0092 13.2193 15.7785C13.1222 15.5478 13.0721 15.3001 13.0721 15.0498C13.072 14.7995 13.122 14.5517 13.219 14.321C13.316 14.0903 13.4581 13.8812 13.637 13.7062C13.8159 13.5312 14.028 13.3936 14.2608 13.3017C14.4936 13.2097 14.7424 13.1652 14.9926 13.1708C15.4836 13.1816 15.9507 13.3842 16.2942 13.7352C16.6376 14.0863 16.8299 14.5578 16.8301 15.0488C16.8302 15.5399 16.6381 16.0115 16.2948 16.3627C15.9516 16.7139 15.4845 16.9167 14.9936 16.9278Z" fill="#737790"/>
</g>
<defs>
<clipPath id="clip0_1502_10729">
<rect width="30" height="30" fill="white"/>
</clipPath>
</defs>
</svg>
