<svg width="20" height="20" viewBox="0 0 20 20" fill="none" xmlns="http://www.w3.org/2000/svg">
<path d="M10 10.0013C9.76389 10.0013 9.56611 9.92131 9.40667 9.76131C9.24722 9.60131 9.16722 9.40353 9.16667 9.16797V2.50131C9.16667 2.26519 9.24667 2.06742 9.40667 1.90797C9.56667 1.74853 9.76444 1.66853 10 1.66797C10.2356 1.66742 10.4336 1.74742 10.5942 1.90797C10.7547 2.06853 10.8344 2.26631 10.8333 2.50131V9.16797C10.8333 9.40408 10.7533 9.60214 10.5933 9.76214C10.4333 9.92214 10.2356 10.0019 10 10.0013ZM10 17.5013C8.95833 17.5013 7.98278 17.3035 7.07333 16.908C6.16389 16.5124 5.37222 15.9777 4.69833 15.3038C4.02444 14.6299 3.48972 13.8383 3.09417 12.9288C2.69861 12.0194 2.50056 11.0435 2.5 10.0013C2.5 9.15408 2.63889 8.33103 2.91667 7.53214C3.19444 6.73325 3.59722 6.00075 4.125 5.33464C4.27778 5.14019 4.47222 5.04658 4.70833 5.05381C4.94444 5.06103 5.15278 5.15464 5.33333 5.33464C5.48611 5.48742 5.55556 5.67492 5.54167 5.89714C5.52778 6.11936 5.45139 6.32769 5.3125 6.52214C4.9375 7.02214 4.65278 7.57075 4.45833 8.16797C4.26389 8.7652 4.16667 9.37631 4.16667 10.0013C4.16667 11.6263 4.73278 13.0049 5.865 14.1371C6.99722 15.2694 8.37556 15.8352 10 15.8346C11.6244 15.8341 13.0031 15.2683 14.1358 14.1371C15.2686 13.006 15.8344 11.6274 15.8333 10.0013C15.8333 9.36242 15.7397 8.74075 15.5525 8.13631C15.3653 7.53186 15.07 6.97992 14.6667 6.48047C14.5278 6.29992 14.4514 6.10214 14.4375 5.88714C14.4236 5.67214 14.4931 5.48797 14.6458 5.33464C14.8125 5.16797 15.0139 5.08131 15.25 5.07464C15.4861 5.06797 15.6806 5.15464 15.8333 5.33464C16.375 6.00131 16.7883 6.73047 17.0733 7.52214C17.3583 8.31381 17.5006 9.1402 17.5 10.0013C17.5 11.043 17.3022 12.0188 16.9067 12.9288C16.5111 13.8388 15.9764 14.6305 15.3025 15.3038C14.6286 15.9771 13.8369 16.5119 12.9275 16.908C12.0181 17.3041 11.0422 17.5019 10 17.5013Z" fill="#727799"/>
</svg>
