<svg width="24" height="24" viewBox="0 0 24 24" fill="none" xmlns="http://www.w3.org/2000/svg">
<path d="M12.0037 19.7995C13.2343 19.7995 14.2319 18.8016 14.2319 17.5706C14.2319 16.3397 13.2343 15.3418 12.0037 15.3418C10.773 15.3418 9.77539 16.3397 9.77539 17.5706C9.77539 18.8016 10.773 19.7995 12.0037 19.7995Z" fill="#44475B"/>
<path d="M3.5997 9.93922L2.66312 9.06485C3.81574 7.74364 5.19423 6.68008 6.72074 5.93336C8.3822 5.12064 10.1823 4.70117 12.0018 4.70117C13.8213 4.70117 15.6214 5.12064 17.2828 5.93336C18.8093 6.68008 20.1878 7.74364 21.3404 9.06485L20.4039 9.93922C19.3814 8.76065 18.1625 7.80476 16.8098 7.12676C15.301 6.37053 13.6618 5.97824 12.0018 5.97824C10.3418 5.97824 8.70261 6.37053 7.19379 7.12676C5.84106 7.80476 4.62213 8.76065 3.5997 9.93922ZM7.72168 13.5051L6.78904 12.6344C7.41794 11.9482 8.16409 11.3906 8.98926 10.9907C9.95136 10.5244 10.9984 10.2832 12.0575 10.2832C13.1166 10.2832 14.1636 10.5244 15.1257 10.9907C15.9557 11.393 16.7057 11.9547 17.3369 12.6464L16.4922 13.4913C15.9931 12.9428 15.4035 12.4903 14.7495 12.1576C13.9281 11.7398 13.0271 11.5221 12.1132 11.5221C11.1993 11.5221 10.2983 11.7398 9.47684 12.1576C8.81738 12.4931 8.22342 12.9503 7.72168 13.5051Z" fill="#44475B" stroke="black"/>
</svg>
