<svg width="16" height="16" viewBox="0 0 16 16" fill="none" xmlns="http://www.w3.org/2000/svg">
<path d="M4.32461 2.43933C4.20713 2.30949 4.06521 2.20407 3.90698 2.12908C3.74875 2.05409 3.5773 2.01101 3.40242 2.00228C3.22753 1.99355 3.05264 2.01935 2.88773 2.07821C2.72282 2.13707 2.57111 2.22784 2.44128 2.34533C2.31145 2.46282 2.20603 2.60473 2.13104 2.76296C2.05605 2.92119 2.01296 3.09264 2.00423 3.26753C1.9955 3.44241 2.0213 3.6173 2.08016 3.78221C2.13903 3.94712 2.22979 4.09883 2.34728 4.22866C2.58456 4.49087 2.91629 4.64808 3.26948 4.66571C3.62267 4.68334 3.9684 4.55994 4.23061 4.32266C4.49283 4.08538 4.65004 3.75366 4.66767 3.40046C4.68529 3.04727 4.56189 2.70154 4.32461 2.43933ZM4.32461 2.43933C5.4148 1.71627 6.69444 1.33171 8.00262 1.33399C8.46039 1.33488 8.90484 1.37933 9.33595 1.46733M13.5713 4.33399C14.2896 5.42178 14.6715 6.6971 14.6693 8.00066C14.6684 8.45844 14.6239 8.90288 14.5359 9.334M11.6806 13.562C10.5904 14.2851 9.31079 14.6696 8.00262 14.6673C7.54484 14.6664 7.10039 14.622 6.66928 14.534M11.6806 13.562C11.7981 13.6918 11.94 13.7973 12.0982 13.8722C12.2565 13.9472 12.4279 13.9903 12.6028 13.999C12.7777 14.0078 12.9526 13.982 13.1175 13.9231C13.2824 13.8643 13.4341 13.7735 13.5639 13.656C13.6938 13.5385 13.7992 13.3966 13.8742 13.2384C13.9492 13.0801 13.9923 12.9087 14.001 12.7338C14.0097 12.5589 13.9839 12.384 13.9251 12.2191C13.8662 12.0542 13.7754 11.9025 13.6579 11.7727C13.4207 11.5105 13.0889 11.3532 12.7358 11.3356C12.3826 11.318 12.0368 11.4414 11.7746 11.6787C11.5124 11.9159 11.3552 12.2477 11.3376 12.6009C11.3199 12.9541 11.4433 13.2998 11.6806 13.562ZM2.44128 11.6787C1.71822 10.5885 1.33366 9.30883 1.33595 8.00066C1.33684 7.54288 1.38128 7.09844 1.46928 6.66733M2.44128 11.6787C2.17907 11.9159 2.02186 12.2477 2.00423 12.6009C1.9866 12.9541 2.11 13.2998 2.34728 13.562C2.58456 13.8242 2.91629 13.9814 3.26948 13.999C3.62267 14.0167 3.9684 13.8933 4.23061 13.656C4.36045 13.5385 4.46587 13.3966 4.54086 13.2384C4.61585 13.0801 4.65894 12.9087 4.66767 12.7338C4.67639 12.5589 4.65059 12.384 4.59173 12.2191C4.53287 12.0542 4.4421 11.9025 4.32461 11.7727C4.20713 11.6428 4.06521 11.5374 3.90698 11.4624C3.74875 11.3874 3.5773 11.3443 3.40242 11.3356C3.04922 11.318 2.70349 11.4414 2.44128 11.6787ZM5.33595 6.986C6.10195 6.36266 7.01595 6.00066 7.99928 6.00066C8.98462 6.00066 9.90195 6.36533 10.6693 6.992M9.45195 8.66733C9.01737 8.39104 8.51358 8.24314 7.99862 8.24066C7.48631 8.24319 6.98503 8.38965 6.55195 8.66333M8.00262 10.6673H8.00661M14.0026 3.33399C14.0026 3.68762 13.8621 4.02676 13.6121 4.2768C13.362 4.52685 13.0229 4.66733 12.6693 4.66733C12.3157 4.66733 11.9765 4.52685 11.7265 4.2768C11.4764 4.02676 11.3359 3.68762 11.3359 3.33399C11.3359 2.98037 11.4764 2.64123 11.7265 2.39119C11.9765 2.14114 12.3157 2.00066 12.6693 2.00066C13.0229 2.00066 13.362 2.14114 13.6121 2.39119C13.8621 2.64123 14.0026 2.98037 14.0026 3.33399Z" stroke="#727799" stroke-linecap="round" stroke-linejoin="round"/>
</svg>
