<svg width="52" height="52" viewBox="0 0 52 52" fill="none" xmlns="http://www.w3.org/2000/svg">
<rect width="52" height="51.9994" rx="25.9997" fill="#FFEBEE"/>
<path fill-rule="evenodd" clip-rule="evenodd" d="M28.107 13.3513C28.107 12.7922 27.8849 12.256 27.4895 11.8606C27.0942 11.4653 26.558 11.2432 25.9989 11.2432C25.4398 11.2432 24.9036 11.4653 24.5082 11.8606C24.1129 12.256 23.8908 12.7922 23.8908 13.3513V24.0541C23.8908 24.6132 24.1129 25.1494 24.5082 25.5448C24.9036 25.9401 25.4398 26.1622 25.9989 26.1622C26.558 26.1622 27.0942 25.9401 27.4895 25.5448C27.8849 25.1494 28.107 24.6132 28.107 24.0541V13.3513ZM19.5122 17.6919C19.949 17.3466 20.2314 16.8426 20.2979 16.2899C20.3644 15.7372 20.2095 15.1806 19.8671 14.7416C19.5248 14.3026 19.0226 14.0169 18.4703 13.9468C17.9181 13.8767 17.3605 14.0279 16.9192 14.3674C14.4971 16.2583 12.7256 18.8581 11.8521 21.8041C10.9785 24.7502 11.0464 27.8954 12.0462 30.801C13.0461 33.7066 14.928 36.2276 17.4295 38.0122C19.9309 39.7969 22.9271 40.7561 25.9999 40.7561C29.0727 40.7561 32.0689 39.7969 34.5704 38.0122C37.0718 36.2276 38.9538 33.7066 39.9536 30.801C40.9535 27.8954 41.0214 24.7502 40.1478 21.8041C39.2742 18.8581 37.5027 16.2583 35.0806 14.3674C34.6397 14.0233 34.0802 13.8683 33.5252 13.9367C32.9701 14.0051 32.4649 14.2912 32.1208 14.7321C31.7767 15.1729 31.6218 15.7324 31.6902 16.2875C31.7586 16.8426 32.0447 17.3477 32.4855 17.6919C34.2155 19.0426 35.4807 20.8996 36.1046 23.0039C36.7285 25.1082 36.6799 27.3547 35.9657 29.4301C35.2515 31.5055 33.9072 33.3061 32.1205 34.5808C30.3338 35.8555 28.1937 36.5406 25.9989 36.5406C23.804 36.5406 21.664 35.8555 19.8772 34.5808C18.0905 33.3061 16.7462 31.5055 16.032 29.4301C15.3178 27.3547 15.2692 25.1082 15.8931 23.0039C16.517 20.8996 17.7822 19.0426 19.5122 17.6919Z" fill="#F06070"/>
</svg>
