<svg width="52" height="52" viewBox="0 0 52 52" fill="none" xmlns="http://www.w3.org/2000/svg">
<rect width="52" height="52" rx="26" fill="#FFEBEE"/>
<path d="M17.8331 40.6998C16.9348 40.6998 16.166 40.3802 15.5268 39.741C14.8877 39.1019 14.5675 38.3326 14.5664 37.4331V16.1998H12.9331V12.9331H21.0998V11.2998H30.8998V12.9331H39.0664V16.1998H37.4331V37.4331C37.4331 38.3315 37.1135 39.1008 36.4743 39.741C35.8352 40.3813 35.0659 40.7009 34.1664 40.6998H17.8331ZM34.1664 16.1998H17.8331V37.4331H34.1664V16.1998ZM21.0998 34.1665H24.3664V19.4665H21.0998V34.1665ZM27.6331 34.1665H30.8998V19.4665H27.6331V34.1665Z" fill="#F06070"/>
</svg>
