<svg width="18" height="19" viewBox="0 0 18 19" fill="none" xmlns="http://www.w3.org/2000/svg">
<path fill-rule="evenodd" clip-rule="evenodd" d="M14.1379 5.33806C14.4074 5.0686 14.4074 4.63171 14.1379 4.36225C13.8685 4.09279 13.4316 4.09279 13.1622 4.36225L9.00004 8.52436L4.83795 4.36225C4.56847 4.09279 4.13159 4.09279 3.86213 4.36225C3.59267 4.63171 3.59267 5.0686 3.86213 5.33806L8.02423 9.50016L3.86213 13.6623C3.59267 13.9318 3.59267 14.3686 3.86213 14.6381C4.13159 14.9075 4.56847 14.9075 4.83795 14.6381L9.00004 10.476L13.1622 14.6381C13.4316 14.9075 13.8685 14.9075 14.1379 14.6381C14.4074 14.3686 14.4074 13.9318 14.1379 13.6623L9.97584 9.50016L14.1379 5.33806Z" fill="#E6594F" stroke="#E6594F"/>
</svg>
