<svg width="24" height="24" viewBox="0 0 24 24" fill="none" xmlns="http://www.w3.org/2000/svg">
<path d="M13.0559 20.4468L14.5929 19.3719C16.5581 17.9966 18.0792 16.0776 18.9697 13.8504C19.8601 11.6231 20.0813 9.18443 19.6059 6.83334C19.5822 6.71756 19.5324 6.60875 19.4601 6.51525C19.3878 6.42176 19.2951 6.34608 19.189 6.29403L12.0003 2.7793L4.81253 6.29403C4.70627 6.34597 4.61334 6.4216 4.54091 6.5151C4.46847 6.6086 4.41845 6.71748 4.3947 6.83334C3.91943 9.18452 4.14069 11.6233 5.03133 13.8505C5.92197 16.0778 7.44327 17.9967 9.40865 19.3719L10.9456 20.4468C11.2549 20.6632 11.6233 20.7793 12.0008 20.7793C12.3782 20.7793 12.7466 20.6632 13.0559 20.4468Z" stroke="#44475B" stroke-width="1.5" stroke-linecap="round" stroke-linejoin="round"/>
</svg>
