<svg width="22" height="21" viewBox="0 0 22 21" fill="none" xmlns="http://www.w3.org/2000/svg">
<path d="M18.7064 16.1965C20.0206 14.3197 20.6048 12.0278 20.3494 9.75089C20.094 7.47397 19.0165 5.36847 17.3192 3.82942C15.6219 2.29037 13.4213 1.42353 11.1303 1.39154C8.83932 1.35955 6.61539 2.1646 4.87574 3.65566C3.13609 5.14672 2.00029 7.22131 1.68141 9.49022C1.36254 11.7591 1.88251 14.0664 3.14378 15.9792C4.40504 17.892 6.32092 19.2789 8.53197 19.8796C10.743 20.4804 13.0973 20.2537 15.1531 19.2421" stroke="#44475B" stroke-width="1.5" stroke-linecap="round"/>
<path d="M10.2476 15.9316C10.2476 16.3458 10.5833 16.6816 10.9976 16.6816C11.4118 16.6816 11.7476 16.3458 11.7476 15.9316H10.2476ZM14.7441 11.3297C15.037 11.6225 15.5119 11.6225 15.8048 11.3296C16.0976 11.0368 16.0976 10.5619 15.8048 10.269L14.7441 11.3297ZM6.19037 10.269C5.89748 10.5619 5.89748 11.0368 6.19037 11.3296C6.48327 11.6225 6.95814 11.6225 7.25103 11.3297L6.19037 10.269ZM11.382 6.90685L11.9123 6.37652L11.382 6.90685ZM10.6119 6.90816L10.0815 6.37783L10.6119 6.90816ZM11.7476 15.9316C11.7476 15.925 11.7476 15.9185 11.7476 15.912C11.7476 15.9054 11.7476 15.8989 11.7476 15.8923C11.7476 15.8858 11.7476 15.8792 11.7476 15.8726C11.7476 15.866 11.7476 15.8595 11.7476 15.8529C11.7476 15.8463 11.7476 15.8397 11.7476 15.8331C11.7476 15.8265 11.7476 15.8199 11.7476 15.8132C11.7476 15.8066 11.7476 15.8 11.7476 15.7934C11.7476 15.7867 11.7476 15.7801 11.7476 15.7734C11.7476 15.7668 11.7476 15.7601 11.7476 15.7535C11.7476 15.7468 11.7476 15.7401 11.7476 15.7334C11.7476 15.7268 11.7476 15.7201 11.7476 15.7134C11.7476 15.7067 11.7476 15.7 11.7476 15.6933C11.7476 15.6865 11.7476 15.6798 11.7476 15.6731C11.7476 15.6664 11.7476 15.6596 11.7476 15.6529C11.7476 15.6462 11.7476 15.6394 11.7476 15.6327C11.7476 15.6259 11.7476 15.6191 11.7476 15.6124C11.7476 15.6056 11.7476 15.5988 11.7476 15.592C11.7476 15.5853 11.7476 15.5785 11.7476 15.5717C11.7476 15.5649 11.7476 15.5581 11.7476 15.5512C11.7476 15.5444 11.7476 15.5376 11.7476 15.5308C11.7476 15.524 11.7476 15.5171 11.7476 15.5103C11.7476 15.5034 11.7476 15.4966 11.7476 15.4897C11.7476 15.4829 11.7476 15.476 11.7476 15.4692C11.7476 15.4623 11.7476 15.4554 11.7476 15.4485C11.7476 15.4416 11.7476 15.4348 11.7476 15.4279C11.7476 15.421 11.7476 15.4141 11.7476 15.4072C11.7476 15.4002 11.7476 15.3933 11.7476 15.3864C11.7476 15.3795 11.7476 15.3726 11.7476 15.3656C11.7476 15.3587 11.7476 15.3517 11.7476 15.3448C11.7476 15.3378 11.7476 15.3309 11.7476 15.3239C11.7476 15.317 11.7476 15.31 11.7476 15.303C11.7476 15.296 11.7476 15.2891 11.7476 15.2821C11.7476 15.2751 11.7476 15.2681 11.7476 15.2611C11.7476 15.2541 11.7476 15.2471 11.7476 15.2401C11.7476 15.2331 11.7476 15.2261 11.7476 15.219C11.7476 15.212 11.7476 15.205 11.7476 15.1979C11.7476 15.1909 11.7476 15.1839 11.7476 15.1768C11.7476 15.1698 11.7476 15.1627 11.7476 15.1556C11.7476 15.1486 11.7476 15.1415 11.7476 15.1344C11.7476 15.1274 11.7476 15.1203 11.7476 15.1132C11.7476 15.1061 11.7476 15.099 11.7476 15.0919C11.7476 15.0848 11.7476 15.0777 11.7476 15.0706C11.7476 15.0635 11.7476 15.0564 11.7476 15.0493C11.7476 15.0422 11.7476 15.035 11.7476 15.0279C11.7476 15.0208 11.7476 15.0136 11.7476 15.0065C11.7476 14.9994 11.7476 14.9922 11.7476 14.9851C11.7476 14.9779 11.7476 14.9707 11.7476 14.9636C11.7476 14.9564 11.7476 14.9493 11.7476 14.9421C11.7476 14.9349 11.7476 14.9277 11.7476 14.9205C11.7476 14.9133 11.7476 14.9062 11.7476 14.899C11.7476 14.8918 11.7476 14.8846 11.7476 14.8774C11.7476 14.8701 11.7476 14.8629 11.7476 14.8557C11.7476 14.8485 11.7476 14.8413 11.7476 14.8341C11.7476 14.8268 11.7476 14.8196 11.7476 14.8124C11.7476 14.8051 11.7476 14.7979 11.7476 14.7906C11.7476 14.7834 11.7476 14.7761 11.7476 14.7689C11.7476 14.7616 11.7476 14.7543 11.7476 14.7471C11.7476 14.7398 11.7476 14.7325 11.7476 14.7253C11.7476 14.718 11.7476 14.7107 11.7476 14.7034C11.7476 14.6961 11.7476 14.6888 11.7476 14.6815C11.7476 14.6742 11.7476 14.6669 11.7476 14.6596C11.7476 14.6523 11.7476 14.645 11.7476 14.6377C11.7476 14.6304 11.7476 14.6231 11.7476 14.6157C11.7476 14.6084 11.7476 14.6011 11.7476 14.5938C11.7476 14.5864 11.7476 14.5791 11.7476 14.5717C11.7476 14.5644 11.7476 14.557 11.7476 14.5497C11.7476 14.5423 11.7476 14.535 11.7476 14.5276C11.7476 14.5203 11.7476 14.5129 11.7476 14.5055C11.7476 14.4982 11.7476 14.4908 11.7476 14.4834C11.7476 14.476 11.7476 14.4687 11.7476 14.4613C11.7476 14.4539 11.7476 14.4465 11.7476 14.4391C11.7476 14.4317 11.7476 14.4243 11.7476 14.4169C11.7476 14.4095 11.7476 14.4021 11.7476 14.3947C11.7476 14.3873 11.7476 14.3799 11.7476 14.3724C11.7476 14.365 11.7476 14.3576 11.7476 14.3502C11.7476 14.3428 11.7476 14.3353 11.7476 14.3279C11.7476 14.3205 11.7476 14.313 11.7476 14.3056C11.7476 14.2981 11.7476 14.2907 11.7476 14.2832C11.7476 14.2758 11.7476 14.2683 11.7476 14.2609C11.7476 14.2534 11.7476 14.246 11.7476 14.2385C11.7476 14.231 11.7476 14.2236 11.7476 14.2161C11.7476 14.2086 11.7476 14.2012 11.7476 14.1937C11.7476 14.1862 11.7476 14.1787 11.7476 14.1712C11.7476 14.1637 11.7476 14.1563 11.7476 14.1488C11.7476 14.1413 11.7476 14.1338 11.7476 14.1263C11.7476 14.1188 11.7476 14.1113 11.7476 14.1038C11.7476 14.0963 11.7476 14.0888 11.7476 14.0813C11.7476 14.0737 11.7476 14.0662 11.7476 14.0587C11.7476 14.0512 11.7476 14.0437 11.7476 14.0362C11.7476 14.0286 11.7476 14.0211 11.7476 14.0136C11.7476 14.006 11.7476 13.9985 11.7476 13.991C11.7476 13.9834 11.7476 13.9759 11.7476 13.9684C11.7476 13.9608 11.7476 13.9533 11.7476 13.9457C11.7476 13.9382 11.7476 13.9306 11.7476 13.9231C11.7476 13.9155 11.7476 13.908 11.7476 13.9004C11.7476 13.8928 11.7476 13.8853 11.7476 13.8777C11.7476 13.8702 11.7476 13.8626 11.7476 13.855C11.7476 13.8474 11.7476 13.8399 11.7476 13.8323C11.7476 13.8247 11.7476 13.8171 11.7476 13.8096C11.7476 13.802 11.7476 13.7944 11.7476 13.7868C11.7476 13.7792 11.7476 13.7716 11.7476 13.7641C11.7476 13.7565 11.7476 13.7489 11.7476 13.7413C11.7476 13.7337 11.7476 13.7261 11.7476 13.7185C11.7476 13.7109 11.7476 13.7033 11.7476 13.6957C11.7476 13.6881 11.7476 13.6805 11.7476 13.6729C11.7476 13.6653 11.7476 13.6576 11.7476 13.65C11.7476 13.6424 11.7476 13.6348 11.7476 13.6272C11.7476 13.6196 11.7476 13.612 11.7476 13.6043C11.7476 13.5967 11.7476 13.5891 11.7476 13.5815C11.7476 13.5738 11.7476 13.5662 11.7476 13.5586C11.7476 13.551 11.7476 13.5433 11.7476 13.5357C11.7476 13.5281 11.7476 13.5204 11.7476 13.5128C11.7476 13.5052 11.7476 13.4975 11.7476 13.4899C11.7476 13.4822 11.7476 13.4746 11.7476 13.4669C11.7476 13.4593 11.7476 13.4517 11.7476 13.444C11.7476 13.4364 11.7476 13.4287 11.7476 13.4211C11.7476 13.4134 11.7476 13.4058 11.7476 13.3981C11.7476 13.3905 11.7476 13.3828 11.7476 13.3752C11.7476 13.3675 11.7476 13.3598 11.7476 13.3522C11.7476 13.3445 11.7476 13.3369 11.7476 13.3292C11.7476 13.3215 11.7476 13.3139 11.7476 13.3062C11.7476 13.2986 11.7476 13.2909 11.7476 13.2832C11.7476 13.2756 11.7476 13.2679 11.7476 13.2602C11.7476 13.2526 11.7476 13.2449 11.7476 13.2372C11.7476 13.2295 11.7476 13.2219 11.7476 13.2142C11.7476 13.2065 11.7476 13.1988 11.7476 13.1912C11.7476 13.1835 11.7476 13.1758 11.7476 13.1681C11.7476 13.1605 11.7476 13.1528 11.7476 13.1451C11.7476 13.1374 11.7476 13.1298 11.7476 13.1221C11.7476 13.1144 11.7476 13.1067 11.7476 13.099C11.7476 13.0913 11.7476 13.0837 11.7476 13.076C11.7476 13.0683 11.7476 13.0606 11.7476 13.0529C11.7476 13.0452 11.7476 13.0376 11.7476 13.0299C11.7476 13.0222 11.7476 13.0145 11.7476 13.0068C11.7476 12.9991 11.7476 12.9914 11.7476 12.9837C11.7476 12.9761 11.7476 12.9684 11.7476 12.9607C11.7476 12.953 11.7476 12.9453 11.7476 12.9376C11.7476 12.9299 11.7476 12.9222 11.7476 12.9145C11.7476 12.9068 11.7476 12.8992 11.7476 12.8915C11.7476 12.8838 11.7476 12.8761 11.7476 12.8684C11.7476 12.8607 11.7476 12.853 11.7476 12.8453C11.7476 12.8376 11.7476 12.8299 11.7476 12.8222C11.7476 12.8145 11.7476 12.8068 11.7476 12.7992C11.7476 12.7915 11.7476 12.7838 11.7476 12.7761C11.7476 12.7684 11.7476 12.7607 11.7476 12.753C11.7476 12.7453 11.7476 12.7376 11.7476 12.7299C11.7476 12.7222 11.7476 12.7145 11.7476 12.7068C11.7476 12.6992 11.7476 12.6915 11.7476 12.6838C11.7476 12.6761 11.7476 12.6684 11.7476 12.6607C11.7476 12.653 11.7476 12.6453 11.7476 12.6376C11.7476 12.6299 11.7476 12.6222 11.7476 12.6146C11.7476 12.6069 11.7476 12.5992 11.7476 12.5915C11.7476 12.5838 11.7476 12.5761 11.7476 12.5684C11.7476 12.5607 11.7476 12.553 11.7476 12.5454C11.7476 12.5377 11.7476 12.53 11.7476 12.5223C11.7476 12.5146 11.7476 12.5069 11.7476 12.4992C11.7476 12.4916 11.7476 12.4839 11.7476 12.4762C11.7476 12.4685 11.7476 12.4608 11.7476 12.4532C11.7476 12.4455 11.7476 12.4378 11.7476 12.4301C11.7476 12.4224 11.7476 12.4148 11.7476 12.4071C11.7476 12.3994 11.7476 12.3917 11.7476 12.3841C11.7476 12.3764 11.7476 12.3687 11.7476 12.361C11.7476 12.3534 11.7476 12.3457 11.7476 12.338C11.7476 12.3303 11.7476 12.3227 11.7476 12.315C11.7476 12.3073 11.7476 12.2997 11.7476 12.292C11.7476 12.2843 11.7476 12.2767 11.7476 12.269C11.7476 12.2613 11.7476 12.2537 11.7476 12.246C11.7476 12.2383 11.7476 12.2307 11.7476 12.223C11.7476 12.2154 11.7476 12.2077 11.7476 12.2001C11.7476 12.1924 11.7476 12.1847 11.7476 12.1771C11.7476 12.1694 11.7476 12.1618 11.7476 12.1541C11.7476 12.1465 11.7476 12.1388 11.7476 12.1312C11.7476 12.1235 11.7476 12.1159 11.7476 12.1083C11.7476 12.1006 11.7476 12.093 11.7476 12.0853C11.7476 12.0777 11.7476 12.0701 11.7476 12.0624C11.7476 12.0548 11.7476 12.0471 11.7476 12.0395C11.7476 12.0319 11.7476 12.0242 11.7476 12.0166C11.7476 12.009 11.7476 12.0014 11.7476 11.9937C11.7476 11.9861 11.7476 11.9785 11.7476 11.9709C11.7476 11.9632 11.7476 11.9556 11.7476 11.948C11.7476 11.9404 11.7476 11.9328 11.7476 11.9252C11.7476 11.9175 11.7476 11.9099 11.7476 11.9023C11.7476 11.8947 11.7476 11.8871 11.7476 11.8795C11.7476 11.8719 11.7476 11.8643 11.7476 11.8567C11.7476 11.8491 11.7476 11.8415 11.7476 11.8339C11.7476 11.8263 11.7476 11.8187 11.7476 11.8111C11.7476 11.8035 11.7476 11.7959 11.7476 11.7884C11.7476 11.7808 11.7476 11.7732 11.7476 11.7656C11.7476 11.758 11.7476 11.7505 11.7476 11.7429C11.7476 11.7353 11.7476 11.7277 11.7476 11.7202C11.7476 11.7126 11.7476 11.705 11.7476 11.6975C11.7476 11.6899 11.7476 11.6823 11.7476 11.6748C11.7476 11.6672 11.7476 11.6596 11.7476 11.6521C11.7476 11.6445 11.7476 11.637 11.7476 11.6294C11.7476 11.6219 11.7476 11.6143 11.7476 11.6068C11.7476 11.5993 11.7476 11.5917 11.7476 11.5842C11.7476 11.5766 11.7476 11.5691 11.7476 11.5616C11.7476 11.5541 11.7476 11.5465 11.7476 11.539C11.7476 11.5315 11.7476 11.524 11.7476 11.5164C11.7476 11.5089 11.7476 11.5014 11.7476 11.4939C11.7476 11.4864 11.7476 11.4789 11.7476 11.4714C11.7476 11.4639 11.7476 11.4564 11.7476 11.4489C11.7476 11.4414 11.7476 11.4339 11.7476 11.4264C11.7476 11.4189 11.7476 11.4114 11.7476 11.4039C11.7476 11.3964 11.7476 11.3889 11.7476 11.3815C11.7476 11.374 11.7476 11.3665 11.7476 11.359C11.7476 11.3516 11.7476 11.3441 11.7476 11.3366C11.7476 11.3292 11.7476 11.3217 11.7476 11.3142C11.7476 11.3068 11.7476 11.2993 11.7476 11.2919C11.7476 11.2844 11.7476 11.277 11.7476 11.2695C11.7476 11.2621 11.7476 11.2547 11.7476 11.2472C11.7476 11.2398 11.7476 11.2324 11.7476 11.2249C11.7476 11.2175 11.7476 11.2101 11.7476 11.2027C11.7476 11.1952 11.7476 11.1878 11.7476 11.1804C11.7476 11.173 11.7476 11.1656 11.7476 11.1582C11.7476 11.1508 11.7476 11.1434 11.7476 11.136C11.7476 11.1286 11.7476 11.1212 11.7476 11.1138C11.7476 11.1064 11.7476 11.099 11.7476 11.0917C11.7476 11.0843 11.7476 11.0769 11.7476 11.0695C11.7476 11.0622 11.7476 11.0548 11.7476 11.0474C11.7476 11.0401 11.7476 11.0327 11.7476 11.0254C11.7476 11.018 11.7476 11.0107 11.7476 11.0033C11.7476 10.996 11.7476 10.9886 11.7476 10.9813C11.7476 10.974 11.7476 10.9666 11.7476 10.9593C11.7476 10.952 11.7476 10.9447 11.7476 10.9373C11.7476 10.93 11.7476 10.9227 11.7476 10.9154C11.7476 10.9081 11.7476 10.9008 11.7476 10.8935C11.7476 10.8862 11.7476 10.8789 11.7476 10.8716C11.7476 10.8643 11.7476 10.857 11.7476 10.8498C11.7476 10.8425 11.7476 10.8352 11.7476 10.8279C11.7476 10.8207 11.7476 10.8134 11.7476 10.8062C11.7476 10.7989 11.7476 10.7916 11.7476 10.7844C11.7476 10.7771 11.7476 10.7699 11.7476 10.7627C11.7476 10.7554 11.7476 10.7482 11.7476 10.741C11.7476 10.7337 11.7476 10.7265 11.7476 10.7193C11.7476 10.7121 11.7476 10.7048 11.7476 10.6976C11.7476 10.6904 11.7476 10.6832 11.7476 10.676C11.7476 10.6688 11.7476 10.6616 11.7476 10.6545C11.7476 10.6473 11.7476 10.6401 11.7476 10.6329C11.7476 10.6257 11.7476 10.6186 11.7476 10.6114C11.7476 10.6042 11.7476 10.5971 11.7476 10.5899C11.7476 10.5828 11.7476 10.5756 11.7476 10.5685C11.7476 10.5613 11.7476 10.5542 11.7476 10.547C11.7476 10.5399 11.7476 10.5328 11.7476 10.5257C11.7476 10.5185 11.7476 10.5114 11.7476 10.5043C11.7476 10.4972 11.7476 10.4901 11.7476 10.483C11.7476 10.4759 11.7476 10.4688 11.7476 10.4617C11.7476 10.4546 11.7476 10.4476 11.7476 10.4405C11.7476 10.4334 11.7476 10.4263 11.7476 10.4193C11.7476 10.4122 11.7476 10.4052 11.7476 10.3981C11.7476 10.3911 11.7476 10.384 11.7476 10.377C11.7476 10.3699 11.7476 10.3629 11.7476 10.3559C11.7476 10.3489 11.7476 10.3418 11.7476 10.3348C11.7476 10.3278 11.7476 10.3208 11.7476 10.3138C11.7476 10.3068 11.7476 10.2998 11.7476 10.2928C11.7476 10.2858 11.7476 10.2788 11.7476 10.2719C11.7476 10.2649 11.7476 10.2579 11.7476 10.251C11.7476 10.244 11.7476 10.237 11.7476 10.2301C11.7476 10.2231 11.7476 10.2162 11.7476 10.2092C11.7476 10.2023 11.7476 10.1954 11.7476 10.1885C11.7476 10.1815 11.7476 10.1746 11.7476 10.1677C11.7476 10.1608 11.7476 10.1539 11.7476 10.147C11.7476 10.1401 11.7476 10.1332 11.7476 10.1263C11.7476 10.1194 11.7476 10.1126 11.7476 10.1057C11.7476 10.0988 11.7476 10.0919 11.7476 10.0851C11.7476 10.0782 11.7476 10.0714 11.7476 10.0645C11.7476 10.0577 11.7476 10.0509 11.7476 10.044C11.7476 10.0372 11.7476 10.0304 11.7476 10.0236C11.7476 10.0167 11.7476 10.0099 11.7476 10.0031C11.7476 9.99634 11.7476 9.98954 11.7476 9.98276C11.7476 9.97597 11.7476 9.96919 11.7476 9.96242C11.7476 9.95565 11.7476 9.94888 11.7476 9.94212C11.7476 9.93536 11.7476 9.92861 11.7476 9.92187C11.7476 9.91513 11.7476 9.90839 11.7476 9.90166C11.7476 9.89493 11.7476 9.88821 11.7476 9.8815C11.7476 9.87478 11.7476 9.86808 11.7476 9.86138C11.7476 9.85468 11.7476 9.84799 11.7476 9.8413C11.7476 9.83462 11.7476 9.82794 11.7476 9.82128C11.7476 9.81461 11.7476 9.80795 11.7476 9.80129C11.7476 9.79464 11.7476 9.78799 11.7476 9.78136C11.7476 9.77472 11.7476 9.76809 11.7476 9.76147C11.7476 9.75484 11.7476 9.74823 11.7476 9.74162C11.7476 9.73501 11.7476 9.72842 11.7476 9.72183C11.7476 9.71523 11.7476 9.70865 11.7476 9.70208C11.7476 9.6955 11.7476 9.68893 11.7476 9.68237C11.7476 9.67581 11.7476 9.66926 11.7476 9.66272C11.7476 9.65618 11.7476 9.64964 11.7476 9.64312C11.7476 9.63659 11.7476 9.63007 11.7476 9.62356C11.7476 9.61705 11.7476 9.61055 11.7476 9.60405C11.7476 9.59756 11.7476 9.59107 11.7476 9.58459C11.7476 9.57812 11.7476 9.57165 11.7476 9.56519C11.7476 9.55873 11.7476 9.55227 11.7476 9.54583C11.7476 9.53938 11.7476 9.53295 11.7476 9.52652C11.7476 9.52009 11.7476 9.51368 11.7476 9.50726C11.7476 9.50085 11.7476 9.49445 11.7476 9.48806C11.7476 9.48167 11.7476 9.47528 11.7476 9.46891C11.7476 9.46253 11.7476 9.45616 11.7476 9.4498C11.7476 9.44344 11.7476 9.43709 11.7476 9.43075C11.7476 9.42441 11.7476 9.41808 11.7476 9.41176C11.7476 9.40543 11.7476 9.39912 11.7476 9.39281C11.7476 9.38651 11.7476 9.38021 11.7476 9.37392C11.7476 9.36763 11.7476 9.36135 11.7476 9.35508C11.7476 9.34881 11.7476 9.34255 11.7476 9.3363C11.7476 9.33005 11.7476 9.3238 11.7476 9.31757C11.7476 9.31133 11.7476 9.30511 11.7476 9.29889C11.7476 9.29268 11.7476 9.28647 11.7476 9.28027C11.7476 9.27408 11.7476 9.26789 11.7476 9.26171C11.7476 9.25553 11.7476 9.24936 11.7476 9.2432C11.7476 9.23704 11.7476 9.23089 11.7476 9.22475C11.7476 9.2186 11.7476 9.21247 11.7476 9.20635C11.7476 9.20023 11.7476 9.19411 11.7476 9.18801C11.7476 9.1819 11.7476 9.17581 11.7476 9.16972C11.7476 9.16364 11.7476 9.15756 11.7476 9.1515C11.7476 9.14543 11.7476 9.13937 11.7476 9.13333C11.7476 9.12728 11.7476 9.12124 11.7476 9.11522C11.7476 9.10919 11.7476 9.10317 11.7476 9.09716C11.7476 9.09116 11.7476 9.08516 11.7476 9.07917C11.7476 9.07318 11.7476 9.0672 11.7476 9.06124C11.7476 9.05527 11.7476 9.04931 11.7476 9.04336C11.7476 9.03741 11.7476 9.03147 11.7476 9.02554C11.7476 9.01961 11.7476 9.0137 11.7476 9.00779C11.7476 9.00188 11.7476 8.99598 11.7476 8.99009C11.7476 8.9842 11.7476 8.97832 11.7476 8.97246C11.7476 8.96659 11.7476 8.96073 11.7476 8.95488C11.7476 8.94903 11.7476 8.9432 11.7476 8.93737C11.7476 8.93154 11.7476 8.92573 11.7476 8.91992C11.7476 8.91411 11.7476 8.90832 11.7476 8.90253C11.7476 8.89674 11.7476 8.89097 11.7476 8.8852C11.7476 8.87944 11.7476 8.87368 11.7476 8.86794C11.7476 8.8622 11.7476 8.85646 11.7476 8.85074C11.7476 8.84502 11.7476 8.8393 11.7476 8.8336C11.7476 8.8279 11.7476 8.82221 11.7476 8.81653C11.7476 8.81085 11.7476 8.80518 11.7476 8.79952C11.7476 8.79386 11.7476 8.78821 11.7476 8.78257C11.7476 8.77693 11.7476 8.77131 11.7476 8.76569C11.7476 8.76008 11.7476 8.75447 11.7476 8.74888C11.7476 8.74328 11.7476 8.7377 11.7476 8.73213C11.7476 8.72655 11.7476 8.72099 11.7476 8.71544C11.7476 8.70989 11.7476 8.70435 11.7476 8.69882C11.7476 8.6933 11.7476 8.68778 11.7476 8.68227C11.7476 8.67677 11.7476 8.67127 11.7476 8.66579C11.7476 8.6603 11.7476 8.65483 11.7476 8.64937C11.7476 8.64391 11.7476 8.63846 11.7476 8.63302C11.7476 8.62758 11.7476 8.62215 11.7476 8.61674C11.7476 8.61132 11.7476 8.60592 11.7476 8.60052C11.7476 8.59513 11.7476 8.58975 11.7476 8.58438C11.7476 8.57901 11.7476 8.57365 11.7476 8.5683C11.7476 8.56295 11.7476 8.55762 11.7476 8.55229C11.7476 8.54697 11.7476 8.54165 11.7476 8.53635C11.7476 8.53105 11.7476 8.52576 11.7476 8.52049C11.7476 8.51521 11.7476 8.50994 11.7476 8.50469C11.7476 8.49943 11.7476 8.49419 11.7476 8.48896C11.7476 8.48373 11.7476 8.47851 11.7476 8.4733C11.7476 8.4681 11.7476 8.4629 11.7476 8.45772C11.7476 8.45253 11.7476 8.44736 11.7476 8.4422C11.7476 8.43704 11.7476 8.4319 11.7476 8.42676C11.7476 8.42163 11.7476 8.4165 11.7476 8.41139C11.7476 8.40628 11.7476 8.40118 11.7476 8.39609C11.7476 8.39101 11.7476 8.38593 11.7476 8.38087C11.7476 8.37581 11.7476 8.37076 11.7476 8.36572C11.7476 8.36068 11.7476 8.35565 11.7476 8.35064C11.7476 8.34563 11.7476 8.34063 11.7476 8.33564C11.7476 8.33065 11.7476 8.32567 11.7476 8.32071C11.7476 8.31574 11.7476 8.31079 11.7476 8.30585C11.7476 8.30091 11.7476 8.29599 11.7476 8.29107C11.7476 8.28616 11.7476 8.28126 11.7476 8.27637C11.7476 8.27148 11.7476 8.2666 11.7476 8.26174C11.7476 8.25688 11.7476 8.25202 11.7476 8.24719C11.7476 8.24235 11.7476 8.23752 11.7476 8.23271C11.7476 8.2279 11.7476 8.2231 11.7476 8.21831C11.7476 8.21352 11.7476 8.20875 11.7476 8.20399C11.7476 8.19922 11.7476 8.19448 11.7476 8.18974C11.7476 8.185 11.7476 8.18028 11.7476 8.17557C11.7476 8.17086 11.7476 8.16617 11.7476 8.16148C11.7476 8.1568 11.7476 8.15213 11.7476 8.14747C11.7476 8.14281 11.7476 8.13817 11.7476 8.13354C11.7476 8.12891 11.7476 8.12429 11.7476 8.11968C11.7476 8.11508 11.7476 8.11049 11.7476 8.10591C11.7476 8.10133 11.7476 8.09677 11.7476 8.09221C11.7476 8.08766 11.7476 8.08313 11.7476 8.0786C11.7476 8.07408 11.7476 8.06956 11.7476 8.06507C11.7476 8.06057 11.7476 8.05608 11.7476 8.05161C11.7476 8.04714 11.7476 8.04268 11.7476 8.03824C11.7476 8.0338 11.7476 8.02937 11.7476 8.02495C11.7476 8.02053 11.7476 8.01613 11.7476 8.01174C11.7476 8.00735 11.7476 8.00297 11.7476 7.99861C11.7476 7.99425 11.7476 7.9899 11.7476 7.98557C11.7476 7.98123 11.7476 7.97691 11.7476 7.97261C11.7476 7.9683 11.7476 7.96401 11.7476 7.95973C11.7476 7.95545 11.7476 7.95118 11.7476 7.94693C11.7476 7.94268 11.7476 7.93844 11.7476 7.93422C11.7476 7.93 11.7476 7.92579 11.7476 7.92159C11.7476 7.9174 11.7476 7.91322 11.7476 7.90905C11.7476 7.90488 11.7476 7.90073 11.7476 7.89659C11.7476 7.89245 11.7476 7.88833 11.7476 7.88422C11.7476 7.88011 11.7476 7.87601 11.7476 7.87193C11.7476 7.86785 11.7476 7.86378 11.7476 7.85973C11.7476 7.85567 11.7476 7.85164 11.7476 7.84761C11.7476 7.84359 11.7476 7.83958 11.7476 7.83558C11.7476 7.83159 11.7476 7.82761 11.7476 7.82364C11.7476 7.81967 11.7476 7.81572 11.7476 7.81179C11.7476 7.80785 11.7476 7.80393 11.7476 7.80002C11.7476 7.79611 11.7476 7.79222 11.7476 7.78834C11.7476 7.78446 11.7476 7.7806 11.7476 7.77675C11.7476 7.7729 11.7476 7.76906 11.7476 7.76524C11.7476 7.76142 11.7476 7.75762 11.7476 7.75383C11.7476 7.75004 11.7476 7.74627 11.7476 7.74251C11.7476 7.73875 11.7476 7.735 11.7476 7.73127C11.7476 7.72754 11.7476 7.72383 11.7476 7.72013C11.7476 7.71643 11.7476 7.71274 11.7476 7.70907C11.7476 7.7054 11.7476 7.70175 11.7476 7.69811C11.7476 7.69447 11.7476 7.69084 11.7476 7.68723C11.7476 7.68362 11.7476 7.68003 11.7476 7.67645C11.7476 7.67287 11.7476 7.66931 11.7476 7.66576C11.7476 7.66221 11.7476 7.65868 11.7476 7.65516C11.7476 7.65164 11.7476 7.64814 11.7476 7.64465C11.7476 7.64117 11.7476 7.6377 11.7476 7.63424C11.7476 7.63079 11.7476 7.62735 11.7476 7.62392C11.7476 7.6205 11.7476 7.61709 11.7476 7.61369C11.7476 7.6103 11.7476 7.60692 11.7476 7.60356C11.7476 7.6002 11.7476 7.59685 11.7476 7.59352C11.7476 7.59019 11.7476 7.58687 11.7476 7.58357C11.7476 7.58028 11.7476 7.57699 11.7476 7.57372C11.7476 7.57046 11.7476 7.5672 11.7476 7.56397C11.7476 7.56073 11.7476 7.55751 11.7476 7.55431C11.7476 7.5511 11.7476 7.54792 11.7476 7.54474C11.7476 7.54157 11.7476 7.53841 11.7476 7.53527C11.7476 7.53213 11.7476 7.52901 11.7476 7.5259C11.7476 7.52279 11.7476 7.5197 11.7476 7.51663C11.7476 7.51355 11.7476 7.51049 11.7476 7.50745C11.7476 7.50441 11.7476 7.50138 11.7476 7.49837C11.7476 7.49536 11.7476 7.49236 11.7476 7.48938C11.7476 7.48641 11.7476 7.48344 11.7476 7.4805C11.7476 7.47755 11.7476 7.47462 11.7476 7.47171C11.7476 7.4688 11.7476 7.4659 11.7476 7.46302C11.7476 7.46014 11.7476 7.45728 11.7476 7.45443C11.7476 7.45159 11.7476 7.44876 11.7476 7.44595C11.7476 7.44313 11.7476 7.44034 11.7476 7.43756C11.7476 7.43478 11.7476 7.43201 11.7476 7.42927C11.7476 7.42652 11.7476 7.42379 11.7476 7.42108C11.7476 7.41836 11.7476 7.41567 11.7476 7.41299C11.7476 7.41031 11.7476 7.40765 11.7476 7.405C11.7476 7.40236 11.7476 7.39973 11.7476 7.39712C11.7476 7.3945 11.7476 7.39191 11.7476 7.38933C11.7476 7.38675 11.7476 7.38419 11.7476 7.38165C11.7476 7.37911 11.7476 7.37658 11.7476 7.37407C11.7476 7.37156 11.7476 7.36907 11.7476 7.36659C11.7476 7.36412 11.7476 7.36166 11.7476 7.35922C11.7476 7.35678 11.7476 7.35436 11.7476 7.35195C11.7476 7.34955 11.7476 7.34716 11.7476 7.34479C11.7476 7.34241 11.7476 7.34006 11.7476 7.33772C11.7476 7.33539 11.7476 7.33307 11.7476 7.33077C11.7476 7.32846 11.7476 7.32618 11.7476 7.32391C11.7476 7.32165 11.7476 7.3194 11.7476 7.31717C11.7476 7.31494 11.7476 7.31272 11.7476 7.31053C11.7476 7.30833 11.7476 7.30615 11.7476 7.30399C11.7476 7.30183 11.7476 7.29969 11.7476 7.29756C11.7476 7.29544 11.7476 7.29333 11.7476 7.29124C11.7476 7.28915 11.7476 7.28708 11.7476 7.28502C11.7476 7.28297 11.7476 7.28093 11.7476 7.27891C11.7476 7.27689 11.7476 7.27489 11.7476 7.27291C11.7476 7.27093 11.7476 7.26897 11.7476 7.26702C11.7476 7.26507 11.7476 7.26314 11.7476 7.26123C11.7476 7.25932 11.7476 7.25743 11.7476 7.25556C11.7476 7.25368 11.7476 7.25183 11.7476 7.24999C11.7476 7.24815 11.7476 7.24633 11.7476 7.24453C11.7476 7.24273 11.7476 7.24095 11.7476 7.23918C11.7476 7.23742 11.7476 7.23567 11.7476 7.23395C11.7476 7.23222 11.7476 7.23051 11.7476 7.22882C11.7476 7.22713 11.7476 7.22546 11.7476 7.2238C11.7476 7.22215 11.7476 7.22051 11.7476 7.21889C11.7476 7.21728 11.7476 7.21568 11.7476 7.2141C11.7476 7.21252 11.7476 7.21096 11.7476 7.20942C11.7476 7.20787 11.7476 7.20635 11.7476 7.20485C11.7476 7.20334 11.7476 7.20185 11.7476 7.20039C11.7476 7.19892 11.7476 7.19747 11.7476 7.19604C11.7476 7.19461 11.7476 7.1932 11.7476 7.19181C11.7476 7.19041 11.7476 7.18904 11.7476 7.18769C11.7476 7.18633 11.7476 7.185 11.7476 7.18368C11.7476 7.18236 11.7476 7.18107 11.7476 7.17979C11.7476 7.17851 11.7476 7.17725 11.7476 7.17601C11.7476 7.17477 11.7476 7.17355 11.7476 7.17235C11.7476 7.17115 11.7476 7.16996 11.7476 7.1688C11.7476 7.16764 11.7476 7.16649 11.7476 7.16537C11.7476 7.16424 11.7476 7.16314 11.7476 7.16205C11.7476 7.16097 11.7476 7.1599 11.7476 7.15885C11.7476 7.1578 11.7476 7.15678 11.7476 7.15577C11.7476 7.15476 11.7476 7.15377 11.7476 7.1528C11.7476 7.15183 11.7476 7.15088 11.7476 7.14995C11.7476 7.14902 11.7476 7.14811 11.7476 7.14722C11.7476 7.14633 11.7476 7.14545 11.7476 7.1446C11.7476 7.14375 11.7476 7.14292 11.7476 7.1421C11.7476 7.14129 11.7476 7.1405 11.7476 7.13973C11.7476 7.13895 11.7476 7.1382 11.7476 7.13747C11.7476 7.13673 11.7476 7.13602 11.7476 7.13533C11.7476 7.13463 11.7476 7.13396 11.7476 7.13331C11.7476 7.13265 11.7476 7.13202 11.7476 7.1314C11.7476 7.13079 11.7476 7.1302 11.7476 7.12962C11.7476 7.12905 11.7476 7.1285 11.7476 7.12796C11.7476 7.12743 11.7476 7.12692 11.7476 7.12642C11.7476 7.12593 11.7476 7.12546 11.7476 7.12501C11.7476 7.12455 11.7476 7.12412 11.7476 7.12371C11.7476 7.1233 11.7476 7.12291 11.7476 7.12253C11.7476 7.12216 11.7476 7.12181 11.7476 7.12148C11.7476 7.12115 11.7476 7.12084 11.7476 7.12055C11.7476 7.12026 11.7476 7.11999 11.7476 7.11974C11.7476 7.1195 11.7476 7.11927 11.7476 7.11906C11.7476 7.11885 11.7476 7.11867 11.7476 7.1185C11.7476 7.11833 11.7476 7.11819 11.7476 7.11806C11.7476 7.11794 11.7476 7.11784 11.7476 7.11775C11.7476 7.11767 11.7476 7.11761 11.7476 7.11756C11.7476 7.11752 11.7476 7.1175 10.9976 7.1175C10.2476 7.1175 10.2476 7.11752 10.2476 7.11756C10.2476 7.11761 10.2476 7.11767 10.2476 7.11775C10.2476 7.11784 10.2476 7.11794 10.2476 7.11806C10.2476 7.11819 10.2476 7.11833 10.2476 7.1185C10.2476 7.11867 10.2476 7.11885 10.2476 7.11906C10.2476 7.11927 10.2476 7.1195 10.2476 7.11974C10.2476 7.11999 10.2476 7.12026 10.2476 7.12055C10.2476 7.12084 10.2476 7.12115 10.2476 7.12148C10.2476 7.12181 10.2476 7.12216 10.2476 7.12253C10.2476 7.12291 10.2476 7.1233 10.2476 7.12371C10.2476 7.12412 10.2476 7.12455 10.2476 7.12501C10.2476 7.12546 10.2476 7.12593 10.2476 7.12642C10.2476 7.12692 10.2476 7.12743 10.2476 7.12796C10.2476 7.1285 10.2476 7.12905 10.2476 7.12962C10.2476 7.1302 10.2476 7.13079 10.2476 7.1314C10.2476 7.13202 10.2476 7.13265 10.2476 7.13331C10.2476 7.13396 10.2476 7.13463 10.2476 7.13533C10.2476 7.13602 10.2476 7.13673 10.2476 7.13747C10.2476 7.1382 10.2476 7.13895 10.2476 7.13973C10.2476 7.1405 10.2476 7.14129 10.2476 7.1421C10.2476 7.14292 10.2476 7.14375 10.2476 7.1446C10.2476 7.14545 10.2476 7.14633 10.2476 7.14722C10.2476 7.14811 10.2476 7.14902 10.2476 7.14995C10.2476 7.15088 10.2476 7.15183 10.2476 7.1528C10.2476 7.15377 10.2476 7.15476 10.2476 7.15577C10.2476 7.15678 10.2476 7.1578 10.2476 7.15885C10.2476 7.1599 10.2476 7.16097 10.2476 7.16205C10.2476 7.16314 10.2476 7.16424 10.2476 7.16537C10.2476 7.16649 10.2476 7.16764 10.2476 7.1688C10.2476 7.16996 10.2476 7.17115 10.2476 7.17235C10.2476 7.17355 10.2476 7.17477 10.2476 7.17601C10.2476 7.17725 10.2476 7.17851 10.2476 7.17979C10.2476 7.18107 10.2476 7.18236 10.2476 7.18368C10.2476 7.185 10.2476 7.18633 10.2476 7.18769C10.2476 7.18904 10.2476 7.19041 10.2476 7.19181C10.2476 7.1932 10.2476 7.19461 10.2476 7.19604C10.2476 7.19747 10.2476 7.19892 10.2476 7.20039C10.2476 7.20185 10.2476 7.20334 10.2476 7.20485C10.2476 7.20635 10.2476 7.20787 10.2476 7.20942C10.2476 7.21096 10.2476 7.21252 10.2476 7.2141C10.2476 7.21568 10.2476 7.21728 10.2476 7.21889C10.2476 7.22051 10.2476 7.22215 10.2476 7.2238C10.2476 7.22546 10.2476 7.22713 10.2476 7.22882C10.2476 7.23051 10.2476 7.23222 10.2476 7.23395C10.2476 7.23567 10.2476 7.23742 10.2476 7.23918C10.2476 7.24095 10.2476 7.24273 10.2476 7.24453C10.2476 7.24633 10.2476 7.24815 10.2476 7.24999C10.2476 7.25183 10.2476 7.25368 10.2476 7.25556C10.2476 7.25743 10.2476 7.25932 10.2476 7.26123C10.2476 7.26314 10.2476 7.26507 10.2476 7.26702C10.2476 7.26897 10.2476 7.27093 10.2476 7.27291C10.2476 7.27489 10.2476 7.27689 10.2476 7.27891C10.2476 7.28093 10.2476 7.28297 10.2476 7.28502C10.2476 7.28708 10.2476 7.28915 10.2476 7.29124C10.2476 7.29333 10.2476 7.29544 10.2476 7.29756C10.2476 7.29969 10.2476 7.30183 10.2476 7.30399C10.2476 7.30615 10.2476 7.30833 10.2476 7.31053C10.2476 7.31272 10.2476 7.31494 10.2476 7.31717C10.2476 7.3194 10.2476 7.32165 10.2476 7.32391C10.2476 7.32618 10.2476 7.32846 10.2476 7.33077C10.2476 7.33307 10.2476 7.33539 10.2476 7.33772C10.2476 7.34006 10.2476 7.34241 10.2476 7.34479C10.2476 7.34716 10.2476 7.34955 10.2476 7.35195C10.2476 7.35436 10.2476 7.35678 10.2476 7.35922C10.2476 7.36166 10.2476 7.36412 10.2476 7.36659C10.2476 7.36907 10.2476 7.37156 10.2476 7.37407C10.2476 7.37658 10.2476 7.37911 10.2476 7.38165C10.2476 7.38419 10.2476 7.38675 10.2476 7.38933C10.2476 7.39191 10.2476 7.3945 10.2476 7.39712C10.2476 7.39973 10.2476 7.40236 10.2476 7.405C10.2476 7.40765 10.2476 7.41031 10.2476 7.41299C10.2476 7.41567 10.2476 7.41836 10.2476 7.42108C10.2476 7.42379 10.2476 7.42652 10.2476 7.42927C10.2476 7.43201 10.2476 7.43478 10.2476 7.43756C10.2476 7.44034 10.2476 7.44313 10.2476 7.44595C10.2476 7.44876 10.2476 7.45159 10.2476 7.45443C10.2476 7.45728 10.2476 7.46014 10.2476 7.46302C10.2476 7.4659 10.2476 7.4688 10.2476 7.47171C10.2476 7.47462 10.2476 7.47755 10.2476 7.4805C10.2476 7.48344 10.2476 7.48641 10.2476 7.48938C10.2476 7.49236 10.2476 7.49536 10.2476 7.49837C10.2476 7.50138 10.2476 7.50441 10.2476 7.50745C10.2476 7.51049 10.2476 7.51355 10.2476 7.51663C10.2476 7.5197 10.2476 7.52279 10.2476 7.5259C10.2476 7.52901 10.2476 7.53213 10.2476 7.53527C10.2476 7.53841 10.2476 7.54157 10.2476 7.54474C10.2476 7.54792 10.2476 7.5511 10.2476 7.55431C10.2476 7.55751 10.2476 7.56073 10.2476 7.56397C10.2476 7.5672 10.2476 7.57046 10.2476 7.57372C10.2476 7.57699 10.2476 7.58028 10.2476 7.58357C10.2476 7.58687 10.2476 7.59019 10.2476 7.59352C10.2476 7.59685 10.2476 7.6002 10.2476 7.60356C10.2476 7.60692 10.2476 7.6103 10.2476 7.61369C10.2476 7.61709 10.2476 7.6205 10.2476 7.62392C10.2476 7.62735 10.2476 7.63079 10.2476 7.63424C10.2476 7.6377 10.2476 7.64117 10.2476 7.64465C10.2476 7.64814 10.2476 7.65164 10.2476 7.65516C10.2476 7.65868 10.2476 7.66221 10.2476 7.66576C10.2476 7.66931 10.2476 7.67287 10.2476 7.67645C10.2476 7.68003 10.2476 7.68362 10.2476 7.68723C10.2476 7.69084 10.2476 7.69447 10.2476 7.69811C10.2476 7.70175 10.2476 7.7054 10.2476 7.70907C10.2476 7.71274 10.2476 7.71643 10.2476 7.72013C10.2476 7.72383 10.2476 7.72754 10.2476 7.73127C10.2476 7.735 10.2476 7.73875 10.2476 7.74251C10.2476 7.74627 10.2476 7.75004 10.2476 7.75383C10.2476 7.75762 10.2476 7.76142 10.2476 7.76524C10.2476 7.76906 10.2476 7.7729 10.2476 7.77675C10.2476 7.7806 10.2476 7.78446 10.2476 7.78834C10.2476 7.79222 10.2476 7.79611 10.2476 7.80002C10.2476 7.80393 10.2476 7.80785 10.2476 7.81179C10.2476 7.81572 10.2476 7.81967 10.2476 7.82364C10.2476 7.82761 10.2476 7.83159 10.2476 7.83558C10.2476 7.83958 10.2476 7.84359 10.2476 7.84761C10.2476 7.85164 10.2476 7.85567 10.2476 7.85973C10.2476 7.86378 10.2476 7.86785 10.2476 7.87193C10.2476 7.87601 10.2476 7.88011 10.2476 7.88422C10.2476 7.88833 10.2476 7.89245 10.2476 7.89659C10.2476 7.90073 10.2476 7.90488 10.2476 7.90905C10.2476 7.91322 10.2476 7.9174 10.2476 7.92159C10.2476 7.92579 10.2476 7.93 10.2476 7.93422C10.2476 7.93844 10.2476 7.94268 10.2476 7.94693C10.2476 7.95118 10.2476 7.95545 10.2476 7.95973C10.2476 7.96401 10.2476 7.9683 10.2476 7.97261C10.2476 7.97691 10.2476 7.98123 10.2476 7.98557C10.2476 7.9899 10.2476 7.99425 10.2476 7.99861C10.2476 8.00297 10.2476 8.00735 10.2476 8.01174C10.2476 8.01613 10.2476 8.02053 10.2476 8.02495C10.2476 8.02937 10.2476 8.0338 10.2476 8.03824C10.2476 8.04268 10.2476 8.04714 10.2476 8.05161C10.2476 8.05608 10.2476 8.06057 10.2476 8.06507C10.2476 8.06956 10.2476 8.07408 10.2476 8.0786C10.2476 8.08313 10.2476 8.08766 10.2476 8.09221C10.2476 8.09677 10.2476 8.10133 10.2476 8.10591C10.2476 8.11049 10.2476 8.11508 10.2476 8.11968C10.2476 8.12429 10.2476 8.12891 10.2476 8.13354C10.2476 8.13817 10.2476 8.14281 10.2476 8.14747C10.2476 8.15213 10.2476 8.1568 10.2476 8.16148C10.2476 8.16617 10.2476 8.17086 10.2476 8.17557C10.2476 8.18028 10.2476 8.185 10.2476 8.18974C10.2476 8.19448 10.2476 8.19922 10.2476 8.20399C10.2476 8.20875 10.2476 8.21352 10.2476 8.21831C10.2476 8.2231 10.2476 8.2279 10.2476 8.23271C10.2476 8.23752 10.2476 8.24235 10.2476 8.24719C10.2476 8.25202 10.2476 8.25688 10.2476 8.26174C10.2476 8.2666 10.2476 8.27148 10.2476 8.27637C10.2476 8.28126 10.2476 8.28616 10.2476 8.29107C10.2476 8.29599 10.2476 8.30091 10.2476 8.30585C10.2476 8.31079 10.2476 8.31574 10.2476 8.32071C10.2476 8.32567 10.2476 8.33065 10.2476 8.33564C10.2476 8.34063 10.2476 8.34563 10.2476 8.35064C10.2476 8.35565 10.2476 8.36068 10.2476 8.36572C10.2476 8.37076 10.2476 8.37581 10.2476 8.38087C10.2476 8.38593 10.2476 8.39101 10.2476 8.39609C10.2476 8.40118 10.2476 8.40628 10.2476 8.41139C10.2476 8.4165 10.2476 8.42163 10.2476 8.42676C10.2476 8.4319 10.2476 8.43704 10.2476 8.4422C10.2476 8.44736 10.2476 8.45253 10.2476 8.45772C10.2476 8.4629 10.2476 8.4681 10.2476 8.4733C10.2476 8.47851 10.2476 8.48373 10.2476 8.48896C10.2476 8.49419 10.2476 8.49943 10.2476 8.50469C10.2476 8.50994 10.2476 8.51521 10.2476 8.52049C10.2476 8.52576 10.2476 8.53105 10.2476 8.53635C10.2476 8.54165 10.2476 8.54697 10.2476 8.55229C10.2476 8.55762 10.2476 8.56295 10.2476 8.5683C10.2476 8.57365 10.2476 8.57901 10.2476 8.58438C10.2476 8.58975 10.2476 8.59513 10.2476 8.60052C10.2476 8.60592 10.2476 8.61132 10.2476 8.61674C10.2476 8.62215 10.2476 8.62758 10.2476 8.63302C10.2476 8.63846 10.2476 8.64391 10.2476 8.64937C10.2476 8.65483 10.2476 8.6603 10.2476 8.66579C10.2476 8.67127 10.2476 8.67677 10.2476 8.68227C10.2476 8.68778 10.2476 8.6933 10.2476 8.69882C10.2476 8.70435 10.2476 8.70989 10.2476 8.71544C10.2476 8.72099 10.2476 8.72655 10.2476 8.73213C10.2476 8.7377 10.2476 8.74328 10.2476 8.74888C10.2476 8.75447 10.2476 8.76008 10.2476 8.76569C10.2476 8.77131 10.2476 8.77693 10.2476 8.78257C10.2476 8.78821 10.2476 8.79386 10.2476 8.79952C10.2476 8.80518 10.2476 8.81085 10.2476 8.81653C10.2476 8.82221 10.2476 8.8279 10.2476 8.8336C10.2476 8.8393 10.2476 8.84502 10.2476 8.85074C10.2476 8.85646 10.2476 8.8622 10.2476 8.86794C10.2476 8.87368 10.2476 8.87944 10.2476 8.8852C10.2476 8.89097 10.2476 8.89674 10.2476 8.90253C10.2476 8.90832 10.2476 8.91411 10.2476 8.91992C10.2476 8.92573 10.2476 8.93154 10.2476 8.93737C10.2476 8.9432 10.2476 8.94903 10.2476 8.95488C10.2476 8.96073 10.2476 8.96659 10.2476 8.97246C10.2476 8.97832 10.2476 8.9842 10.2476 8.99009C10.2476 8.99598 10.2476 9.00188 10.2476 9.00779C10.2476 9.0137 10.2476 9.01961 10.2476 9.02554C10.2476 9.03147 10.2476 9.03741 10.2476 9.04336C10.2476 9.04931 10.2476 9.05527 10.2476 9.06124C10.2476 9.0672 10.2476 9.07318 10.2476 9.07917C10.2476 9.08516 10.2476 9.09116 10.2476 9.09716C10.2476 9.10317 10.2476 9.10919 10.2476 9.11522C10.2476 9.12124 10.2476 9.12728 10.2476 9.13333C10.2476 9.13937 10.2476 9.14543 10.2476 9.1515C10.2476 9.15756 10.2476 9.16364 10.2476 9.16972C10.2476 9.17581 10.2476 9.1819 10.2476 9.18801C10.2476 9.19411 10.2476 9.20023 10.2476 9.20635C10.2476 9.21247 10.2476 9.2186 10.2476 9.22475C10.2476 9.23089 10.2476 9.23704 10.2476 9.2432C10.2476 9.24936 10.2476 9.25553 10.2476 9.26171C10.2476 9.26789 10.2476 9.27408 10.2476 9.28027C10.2476 9.28647 10.2476 9.29268 10.2476 9.29889C10.2476 9.30511 10.2476 9.31133 10.2476 9.31757C10.2476 9.3238 10.2476 9.33005 10.2476 9.3363C10.2476 9.34255 10.2476 9.34881 10.2476 9.35508C10.2476 9.36135 10.2476 9.36763 10.2476 9.37392C10.2476 9.38021 10.2476 9.38651 10.2476 9.39281C10.2476 9.39912 10.2476 9.40543 10.2476 9.41176C10.2476 9.41808 10.2476 9.42441 10.2476 9.43075C10.2476 9.43709 10.2476 9.44344 10.2476 9.4498C10.2476 9.45616 10.2476 9.46253 10.2476 9.46891C10.2476 9.47528 10.2476 9.48167 10.2476 9.48806C10.2476 9.49445 10.2476 9.50085 10.2476 9.50726C10.2476 9.51368 10.2476 9.52009 10.2476 9.52652C10.2476 9.53295 10.2476 9.53938 10.2476 9.54583C10.2476 9.55227 10.2476 9.55873 10.2476 9.56519C10.2476 9.57165 10.2476 9.57812 10.2476 9.58459C10.2476 9.59107 10.2476 9.59756 10.2476 9.60405C10.2476 9.61055 10.2476 9.61705 10.2476 9.62356C10.2476 9.63007 10.2476 9.63659 10.2476 9.64312C10.2476 9.64964 10.2476 9.65618 10.2476 9.66272C10.2476 9.66926 10.2476 9.67581 10.2476 9.68237C10.2476 9.68893 10.2476 9.6955 10.2476 9.70208C10.2476 9.70865 10.2476 9.71523 10.2476 9.72183C10.2476 9.72842 10.2476 9.73501 10.2476 9.74162C10.2476 9.74823 10.2476 9.75484 10.2476 9.76147C10.2476 9.76809 10.2476 9.77472 10.2476 9.78136C10.2476 9.78799 10.2476 9.79464 10.2476 9.80129C10.2476 9.80795 10.2476 9.81461 10.2476 9.82128C10.2476 9.82794 10.2476 9.83462 10.2476 9.8413C10.2476 9.84799 10.2476 9.85468 10.2476 9.86138C10.2476 9.86808 10.2476 9.87478 10.2476 9.8815C10.2476 9.88821 10.2476 9.89493 10.2476 9.90166C10.2476 9.90839 10.2476 9.91513 10.2476 9.92187C10.2476 9.92861 10.2476 9.93536 10.2476 9.94212C10.2476 9.94888 10.2476 9.95565 10.2476 9.96242C10.2476 9.96919 10.2476 9.97597 10.2476 9.98276C10.2476 9.98954 10.2476 9.99634 10.2476 10.0031C10.2476 10.0099 10.2476 10.0167 10.2476 10.0236C10.2476 10.0304 10.2476 10.0372 10.2476 10.044C10.2476 10.0509 10.2476 10.0577 10.2476 10.0645C10.2476 10.0714 10.2476 10.0782 10.2476 10.0851C10.2476 10.0919 10.2476 10.0988 10.2476 10.1057C10.2476 10.1126 10.2476 10.1194 10.2476 10.1263C10.2476 10.1332 10.2476 10.1401 10.2476 10.147C10.2476 10.1539 10.2476 10.1608 10.2476 10.1677C10.2476 10.1746 10.2476 10.1815 10.2476 10.1885C10.2476 10.1954 10.2476 10.2023 10.2476 10.2092C10.2476 10.2162 10.2476 10.2231 10.2476 10.2301C10.2476 10.237 10.2476 10.244 10.2476 10.251C10.2476 10.2579 10.2476 10.2649 10.2476 10.2719C10.2476 10.2788 10.2476 10.2858 10.2476 10.2928C10.2476 10.2998 10.2476 10.3068 10.2476 10.3138C10.2476 10.3208 10.2476 10.3278 10.2476 10.3348C10.2476 10.3418 10.2476 10.3489 10.2476 10.3559C10.2476 10.3629 10.2476 10.3699 10.2476 10.377C10.2476 10.384 10.2476 10.3911 10.2476 10.3981C10.2476 10.4052 10.2476 10.4122 10.2476 10.4193C10.2476 10.4263 10.2476 10.4334 10.2476 10.4405C10.2476 10.4476 10.2476 10.4546 10.2476 10.4617C10.2476 10.4688 10.2476 10.4759 10.2476 10.483C10.2476 10.4901 10.2476 10.4972 10.2476 10.5043C10.2476 10.5114 10.2476 10.5185 10.2476 10.5257C10.2476 10.5328 10.2476 10.5399 10.2476 10.547C10.2476 10.5542 10.2476 10.5613 10.2476 10.5685C10.2476 10.5756 10.2476 10.5828 10.2476 10.5899C10.2476 10.5971 10.2476 10.6042 10.2476 10.6114C10.2476 10.6186 10.2476 10.6257 10.2476 10.6329C10.2476 10.6401 10.2476 10.6473 10.2476 10.6545C10.2476 10.6616 10.2476 10.6688 10.2476 10.676C10.2476 10.6832 10.2476 10.6904 10.2476 10.6976C10.2476 10.7048 10.2476 10.7121 10.2476 10.7193C10.2476 10.7265 10.2476 10.7337 10.2476 10.741C10.2476 10.7482 10.2476 10.7554 10.2476 10.7627C10.2476 10.7699 10.2476 10.7771 10.2476 10.7844C10.2476 10.7916 10.2476 10.7989 10.2476 10.8062C10.2476 10.8134 10.2476 10.8207 10.2476 10.8279C10.2476 10.8352 10.2476 10.8425 10.2476 10.8498C10.2476 10.857 10.2476 10.8643 10.2476 10.8716C10.2476 10.8789 10.2476 10.8862 10.2476 10.8935C10.2476 10.9008 10.2476 10.9081 10.2476 10.9154C10.2476 10.9227 10.2476 10.93 10.2476 10.9373C10.2476 10.9447 10.2476 10.952 10.2476 10.9593C10.2476 10.9666 10.2476 10.974 10.2476 10.9813C10.2476 10.9886 10.2476 10.996 10.2476 11.0033C10.2476 11.0107 10.2476 11.018 10.2476 11.0254C10.2476 11.0327 10.2476 11.0401 10.2476 11.0474C10.2476 11.0548 10.2476 11.0622 10.2476 11.0695C10.2476 11.0769 10.2476 11.0843 10.2476 11.0917C10.2476 11.099 10.2476 11.1064 10.2476 11.1138C10.2476 11.1212 10.2476 11.1286 10.2476 11.136C10.2476 11.1434 10.2476 11.1508 10.2476 11.1582C10.2476 11.1656 10.2476 11.173 10.2476 11.1804C10.2476 11.1878 10.2476 11.1952 10.2476 11.2027C10.2476 11.2101 10.2476 11.2175 10.2476 11.2249C10.2476 11.2324 10.2476 11.2398 10.2476 11.2472C10.2476 11.2547 10.2476 11.2621 10.2476 11.2695C10.2476 11.277 10.2476 11.2844 10.2476 11.2919C10.2476 11.2993 10.2476 11.3068 10.2476 11.3142C10.2476 11.3217 10.2476 11.3292 10.2476 11.3366C10.2476 11.3441 10.2476 11.3516 10.2476 11.359C10.2476 11.3665 10.2476 11.374 10.2476 11.3815C10.2476 11.3889 10.2476 11.3964 10.2476 11.4039C10.2476 11.4114 10.2476 11.4189 10.2476 11.4264C10.2476 11.4339 10.2476 11.4414 10.2476 11.4489C10.2476 11.4564 10.2476 11.4639 10.2476 11.4714C10.2476 11.4789 10.2476 11.4864 10.2476 11.4939C10.2476 11.5014 10.2476 11.5089 10.2476 11.5164C10.2476 11.524 10.2476 11.5315 10.2476 11.539C10.2476 11.5465 10.2476 11.5541 10.2476 11.5616C10.2476 11.5691 10.2476 11.5766 10.2476 11.5842C10.2476 11.5917 10.2476 11.5993 10.2476 11.6068C10.2476 11.6143 10.2476 11.6219 10.2476 11.6294C10.2476 11.637 10.2476 11.6445 10.2476 11.6521C10.2476 11.6596 10.2476 11.6672 10.2476 11.6748C10.2476 11.6823 10.2476 11.6899 10.2476 11.6975C10.2476 11.705 10.2476 11.7126 10.2476 11.7202C10.2476 11.7277 10.2476 11.7353 10.2476 11.7429C10.2476 11.7505 10.2476 11.758 10.2476 11.7656C10.2476 11.7732 10.2476 11.7808 10.2476 11.7884C10.2476 11.7959 10.2476 11.8035 10.2476 11.8111C10.2476 11.8187 10.2476 11.8263 10.2476 11.8339C10.2476 11.8415 10.2476 11.8491 10.2476 11.8567C10.2476 11.8643 10.2476 11.8719 10.2476 11.8795C10.2476 11.8871 10.2476 11.8947 10.2476 11.9023C10.2476 11.9099 10.2476 11.9175 10.2476 11.9252C10.2476 11.9328 10.2476 11.9404 10.2476 11.948C10.2476 11.9556 10.2476 11.9632 10.2476 11.9709C10.2476 11.9785 10.2476 11.9861 10.2476 11.9937C10.2476 12.0014 10.2476 12.009 10.2476 12.0166C10.2476 12.0242 10.2476 12.0319 10.2476 12.0395C10.2476 12.0471 10.2476 12.0548 10.2476 12.0624C10.2476 12.0701 10.2476 12.0777 10.2476 12.0853C10.2476 12.093 10.2476 12.1006 10.2476 12.1083C10.2476 12.1159 10.2476 12.1235 10.2476 12.1312C10.2476 12.1388 10.2476 12.1465 10.2476 12.1541C10.2476 12.1618 10.2476 12.1694 10.2476 12.1771C10.2476 12.1847 10.2476 12.1924 10.2476 12.2001C10.2476 12.2077 10.2476 12.2154 10.2476 12.223C10.2476 12.2307 10.2476 12.2383 10.2476 12.246C10.2476 12.2537 10.2476 12.2613 10.2476 12.269C10.2476 12.2767 10.2476 12.2843 10.2476 12.292C10.2476 12.2997 10.2476 12.3073 10.2476 12.315C10.2476 12.3227 10.2476 12.3303 10.2476 12.338C10.2476 12.3457 10.2476 12.3534 10.2476 12.361C10.2476 12.3687 10.2476 12.3764 10.2476 12.3841C10.2476 12.3917 10.2476 12.3994 10.2476 12.4071C10.2476 12.4148 10.2476 12.4224 10.2476 12.4301C10.2476 12.4378 10.2476 12.4455 10.2476 12.4532C10.2476 12.4608 10.2476 12.4685 10.2476 12.4762C10.2476 12.4839 10.2476 12.4916 10.2476 12.4992C10.2476 12.5069 10.2476 12.5146 10.2476 12.5223C10.2476 12.53 10.2476 12.5377 10.2476 12.5454C10.2476 12.553 10.2476 12.5607 10.2476 12.5684C10.2476 12.5761 10.2476 12.5838 10.2476 12.5915C10.2476 12.5992 10.2476 12.6069 10.2476 12.6146C10.2476 12.6222 10.2476 12.6299 10.2476 12.6376C10.2476 12.6453 10.2476 12.653 10.2476 12.6607C10.2476 12.6684 10.2476 12.6761 10.2476 12.6838C10.2476 12.6915 10.2476 12.6992 10.2476 12.7068C10.2476 12.7145 10.2476 12.7222 10.2476 12.7299C10.2476 12.7376 10.2476 12.7453 10.2476 12.753C10.2476 12.7607 10.2476 12.7684 10.2476 12.7761C10.2476 12.7838 10.2476 12.7915 10.2476 12.7992C10.2476 12.8068 10.2476 12.8145 10.2476 12.8222C10.2476 12.8299 10.2476 12.8376 10.2476 12.8453C10.2476 12.853 10.2476 12.8607 10.2476 12.8684C10.2476 12.8761 10.2476 12.8838 10.2476 12.8915C10.2476 12.8992 10.2476 12.9068 10.2476 12.9145C10.2476 12.9222 10.2476 12.9299 10.2476 12.9376C10.2476 12.9453 10.2476 12.953 10.2476 12.9607C10.2476 12.9684 10.2476 12.9761 10.2476 12.9837C10.2476 12.9914 10.2476 12.9991 10.2476 13.0068C10.2476 13.0145 10.2476 13.0222 10.2476 13.0299C10.2476 13.0376 10.2476 13.0452 10.2476 13.0529C10.2476 13.0606 10.2476 13.0683 10.2476 13.076C10.2476 13.0837 10.2476 13.0913 10.2476 13.099C10.2476 13.1067 10.2476 13.1144 10.2476 13.1221C10.2476 13.1298 10.2476 13.1374 10.2476 13.1451C10.2476 13.1528 10.2476 13.1605 10.2476 13.1681C10.2476 13.1758 10.2476 13.1835 10.2476 13.1912C10.2476 13.1988 10.2476 13.2065 10.2476 13.2142C10.2476 13.2219 10.2476 13.2295 10.2476 13.2372C10.2476 13.2449 10.2476 13.2526 10.2476 13.2602C10.2476 13.2679 10.2476 13.2756 10.2476 13.2832C10.2476 13.2909 10.2476 13.2986 10.2476 13.3062C10.2476 13.3139 10.2476 13.3215 10.2476 13.3292C10.2476 13.3369 10.2476 13.3445 10.2476 13.3522C10.2476 13.3598 10.2476 13.3675 10.2476 13.3752C10.2476 13.3828 10.2476 13.3905 10.2476 13.3981C10.2476 13.4058 10.2476 13.4134 10.2476 13.4211C10.2476 13.4287 10.2476 13.4364 10.2476 13.444C10.2476 13.4517 10.2476 13.4593 10.2476 13.4669C10.2476 13.4746 10.2476 13.4822 10.2476 13.4899C10.2476 13.4975 10.2476 13.5052 10.2476 13.5128C10.2476 13.5204 10.2476 13.5281 10.2476 13.5357C10.2476 13.5433 10.2476 13.551 10.2476 13.5586C10.2476 13.5662 10.2476 13.5738 10.2476 13.5815C10.2476 13.5891 10.2476 13.5967 10.2476 13.6043C10.2476 13.612 10.2476 13.6196 10.2476 13.6272C10.2476 13.6348 10.2476 13.6424 10.2476 13.65C10.2476 13.6576 10.2476 13.6653 10.2476 13.6729C10.2476 13.6805 10.2476 13.6881 10.2476 13.6957C10.2476 13.7033 10.2476 13.7109 10.2476 13.7185C10.2476 13.7261 10.2476 13.7337 10.2476 13.7413C10.2476 13.7489 10.2476 13.7565 10.2476 13.7641C10.2476 13.7716 10.2476 13.7792 10.2476 13.7868C10.2476 13.7944 10.2476 13.802 10.2476 13.8096C10.2476 13.8171 10.2476 13.8247 10.2476 13.8323C10.2476 13.8399 10.2476 13.8474 10.2476 13.855C10.2476 13.8626 10.2476 13.8702 10.2476 13.8777C10.2476 13.8853 10.2476 13.8928 10.2476 13.9004C10.2476 13.908 10.2476 13.9155 10.2476 13.9231C10.2476 13.9306 10.2476 13.9382 10.2476 13.9457C10.2476 13.9533 10.2476 13.9608 10.2476 13.9684C10.2476 13.9759 10.2476 13.9834 10.2476 13.991C10.2476 13.9985 10.2476 14.006 10.2476 14.0136C10.2476 14.0211 10.2476 14.0286 10.2476 14.0362C10.2476 14.0437 10.2476 14.0512 10.2476 14.0587C10.2476 14.0662 10.2476 14.0737 10.2476 14.0813C10.2476 14.0888 10.2476 14.0963 10.2476 14.1038C10.2476 14.1113 10.2476 14.1188 10.2476 14.1263C10.2476 14.1338 10.2476 14.1413 10.2476 14.1488C10.2476 14.1563 10.2476 14.1637 10.2476 14.1712C10.2476 14.1787 10.2476 14.1862 10.2476 14.1937C10.2476 14.2012 10.2476 14.2086 10.2476 14.2161C10.2476 14.2236 10.2476 14.231 10.2476 14.2385C10.2476 14.246 10.2476 14.2534 10.2476 14.2609C10.2476 14.2683 10.2476 14.2758 10.2476 14.2832C10.2476 14.2907 10.2476 14.2981 10.2476 14.3056C10.2476 14.313 10.2476 14.3205 10.2476 14.3279C10.2476 14.3353 10.2476 14.3428 10.2476 14.3502C10.2476 14.3576 10.2476 14.365 10.2476 14.3724C10.2476 14.3799 10.2476 14.3873 10.2476 14.3947C10.2476 14.4021 10.2476 14.4095 10.2476 14.4169C10.2476 14.4243 10.2476 14.4317 10.2476 14.4391C10.2476 14.4465 10.2476 14.4539 10.2476 14.4613C10.2476 14.4687 10.2476 14.476 10.2476 14.4834C10.2476 14.4908 10.2476 14.4982 10.2476 14.5055C10.2476 14.5129 10.2476 14.5203 10.2476 14.5276C10.2476 14.535 10.2476 14.5423 10.2476 14.5497C10.2476 14.557 10.2476 14.5644 10.2476 14.5717C10.2476 14.5791 10.2476 14.5864 10.2476 14.5938C10.2476 14.6011 10.2476 14.6084 10.2476 14.6157C10.2476 14.6231 10.2476 14.6304 10.2476 14.6377C10.2476 14.645 10.2476 14.6523 10.2476 14.6596C10.2476 14.6669 10.2476 14.6742 10.2476 14.6815C10.2476 14.6888 10.2476 14.6961 10.2476 14.7034C10.2476 14.7107 10.2476 14.718 10.2476 14.7253C10.2476 14.7325 10.2476 14.7398 10.2476 14.7471C10.2476 14.7543 10.2476 14.7616 10.2476 14.7689C10.2476 14.7761 10.2476 14.7834 10.2476 14.7906C10.2476 14.7979 10.2476 14.8051 10.2476 14.8124C10.2476 14.8196 10.2476 14.8268 10.2476 14.8341C10.2476 14.8413 10.2476 14.8485 10.2476 14.8557C10.2476 14.8629 10.2476 14.8701 10.2476 14.8774C10.2476 14.8846 10.2476 14.8918 10.2476 14.899C10.2476 14.9062 10.2476 14.9133 10.2476 14.9205C10.2476 14.9277 10.2476 14.9349 10.2476 14.9421C10.2476 14.9493 10.2476 14.9564 10.2476 14.9636C10.2476 14.9707 10.2476 14.9779 10.2476 14.9851C10.2476 14.9922 10.2476 14.9994 10.2476 15.0065C10.2476 15.0136 10.2476 15.0208 10.2476 15.0279C10.2476 15.035 10.2476 15.0422 10.2476 15.0493C10.2476 15.0564 10.2476 15.0635 10.2476 15.0706C10.2476 15.0777 10.2476 15.0848 10.2476 15.0919C10.2476 15.099 10.2476 15.1061 10.2476 15.1132C10.2476 15.1203 10.2476 15.1274 10.2476 15.1344C10.2476 15.1415 10.2476 15.1486 10.2476 15.1556C10.2476 15.1627 10.2476 15.1698 10.2476 15.1768C10.2476 15.1839 10.2476 15.1909 10.2476 15.1979C10.2476 15.205 10.2476 15.212 10.2476 15.219C10.2476 15.2261 10.2476 15.2331 10.2476 15.2401C10.2476 15.2471 10.2476 15.2541 10.2476 15.2611C10.2476 15.2681 10.2476 15.2751 10.2476 15.2821C10.2476 15.2891 10.2476 15.296 10.2476 15.303C10.2476 15.31 10.2476 15.317 10.2476 15.3239C10.2476 15.3309 10.2476 15.3378 10.2476 15.3448C10.2476 15.3517 10.2476 15.3587 10.2476 15.3656C10.2476 15.3726 10.2476 15.3795 10.2476 15.3864C10.2476 15.3933 10.2476 15.4002 10.2476 15.4072C10.2476 15.4141 10.2476 15.421 10.2476 15.4279C10.2476 15.4348 10.2476 15.4416 10.2476 15.4485C10.2476 15.4554 10.2476 15.4623 10.2476 15.4692C10.2476 15.476 10.2476 15.4829 10.2476 15.4897C10.2476 15.4966 10.2476 15.5034 10.2476 15.5103C10.2476 15.5171 10.2476 15.524 10.2476 15.5308C10.2476 15.5376 10.2476 15.5444 10.2476 15.5512C10.2476 15.5581 10.2476 15.5649 10.2476 15.5717C10.2476 15.5785 10.2476 15.5853 10.2476 15.592C10.2476 15.5988 10.2476 15.6056 10.2476 15.6124C10.2476 15.6191 10.2476 15.6259 10.2476 15.6327C10.2476 15.6394 10.2476 15.6462 10.2476 15.6529C10.2476 15.6596 10.2476 15.6664 10.2476 15.6731C10.2476 15.6798 10.2476 15.6865 10.2476 15.6933C10.2476 15.7 10.2476 15.7067 10.2476 15.7134C10.2476 15.7201 10.2476 15.7268 10.2476 15.7334C10.2476 15.7401 10.2476 15.7468 10.2476 15.7535C10.2476 15.7601 10.2476 15.7668 10.2476 15.7734C10.2476 15.7801 10.2476 15.7867 10.2476 15.7934C10.2476 15.8 10.2476 15.8066 10.2476 15.8132C10.2476 15.8199 10.2476 15.8265 10.2476 15.8331C10.2476 15.8397 10.2476 15.8463 10.2476 15.8529C10.2476 15.8595 10.2476 15.866 10.2476 15.8726C10.2476 15.8792 10.2476 15.8858 10.2476 15.8923C10.2476 15.8989 10.2476 15.9054 10.2476 15.912C10.2476 15.9185 10.2476 15.925 10.2476 15.9316H11.7476ZM15.8048 10.269C14.5262 8.99047 12.699 7.16325 11.9123 6.37652L10.8516 7.43718C11.6384 8.22391 13.4656 10.0511 14.7441 11.3297L15.8048 10.269ZM10.0815 6.37783L6.19037 10.269L7.25103 11.3297L11.1422 7.43849L10.0815 6.37783ZM11.9123 6.37652C11.404 5.86829 10.5851 5.87426 10.0815 6.37783L11.1422 7.43849C11.0647 7.51603 10.9338 7.5194 10.8516 7.43718L11.9123 6.37652Z" fill="#44475B"/>
</svg>
