<svg width="20" height="20" viewBox="0 0 20 20" fill="none" xmlns="http://www.w3.org/2000/svg">
<g clip-path="url(#clip0_38_1884)">
<path d="M14.0008 8.66683H10.6675M16.6675 9.8655C16.6675 8.11083 16.6675 7.23283 16.1542 6.66283C16.1071 6.61023 16.0572 6.56016 16.0048 6.51283C15.4348 6.00016 14.5568 6.00016 12.8022 6.00016H12.5528C11.7842 6.00016 11.3995 6.00016 11.0408 5.89816C10.844 5.8419 10.6543 5.76316 10.4755 5.6635C10.1502 5.48283 9.87817 5.21016 9.33417 4.66683L8.9675 4.30016C8.78483 4.1175 8.69417 4.02683 8.59817 3.94683C8.18528 3.60459 7.67879 3.39479 7.14483 3.34483C7.02083 3.3335 6.8915 3.3335 6.63417 3.3335C6.0455 3.3335 5.7515 3.3335 5.50617 3.38016C4.97939 3.47965 4.49483 3.73559 4.1157 4.1146C3.73658 4.49361 3.48048 4.97809 3.38083 5.50483C3.33417 5.75083 3.33417 6.0455 3.33417 6.6335M10.3342 16.6668H8.6675C6.1535 16.6668 4.89617 16.6668 4.1155 15.8855C3.33483 15.1042 3.33417 13.8475 3.33417 11.3335V9.3335" stroke="#298DFF" stroke-width="1.25" stroke-linecap="round"/>
<path fill-rule="evenodd" clip-rule="evenodd" d="M15 18C14.8011 18 14.6103 17.921 14.4697 17.7803C14.329 17.6397 14.25 17.4489 14.25 17.25V15.75H12.75C12.5511 15.75 12.3603 15.671 12.2197 15.5303C12.079 15.3897 12 15.1989 12 15C12 14.8011 12.079 14.6103 12.2197 14.4697C12.3603 14.329 12.5511 14.25 12.75 14.25H14.25V12.75C14.25 12.5511 14.329 12.3603 14.4697 12.2197C14.6103 12.079 14.8011 12 15 12C15.1989 12 15.3897 12.079 15.5303 12.2197C15.671 12.3603 15.75 12.5511 15.75 12.75V14.25H17.25C17.4489 14.25 17.6397 14.329 17.7803 14.4697C17.921 14.6103 18 14.8011 18 15C18 15.1989 17.921 15.3897 17.7803 15.5303C17.6397 15.671 17.4489 15.75 17.25 15.75H15.75V17.25C15.75 17.4489 15.671 17.6397 15.5303 17.7803C15.3897 17.921 15.1989 18 15 18Z" fill="#298DFF"/>
</g>
<defs>
<clipPath id="clip0_38_1884">
<rect width="16" height="16" fill="white" transform="translate(2 2)"/>
</clipPath>
</defs>
</svg>
