<svg width="24" height="24" viewBox="0 0 24 24" fill="none" xmlns="http://www.w3.org/2000/svg">
<path d="M19.7074 17.3967C21.0215 15.5199 21.6057 13.228 21.3503 10.9511C21.0949 8.67416 20.0175 6.56866 18.3202 5.02961C16.6228 3.49056 14.4222 2.62373 12.1313 2.59174C9.84027 2.55975 7.61633 3.3648 5.87669 4.85586C4.13704 6.34692 3.00123 8.42151 2.68236 10.6904C2.36348 12.9593 2.88346 15.2666 4.14472 17.1794C5.40599 19.0922 7.32187 20.4791 9.53292 21.0798C11.744 21.6806 14.0982 21.4539 16.154 20.4423" stroke="#44475B" stroke-width="1.5" stroke-linecap="round"/>
<path d="M11.2494 17.1322C11.2494 17.5464 11.5852 17.8822 11.9994 17.8822C12.4136 17.8822 12.7494 17.5464 12.7494 17.1322H11.2494ZM15.7459 12.5303C16.0388 12.8232 16.5137 12.8232 16.8066 12.5303C17.0995 12.2374 17.0995 11.7625 16.8066 11.4696L15.7459 12.5303ZM7.1922 11.4696C6.89931 11.7625 6.89931 12.2374 7.1922 12.5303C7.4851 12.8232 7.95997 12.8232 8.25286 12.5303L7.1922 11.4696ZM12.3838 8.10748L12.9141 7.57715L12.3838 8.10748ZM11.6137 8.10878L11.0834 7.57845L11.6137 8.10878ZM12.7494 17.1322C12.7494 17.1256 12.7494 17.1191 12.7494 17.1126C12.7494 17.106 12.7494 17.0995 12.7494 17.0929C12.7494 17.0864 12.7494 17.0798 12.7494 17.0732C12.7494 17.0667 12.7494 17.0601 12.7494 17.0535C12.7494 17.0469 12.7494 17.0403 12.7494 17.0337C12.7494 17.0271 12.7494 17.0205 12.7494 17.0139C12.7494 17.0072 12.7494 17.0006 12.7494 16.994C12.7494 16.9874 12.7494 16.9807 12.7494 16.9741C12.7494 16.9674 12.7494 16.9607 12.7494 16.9541C12.7494 16.9474 12.7494 16.9407 12.7494 16.9341C12.7494 16.9274 12.7494 16.9207 12.7494 16.914C12.7494 16.9073 12.7494 16.9006 12.7494 16.8939C12.7494 16.8872 12.7494 16.8805 12.7494 16.8737C12.7494 16.867 12.7494 16.8603 12.7494 16.8535C12.7494 16.8468 12.7494 16.84 12.7494 16.8333C12.7494 16.8265 12.7494 16.8198 12.7494 16.813C12.7494 16.8062 12.7494 16.7994 12.7494 16.7927C12.7494 16.7859 12.7494 16.7791 12.7494 16.7723C12.7494 16.7655 12.7494 16.7587 12.7494 16.7519C12.7494 16.7451 12.7494 16.7382 12.7494 16.7314C12.7494 16.7246 12.7494 16.7177 12.7494 16.7109C12.7494 16.7041 12.7494 16.6972 12.7494 16.6904C12.7494 16.6835 12.7494 16.6766 12.7494 16.6698C12.7494 16.6629 12.7494 16.656 12.7494 16.6491C12.7494 16.6423 12.7494 16.6354 12.7494 16.6285C12.7494 16.6216 12.7494 16.6147 12.7494 16.6078C12.7494 16.6009 12.7494 16.5939 12.7494 16.587C12.7494 16.5801 12.7494 16.5732 12.7494 16.5662C12.7494 16.5593 12.7494 16.5524 12.7494 16.5454C12.7494 16.5385 12.7494 16.5315 12.7494 16.5245C12.7494 16.5176 12.7494 16.5106 12.7494 16.5036C12.7494 16.4967 12.7494 16.4897 12.7494 16.4827C12.7494 16.4757 12.7494 16.4687 12.7494 16.4617C12.7494 16.4547 12.7494 16.4477 12.7494 16.4407C12.7494 16.4337 12.7494 16.4267 12.7494 16.4196C12.7494 16.4126 12.7494 16.4056 12.7494 16.3986C12.7494 16.3915 12.7494 16.3845 12.7494 16.3774C12.7494 16.3704 12.7494 16.3633 12.7494 16.3563C12.7494 16.3492 12.7494 16.3421 12.7494 16.3351C12.7494 16.328 12.7494 16.3209 12.7494 16.3138C12.7494 16.3067 12.7494 16.2997 12.7494 16.2926C12.7494 16.2855 12.7494 16.2784 12.7494 16.2712C12.7494 16.2641 12.7494 16.257 12.7494 16.2499C12.7494 16.2428 12.7494 16.2357 12.7494 16.2285C12.7494 16.2214 12.7494 16.2143 12.7494 16.2071C12.7494 16.2 12.7494 16.1928 12.7494 16.1857C12.7494 16.1785 12.7494 16.1714 12.7494 16.1642C12.7494 16.157 12.7494 16.1499 12.7494 16.1427C12.7494 16.1355 12.7494 16.1283 12.7494 16.1212C12.7494 16.114 12.7494 16.1068 12.7494 16.0996C12.7494 16.0924 12.7494 16.0852 12.7494 16.078C12.7494 16.0708 12.7494 16.0636 12.7494 16.0563C12.7494 16.0491 12.7494 16.0419 12.7494 16.0347C12.7494 16.0274 12.7494 16.0202 12.7494 16.013C12.7494 16.0057 12.7494 15.9985 12.7494 15.9912C12.7494 15.984 12.7494 15.9767 12.7494 15.9695C12.7494 15.9622 12.7494 15.955 12.7494 15.9477C12.7494 15.9404 12.7494 15.9332 12.7494 15.9259C12.7494 15.9186 12.7494 15.9113 12.7494 15.904C12.7494 15.8967 12.7494 15.8895 12.7494 15.8822C12.7494 15.8749 12.7494 15.8676 12.7494 15.8603C12.7494 15.8529 12.7494 15.8456 12.7494 15.8383C12.7494 15.831 12.7494 15.8237 12.7494 15.8164C12.7494 15.809 12.7494 15.8017 12.7494 15.7944C12.7494 15.787 12.7494 15.7797 12.7494 15.7724C12.7494 15.765 12.7494 15.7577 12.7494 15.7503C12.7494 15.743 12.7494 15.7356 12.7494 15.7283C12.7494 15.7209 12.7494 15.7135 12.7494 15.7062C12.7494 15.6988 12.7494 15.6914 12.7494 15.684C12.7494 15.6767 12.7494 15.6693 12.7494 15.6619C12.7494 15.6545 12.7494 15.6471 12.7494 15.6397C12.7494 15.6323 12.7494 15.6249 12.7494 15.6175C12.7494 15.6101 12.7494 15.6027 12.7494 15.5953C12.7494 15.5879 12.7494 15.5805 12.7494 15.5731C12.7494 15.5656 12.7494 15.5582 12.7494 15.5508C12.7494 15.5434 12.7494 15.5359 12.7494 15.5285C12.7494 15.5211 12.7494 15.5136 12.7494 15.5062C12.7494 15.4988 12.7494 15.4913 12.7494 15.4839C12.7494 15.4764 12.7494 15.469 12.7494 15.4615C12.7494 15.454 12.7494 15.4466 12.7494 15.4391C12.7494 15.4317 12.7494 15.4242 12.7494 15.4167C12.7494 15.4093 12.7494 15.4018 12.7494 15.3943C12.7494 15.3868 12.7494 15.3793 12.7494 15.3719C12.7494 15.3644 12.7494 15.3569 12.7494 15.3494C12.7494 15.3419 12.7494 15.3344 12.7494 15.3269C12.7494 15.3194 12.7494 15.3119 12.7494 15.3044C12.7494 15.2969 12.7494 15.2894 12.7494 15.2819C12.7494 15.2744 12.7494 15.2669 12.7494 15.2593C12.7494 15.2518 12.7494 15.2443 12.7494 15.2368C12.7494 15.2292 12.7494 15.2217 12.7494 15.2142C12.7494 15.2067 12.7494 15.1991 12.7494 15.1916C12.7494 15.1841 12.7494 15.1765 12.7494 15.169C12.7494 15.1614 12.7494 15.1539 12.7494 15.1463C12.7494 15.1388 12.7494 15.1312 12.7494 15.1237C12.7494 15.1161 12.7494 15.1086 12.7494 15.101C12.7494 15.0935 12.7494 15.0859 12.7494 15.0783C12.7494 15.0708 12.7494 15.0632 12.7494 15.0556C12.7494 15.0481 12.7494 15.0405 12.7494 15.0329C12.7494 15.0253 12.7494 15.0178 12.7494 15.0102C12.7494 15.0026 12.7494 14.995 12.7494 14.9874C12.7494 14.9799 12.7494 14.9723 12.7494 14.9647C12.7494 14.9571 12.7494 14.9495 12.7494 14.9419C12.7494 14.9343 12.7494 14.9267 12.7494 14.9191C12.7494 14.9115 12.7494 14.9039 12.7494 14.8963C12.7494 14.8887 12.7494 14.8811 12.7494 14.8735C12.7494 14.8659 12.7494 14.8583 12.7494 14.8507C12.7494 14.843 12.7494 14.8354 12.7494 14.8278C12.7494 14.8202 12.7494 14.8126 12.7494 14.805C12.7494 14.7973 12.7494 14.7897 12.7494 14.7821C12.7494 14.7745 12.7494 14.7668 12.7494 14.7592C12.7494 14.7516 12.7494 14.7439 12.7494 14.7363C12.7494 14.7287 12.7494 14.721 12.7494 14.7134C12.7494 14.7058 12.7494 14.6981 12.7494 14.6905C12.7494 14.6829 12.7494 14.6752 12.7494 14.6676C12.7494 14.6599 12.7494 14.6523 12.7494 14.6446C12.7494 14.637 12.7494 14.6293 12.7494 14.6217C12.7494 14.614 12.7494 14.6064 12.7494 14.5987C12.7494 14.5911 12.7494 14.5834 12.7494 14.5758C12.7494 14.5681 12.7494 14.5605 12.7494 14.5528C12.7494 14.5451 12.7494 14.5375 12.7494 14.5298C12.7494 14.5222 12.7494 14.5145 12.7494 14.5068C12.7494 14.4992 12.7494 14.4915 12.7494 14.4838C12.7494 14.4762 12.7494 14.4685 12.7494 14.4608C12.7494 14.4532 12.7494 14.4455 12.7494 14.4378C12.7494 14.4302 12.7494 14.4225 12.7494 14.4148C12.7494 14.4071 12.7494 14.3995 12.7494 14.3918C12.7494 14.3841 12.7494 14.3764 12.7494 14.3688C12.7494 14.3611 12.7494 14.3534 12.7494 14.3457C12.7494 14.3381 12.7494 14.3304 12.7494 14.3227C12.7494 14.315 12.7494 14.3073 12.7494 14.2996C12.7494 14.292 12.7494 14.2843 12.7494 14.2766C12.7494 14.2689 12.7494 14.2612 12.7494 14.2535C12.7494 14.2459 12.7494 14.2382 12.7494 14.2305C12.7494 14.2228 12.7494 14.2151 12.7494 14.2074C12.7494 14.1997 12.7494 14.1921 12.7494 14.1844C12.7494 14.1767 12.7494 14.169 12.7494 14.1613C12.7494 14.1536 12.7494 14.1459 12.7494 14.1382C12.7494 14.1305 12.7494 14.1228 12.7494 14.1152C12.7494 14.1075 12.7494 14.0998 12.7494 14.0921C12.7494 14.0844 12.7494 14.0767 12.7494 14.069C12.7494 14.0613 12.7494 14.0536 12.7494 14.0459C12.7494 14.0382 12.7494 14.0305 12.7494 14.0229C12.7494 14.0152 12.7494 14.0075 12.7494 13.9998C12.7494 13.9921 12.7494 13.9844 12.7494 13.9767C12.7494 13.969 12.7494 13.9613 12.7494 13.9536C12.7494 13.9459 12.7494 13.9382 12.7494 13.9305C12.7494 13.9229 12.7494 13.9152 12.7494 13.9075C12.7494 13.8998 12.7494 13.8921 12.7494 13.8844C12.7494 13.8767 12.7494 13.869 12.7494 13.8613C12.7494 13.8536 12.7494 13.8459 12.7494 13.8382C12.7494 13.8306 12.7494 13.8229 12.7494 13.8152C12.7494 13.8075 12.7494 13.7998 12.7494 13.7921C12.7494 13.7844 12.7494 13.7767 12.7494 13.769C12.7494 13.7614 12.7494 13.7537 12.7494 13.746C12.7494 13.7383 12.7494 13.7306 12.7494 13.7229C12.7494 13.7152 12.7494 13.7076 12.7494 13.6999C12.7494 13.6922 12.7494 13.6845 12.7494 13.6768C12.7494 13.6691 12.7494 13.6615 12.7494 13.6538C12.7494 13.6461 12.7494 13.6384 12.7494 13.6307C12.7494 13.6231 12.7494 13.6154 12.7494 13.6077C12.7494 13.6 12.7494 13.5923 12.7494 13.5847C12.7494 13.577 12.7494 13.5693 12.7494 13.5616C12.7494 13.554 12.7494 13.5463 12.7494 13.5386C12.7494 13.531 12.7494 13.5233 12.7494 13.5156C12.7494 13.508 12.7494 13.5003 12.7494 13.4926C12.7494 13.485 12.7494 13.4773 12.7494 13.4696C12.7494 13.462 12.7494 13.4543 12.7494 13.4466C12.7494 13.439 12.7494 13.4313 12.7494 13.4237C12.7494 13.416 12.7494 13.4083 12.7494 13.4007C12.7494 13.393 12.7494 13.3854 12.7494 13.3777C12.7494 13.3701 12.7494 13.3624 12.7494 13.3548C12.7494 13.3471 12.7494 13.3395 12.7494 13.3318C12.7494 13.3242 12.7494 13.3165 12.7494 13.3089C12.7494 13.3012 12.7494 13.2936 12.7494 13.286C12.7494 13.2783 12.7494 13.2707 12.7494 13.263C12.7494 13.2554 12.7494 13.2478 12.7494 13.2401C12.7494 13.2325 12.7494 13.2249 12.7494 13.2172C12.7494 13.2096 12.7494 13.202 12.7494 13.1944C12.7494 13.1867 12.7494 13.1791 12.7494 13.1715C12.7494 13.1639 12.7494 13.1562 12.7494 13.1486C12.7494 13.141 12.7494 13.1334 12.7494 13.1258C12.7494 13.1182 12.7494 13.1106 12.7494 13.1029C12.7494 13.0953 12.7494 13.0877 12.7494 13.0801C12.7494 13.0725 12.7494 13.0649 12.7494 13.0573C12.7494 13.0497 12.7494 13.0421 12.7494 13.0345C12.7494 13.0269 12.7494 13.0193 12.7494 13.0117C12.7494 13.0042 12.7494 12.9966 12.7494 12.989C12.7494 12.9814 12.7494 12.9738 12.7494 12.9662C12.7494 12.9587 12.7494 12.9511 12.7494 12.9435C12.7494 12.9359 12.7494 12.9284 12.7494 12.9208C12.7494 12.9132 12.7494 12.9056 12.7494 12.8981C12.7494 12.8905 12.7494 12.8829 12.7494 12.8754C12.7494 12.8678 12.7494 12.8603 12.7494 12.8527C12.7494 12.8452 12.7494 12.8376 12.7494 12.8301C12.7494 12.8225 12.7494 12.815 12.7494 12.8074C12.7494 12.7999 12.7494 12.7923 12.7494 12.7848C12.7494 12.7773 12.7494 12.7697 12.7494 12.7622C12.7494 12.7547 12.7494 12.7471 12.7494 12.7396C12.7494 12.7321 12.7494 12.7246 12.7494 12.7171C12.7494 12.7095 12.7494 12.702 12.7494 12.6945C12.7494 12.687 12.7494 12.6795 12.7494 12.672C12.7494 12.6645 12.7494 12.657 12.7494 12.6495C12.7494 12.642 12.7494 12.6345 12.7494 12.627C12.7494 12.6195 12.7494 12.612 12.7494 12.6045C12.7494 12.597 12.7494 12.5896 12.7494 12.5821C12.7494 12.5746 12.7494 12.5671 12.7494 12.5596C12.7494 12.5522 12.7494 12.5447 12.7494 12.5372C12.7494 12.5298 12.7494 12.5223 12.7494 12.5149C12.7494 12.5074 12.7494 12.4999 12.7494 12.4925C12.7494 12.485 12.7494 12.4776 12.7494 12.4702C12.7494 12.4627 12.7494 12.4553 12.7494 12.4478C12.7494 12.4404 12.7494 12.433 12.7494 12.4255C12.7494 12.4181 12.7494 12.4107 12.7494 12.4033C12.7494 12.3959 12.7494 12.3884 12.7494 12.381C12.7494 12.3736 12.7494 12.3662 12.7494 12.3588C12.7494 12.3514 12.7494 12.344 12.7494 12.3366C12.7494 12.3292 12.7494 12.3218 12.7494 12.3144C12.7494 12.307 12.7494 12.2997 12.7494 12.2923C12.7494 12.2849 12.7494 12.2775 12.7494 12.2702C12.7494 12.2628 12.7494 12.2554 12.7494 12.2481C12.7494 12.2407 12.7494 12.2333 12.7494 12.226C12.7494 12.2186 12.7494 12.2113 12.7494 12.2039C12.7494 12.1966 12.7494 12.1893 12.7494 12.1819C12.7494 12.1746 12.7494 12.1673 12.7494 12.1599C12.7494 12.1526 12.7494 12.1453 12.7494 12.138C12.7494 12.1307 12.7494 12.1233 12.7494 12.116C12.7494 12.1087 12.7494 12.1014 12.7494 12.0941C12.7494 12.0868 12.7494 12.0795 12.7494 12.0722C12.7494 12.065 12.7494 12.0577 12.7494 12.0504C12.7494 12.0431 12.7494 12.0358 12.7494 12.0286C12.7494 12.0213 12.7494 12.014 12.7494 12.0068C12.7494 11.9995 12.7494 11.9923 12.7494 11.985C12.7494 11.9778 12.7494 11.9705 12.7494 11.9633C12.7494 11.956 12.7494 11.9488 12.7494 11.9416C12.7494 11.9343 12.7494 11.9271 12.7494 11.9199C12.7494 11.9127 12.7494 11.9055 12.7494 11.8983C12.7494 11.8911 12.7494 11.8839 12.7494 11.8767C12.7494 11.8695 12.7494 11.8623 12.7494 11.8551C12.7494 11.8479 12.7494 11.8407 12.7494 11.8335C12.7494 11.8264 12.7494 11.8192 12.7494 11.812C12.7494 11.8048 12.7494 11.7977 12.7494 11.7905C12.7494 11.7834 12.7494 11.7762 12.7494 11.7691C12.7494 11.7619 12.7494 11.7548 12.7494 11.7477C12.7494 11.7405 12.7494 11.7334 12.7494 11.7263C12.7494 11.7192 12.7494 11.7121 12.7494 11.7049C12.7494 11.6978 12.7494 11.6907 12.7494 11.6836C12.7494 11.6765 12.7494 11.6694 12.7494 11.6624C12.7494 11.6553 12.7494 11.6482 12.7494 11.6411C12.7494 11.634 12.7494 11.627 12.7494 11.6199C12.7494 11.6128 12.7494 11.6058 12.7494 11.5987C12.7494 11.5917 12.7494 11.5846 12.7494 11.5776C12.7494 11.5706 12.7494 11.5635 12.7494 11.5565C12.7494 11.5495 12.7494 11.5425 12.7494 11.5354C12.7494 11.5284 12.7494 11.5214 12.7494 11.5144C12.7494 11.5074 12.7494 11.5004 12.7494 11.4934C12.7494 11.4864 12.7494 11.4795 12.7494 11.4725C12.7494 11.4655 12.7494 11.4585 12.7494 11.4516C12.7494 11.4446 12.7494 11.4377 12.7494 11.4307C12.7494 11.4238 12.7494 11.4168 12.7494 11.4099C12.7494 11.4029 12.7494 11.396 12.7494 11.3891C12.7494 11.3822 12.7494 11.3752 12.7494 11.3683C12.7494 11.3614 12.7494 11.3545 12.7494 11.3476C12.7494 11.3407 12.7494 11.3338 12.7494 11.3269C12.7494 11.3201 12.7494 11.3132 12.7494 11.3063C12.7494 11.2994 12.7494 11.2926 12.7494 11.2857C12.7494 11.2789 12.7494 11.272 12.7494 11.2652C12.7494 11.2583 12.7494 11.2515 12.7494 11.2447C12.7494 11.2378 12.7494 11.231 12.7494 11.2242C12.7494 11.2174 12.7494 11.2106 12.7494 11.2038C12.7494 11.197 12.7494 11.1902 12.7494 11.1834C12.7494 11.1766 12.7494 11.1698 12.7494 11.163C12.7494 11.1563 12.7494 11.1495 12.7494 11.1427C12.7494 11.136 12.7494 11.1292 12.7494 11.1225C12.7494 11.1157 12.7494 11.109 12.7494 11.1023C12.7494 11.0956 12.7494 11.0888 12.7494 11.0821C12.7494 11.0754 12.7494 11.0687 12.7494 11.062C12.7494 11.0553 12.7494 11.0486 12.7494 11.0419C12.7494 11.0352 12.7494 11.0286 12.7494 11.0219C12.7494 11.0152 12.7494 11.0086 12.7494 11.0019C12.7494 10.9953 12.7494 10.9886 12.7494 10.982C12.7494 10.9753 12.7494 10.9687 12.7494 10.9621C12.7494 10.9555 12.7494 10.9489 12.7494 10.9422C12.7494 10.9356 12.7494 10.929 12.7494 10.9224C12.7494 10.9159 12.7494 10.9093 12.7494 10.9027C12.7494 10.8961 12.7494 10.8896 12.7494 10.883C12.7494 10.8764 12.7494 10.8699 12.7494 10.8633C12.7494 10.8568 12.7494 10.8503 12.7494 10.8437C12.7494 10.8372 12.7494 10.8307 12.7494 10.8242C12.7494 10.8177 12.7494 10.8112 12.7494 10.8047C12.7494 10.7982 12.7494 10.7917 12.7494 10.7852C12.7494 10.7787 12.7494 10.7723 12.7494 10.7658C12.7494 10.7593 12.7494 10.7529 12.7494 10.7465C12.7494 10.74 12.7494 10.7336 12.7494 10.7271C12.7494 10.7207 12.7494 10.7143 12.7494 10.7079C12.7494 10.7015 12.7494 10.6951 12.7494 10.6887C12.7494 10.6823 12.7494 10.6759 12.7494 10.6695C12.7494 10.6632 12.7494 10.6568 12.7494 10.6504C12.7494 10.6441 12.7494 10.6377 12.7494 10.6314C12.7494 10.625 12.7494 10.6187 12.7494 10.6124C12.7494 10.6061 12.7494 10.5997 12.7494 10.5934C12.7494 10.5871 12.7494 10.5808 12.7494 10.5745C12.7494 10.5683 12.7494 10.562 12.7494 10.5557C12.7494 10.5494 12.7494 10.5432 12.7494 10.5369C12.7494 10.5307 12.7494 10.5244 12.7494 10.5182C12.7494 10.512 12.7494 10.5057 12.7494 10.4995C12.7494 10.4933 12.7494 10.4871 12.7494 10.4809C12.7494 10.4747 12.7494 10.4685 12.7494 10.4623C12.7494 10.4562 12.7494 10.45 12.7494 10.4438C12.7494 10.4377 12.7494 10.4315 12.7494 10.4254C12.7494 10.4192 12.7494 10.4131 12.7494 10.407C12.7494 10.4008 12.7494 10.3947 12.7494 10.3886C12.7494 10.3825 12.7494 10.3764 12.7494 10.3703C12.7494 10.3643 12.7494 10.3582 12.7494 10.3521C12.7494 10.3461 12.7494 10.34 12.7494 10.334C12.7494 10.3279 12.7494 10.3219 12.7494 10.3158C12.7494 10.3098 12.7494 10.3038 12.7494 10.2978C12.7494 10.2918 12.7494 10.2858 12.7494 10.2798C12.7494 10.2738 12.7494 10.2678 12.7494 10.2619C12.7494 10.2559 12.7494 10.2499 12.7494 10.244C12.7494 10.238 12.7494 10.2321 12.7494 10.2262C12.7494 10.2202 12.7494 10.2143 12.7494 10.2084C12.7494 10.2025 12.7494 10.1966 12.7494 10.1907C12.7494 10.1848 12.7494 10.1789 12.7494 10.1731C12.7494 10.1672 12.7494 10.1614 12.7494 10.1555C12.7494 10.1497 12.7494 10.1438 12.7494 10.138C12.7494 10.1322 12.7494 10.1263 12.7494 10.1205C12.7494 10.1147 12.7494 10.1089 12.7494 10.1032C12.7494 10.0974 12.7494 10.0916 12.7494 10.0858C12.7494 10.0801 12.7494 10.0743 12.7494 10.0686C12.7494 10.0628 12.7494 10.0571 12.7494 10.0514C12.7494 10.0456 12.7494 10.0399 12.7494 10.0342C12.7494 10.0285 12.7494 10.0228 12.7494 10.0171C12.7494 10.0115 12.7494 10.0058 12.7494 10.0001C12.7494 9.99448 12.7494 9.98883 12.7494 9.98319C12.7494 9.97756 12.7494 9.97193 12.7494 9.96631C12.7494 9.9607 12.7494 9.95509 12.7494 9.9495C12.7494 9.9439 12.7494 9.93832 12.7494 9.93275C12.7494 9.92718 12.7494 9.92161 12.7494 9.91606C12.7494 9.91051 12.7494 9.90497 12.7494 9.89945C12.7494 9.89392 12.7494 9.8884 12.7494 9.88289C12.7494 9.87739 12.7494 9.87189 12.7494 9.86641C12.7494 9.86093 12.7494 9.85545 12.7494 9.84999C12.7494 9.84453 12.7494 9.83908 12.7494 9.83364C12.7494 9.8282 12.7494 9.82278 12.7494 9.81736C12.7494 9.81194 12.7494 9.80654 12.7494 9.80114C12.7494 9.79575 12.7494 9.79037 12.7494 9.785C12.7494 9.77963 12.7494 9.77427 12.7494 9.76892C12.7494 9.76357 12.7494 9.75824 12.7494 9.75291C12.7494 9.74759 12.7494 9.74228 12.7494 9.73698C12.7494 9.73167 12.7494 9.72639 12.7494 9.72111C12.7494 9.71583 12.7494 9.71056 12.7494 9.70531C12.7494 9.70006 12.7494 9.69481 12.7494 9.68958C12.7494 9.68435 12.7494 9.67913 12.7494 9.67392C12.7494 9.66872 12.7494 9.66352 12.7494 9.65834C12.7494 9.65316 12.7494 9.64798 12.7494 9.64283C12.7494 9.63767 12.7494 9.63252 12.7494 9.62738C12.7494 9.62225 12.7494 9.61712 12.7494 9.61201C12.7494 9.6069 12.7494 9.6018 12.7494 9.59672C12.7494 9.59163 12.7494 9.58655 12.7494 9.58149C12.7494 9.57643 12.7494 9.57138 12.7494 9.56634C12.7494 9.5613 12.7494 9.55628 12.7494 9.55126C12.7494 9.54625 12.7494 9.54125 12.7494 9.53626C12.7494 9.53127 12.7494 9.52629 12.7494 9.52133C12.7494 9.51637 12.7494 9.51141 12.7494 9.50647C12.7494 9.50154 12.7494 9.49661 12.7494 9.49169C12.7494 9.48678 12.7494 9.48188 12.7494 9.47699C12.7494 9.4721 12.7494 9.46722 12.7494 9.46236C12.7494 9.4575 12.7494 9.45265 12.7494 9.44781C12.7494 9.44297 12.7494 9.43814 12.7494 9.43333C12.7494 9.42852 12.7494 9.42372 12.7494 9.41893C12.7494 9.41414 12.7494 9.40937 12.7494 9.40461C12.7494 9.39985 12.7494 9.3951 12.7494 9.39036C12.7494 9.38563 12.7494 9.3809 12.7494 9.3762C12.7494 9.37149 12.7494 9.36679 12.7494 9.36211C12.7494 9.35742 12.7494 9.35275 12.7494 9.34809C12.7494 9.34344 12.7494 9.33879 12.7494 9.33416C12.7494 9.32953 12.7494 9.32491 12.7494 9.32031C12.7494 9.3157 12.7494 9.31111 12.7494 9.30653C12.7494 9.30195 12.7494 9.29739 12.7494 9.29284C12.7494 9.28829 12.7494 9.28375 12.7494 9.27922C12.7494 9.2747 12.7494 9.27019 12.7494 9.26569C12.7494 9.26119 12.7494 9.25671 12.7494 9.25223C12.7494 9.24776 12.7494 9.24331 12.7494 9.23886C12.7494 9.23442 12.7494 9.22999 12.7494 9.22557C12.7494 9.22115 12.7494 9.21675 12.7494 9.21236C12.7494 9.20797 12.7494 9.2036 12.7494 9.19923C12.7494 9.19487 12.7494 9.19052 12.7494 9.18619C12.7494 9.18186 12.7494 9.17753 12.7494 9.17323C12.7494 9.16892 12.7494 9.16463 12.7494 9.16035C12.7494 9.15607 12.7494 9.1518 12.7494 9.14755C12.7494 9.1433 12.7494 9.13906 12.7494 9.13484C12.7494 9.13062 12.7494 9.12641 12.7494 9.12221C12.7494 9.11802 12.7494 9.11384 12.7494 9.10967C12.7494 9.1055 12.7494 9.10135 12.7494 9.09721C12.7494 9.09307 12.7494 9.08895 12.7494 9.08484C12.7494 9.08073 12.7494 9.07663 12.7494 9.07255C12.7494 9.06847 12.7494 9.0644 12.7494 9.06035C12.7494 9.0563 12.7494 9.05226 12.7494 9.04823C12.7494 9.04421 12.7494 9.0402 12.7494 9.03621C12.7494 9.03221 12.7494 9.02823 12.7494 9.02426C12.7494 9.0203 12.7494 9.01635 12.7494 9.01241C12.7494 9.00847 12.7494 9.00455 12.7494 9.00064C12.7494 8.99673 12.7494 8.99284 12.7494 8.98896C12.7494 8.98508 12.7494 8.98122 12.7494 8.97737C12.7494 8.97352 12.7494 8.96969 12.7494 8.96587C12.7494 8.96205 12.7494 8.95824 12.7494 8.95445C12.7494 8.95066 12.7494 8.94689 12.7494 8.94313C12.7494 8.93937 12.7494 8.93562 12.7494 8.93189C12.7494 8.92816 12.7494 8.92445 12.7494 8.92075C12.7494 8.91705 12.7494 8.91336 12.7494 8.90969C12.7494 8.90602 12.7494 8.90237 12.7494 8.89873C12.7494 8.89509 12.7494 8.89146 12.7494 8.88786C12.7494 8.88425 12.7494 8.88065 12.7494 8.87707C12.7494 8.87349 12.7494 8.86993 12.7494 8.86638C12.7494 8.86283 12.7494 8.8593 12.7494 8.85578C12.7494 8.85227 12.7494 8.84876 12.7494 8.84528C12.7494 8.84179 12.7494 8.83832 12.7494 8.83486C12.7494 8.83141 12.7494 8.82797 12.7494 8.82454C12.7494 8.82112 12.7494 8.81771 12.7494 8.81432C12.7494 8.81092 12.7494 8.80754 12.7494 8.80418C12.7494 8.80082 12.7494 8.79747 12.7494 8.79414C12.7494 8.79081 12.7494 8.7875 12.7494 8.7842C12.7494 8.7809 12.7494 8.77761 12.7494 8.77435C12.7494 8.77108 12.7494 8.76783 12.7494 8.76459C12.7494 8.76135 12.7494 8.75813 12.7494 8.75493C12.7494 8.75173 12.7494 8.74854 12.7494 8.74537C12.7494 8.74219 12.7494 8.73904 12.7494 8.7359C12.7494 8.73276 12.7494 8.72963 12.7494 8.72652C12.7494 8.72342 12.7494 8.72033 12.7494 8.71725C12.7494 8.71417 12.7494 8.71111 12.7494 8.70807C12.7494 8.70503 12.7494 8.702 12.7494 8.69899C12.7494 8.69598 12.7494 8.69298 12.7494 8.69001C12.7494 8.68703 12.7494 8.68407 12.7494 8.68112C12.7494 8.67818 12.7494 8.67525 12.7494 8.67233C12.7494 8.66942 12.7494 8.66653 12.7494 8.66365C12.7494 8.66077 12.7494 8.6579 12.7494 8.65506C12.7494 8.65221 12.7494 8.64938 12.7494 8.64657C12.7494 8.64375 12.7494 8.64096 12.7494 8.63818C12.7494 8.6354 12.7494 8.63264 12.7494 8.62989C12.7494 8.62714 12.7494 8.62441 12.7494 8.6217C12.7494 8.61899 12.7494 8.61629 12.7494 8.61361C12.7494 8.61093 12.7494 8.60827 12.7494 8.60562C12.7494 8.60298 12.7494 8.60035 12.7494 8.59774C12.7494 8.59513 12.7494 8.59253 12.7494 8.58995C12.7494 8.58738 12.7494 8.58482 12.7494 8.58227C12.7494 8.57973 12.7494 8.5772 12.7494 8.57469C12.7494 8.57218 12.7494 8.56969 12.7494 8.56722C12.7494 8.56474 12.7494 8.56228 12.7494 8.55984C12.7494 8.5574 12.7494 8.55498 12.7494 8.55257C12.7494 8.55017 12.7494 8.54778 12.7494 8.54541C12.7494 8.54304 12.7494 8.54068 12.7494 8.53835C12.7494 8.53601 12.7494 8.53369 12.7494 8.53139C12.7494 8.52909 12.7494 8.5268 12.7494 8.52454C12.7494 8.52227 12.7494 8.52002 12.7494 8.51779C12.7494 8.51556 12.7494 8.51334 12.7494 8.51115C12.7494 8.50895 12.7494 8.50677 12.7494 8.50461C12.7494 8.50245 12.7494 8.50031 12.7494 8.49818C12.7494 8.49606 12.7494 8.49395 12.7494 8.49186C12.7494 8.48977 12.7494 8.4877 12.7494 8.48564C12.7494 8.48359 12.7494 8.48155 12.7494 8.47954C12.7494 8.47752 12.7494 8.47552 12.7494 8.47353C12.7494 8.47155 12.7494 8.46959 12.7494 8.46764C12.7494 8.4657 12.7494 8.46377 12.7494 8.46186C12.7494 8.45995 12.7494 8.45805 12.7494 8.45618C12.7494 8.45431 12.7494 8.45245 12.7494 8.45061C12.7494 8.44878 12.7494 8.44696 12.7494 8.44516C12.7494 8.44335 12.7494 8.44157 12.7494 8.43981C12.7494 8.43804 12.7494 8.4363 12.7494 8.43457C12.7494 8.43284 12.7494 8.43113 12.7494 8.42944C12.7494 8.42775 12.7494 8.42608 12.7494 8.42442C12.7494 8.42277 12.7494 8.42113 12.7494 8.41952C12.7494 8.4179 12.7494 8.4163 12.7494 8.41472C12.7494 8.41314 12.7494 8.41158 12.7494 8.41004C12.7494 8.4085 12.7494 8.40697 12.7494 8.40547C12.7494 8.40396 12.7494 8.40248 12.7494 8.40101C12.7494 8.39954 12.7494 8.39809 12.7494 8.39666C12.7494 8.39523 12.7494 8.39382 12.7494 8.39243C12.7494 8.39104 12.7494 8.38966 12.7494 8.38831C12.7494 8.38696 12.7494 8.38562 12.7494 8.3843C12.7494 8.38299 12.7494 8.38169 12.7494 8.38041C12.7494 8.37913 12.7494 8.37787 12.7494 8.37663C12.7494 8.37539 12.7494 8.37417 12.7494 8.37297C12.7494 8.37177 12.7494 8.37059 12.7494 8.36942C12.7494 8.36826 12.7494 8.36712 12.7494 8.36599C12.7494 8.36487 12.7494 8.36376 12.7494 8.36267C12.7494 8.36159 12.7494 8.36052 12.7494 8.35947C12.7494 8.35843 12.7494 8.3574 12.7494 8.35639C12.7494 8.35538 12.7494 8.35439 12.7494 8.35342C12.7494 8.35245 12.7494 8.3515 12.7494 8.35057C12.7494 8.34964 12.7494 8.34873 12.7494 8.34784C12.7494 8.34695 12.7494 8.34608 12.7494 8.34522C12.7494 8.34437 12.7494 8.34354 12.7494 8.34273C12.7494 8.34192 12.7494 8.34112 12.7494 8.34035C12.7494 8.33958 12.7494 8.33882 12.7494 8.33809C12.7494 8.33736 12.7494 8.33664 12.7494 8.33595C12.7494 8.33526 12.7494 8.33458 12.7494 8.33393C12.7494 8.33327 12.7494 8.33264 12.7494 8.33203C12.7494 8.33141 12.7494 8.33082 12.7494 8.33025C12.7494 8.32967 12.7494 8.32912 12.7494 8.32859C12.7494 8.32805 12.7494 8.32754 12.7494 8.32705C12.7494 8.32655 12.7494 8.32608 12.7494 8.32563C12.7494 8.32518 12.7494 8.32474 12.7494 8.32433C12.7494 8.32392 12.7494 8.32353 12.7494 8.32316C12.7494 8.32279 12.7494 8.32244 12.7494 8.3221C12.7494 8.32177 12.7494 8.32146 12.7494 8.32117C12.7494 8.32089 12.7494 8.32062 12.7494 8.32037C12.7494 8.32012 12.7494 8.31989 12.7494 8.31968C12.7494 8.31948 12.7494 8.31929 12.7494 8.31912C12.7494 8.31896 12.7494 8.31881 12.7494 8.31869C12.7494 8.31856 12.7494 8.31846 12.7494 8.31837C12.7494 8.31829 12.7494 8.31823 12.7494 8.31819C12.7494 8.31815 12.7494 8.31812 11.9994 8.31812C11.2494 8.31812 11.2494 8.31815 11.2494 8.31819C11.2494 8.31823 11.2494 8.31829 11.2494 8.31837C11.2494 8.31846 11.2494 8.31856 11.2494 8.31869C11.2494 8.31881 11.2494 8.31896 11.2494 8.31912C11.2494 8.31929 11.2494 8.31948 11.2494 8.31968C11.2494 8.31989 11.2494 8.32012 11.2494 8.32037C11.2494 8.32062 11.2494 8.32089 11.2494 8.32117C11.2494 8.32146 11.2494 8.32177 11.2494 8.3221C11.2494 8.32244 11.2494 8.32279 11.2494 8.32316C11.2494 8.32353 11.2494 8.32392 11.2494 8.32433C11.2494 8.32474 11.2494 8.32518 11.2494 8.32563C11.2494 8.32608 11.2494 8.32655 11.2494 8.32705C11.2494 8.32754 11.2494 8.32805 11.2494 8.32859C11.2494 8.32912 11.2494 8.32967 11.2494 8.33025C11.2494 8.33082 11.2494 8.33141 11.2494 8.33203C11.2494 8.33264 11.2494 8.33327 11.2494 8.33393C11.2494 8.33458 11.2494 8.33526 11.2494 8.33595C11.2494 8.33664 11.2494 8.33736 11.2494 8.33809C11.2494 8.33882 11.2494 8.33958 11.2494 8.34035C11.2494 8.34112 11.2494 8.34192 11.2494 8.34273C11.2494 8.34354 11.2494 8.34437 11.2494 8.34522C11.2494 8.34608 11.2494 8.34695 11.2494 8.34784C11.2494 8.34873 11.2494 8.34964 11.2494 8.35057C11.2494 8.3515 11.2494 8.35245 11.2494 8.35342C11.2494 8.35439 11.2494 8.35538 11.2494 8.35639C11.2494 8.3574 11.2494 8.35843 11.2494 8.35947C11.2494 8.36052 11.2494 8.36159 11.2494 8.36267C11.2494 8.36376 11.2494 8.36487 11.2494 8.36599C11.2494 8.36712 11.2494 8.36826 11.2494 8.36942C11.2494 8.37059 11.2494 8.37177 11.2494 8.37297C11.2494 8.37417 11.2494 8.37539 11.2494 8.37663C11.2494 8.37787 11.2494 8.37913 11.2494 8.38041C11.2494 8.38169 11.2494 8.38299 11.2494 8.3843C11.2494 8.38562 11.2494 8.38696 11.2494 8.38831C11.2494 8.38966 11.2494 8.39104 11.2494 8.39243C11.2494 8.39382 11.2494 8.39523 11.2494 8.39666C11.2494 8.39809 11.2494 8.39954 11.2494 8.40101C11.2494 8.40248 11.2494 8.40396 11.2494 8.40547C11.2494 8.40697 11.2494 8.4085 11.2494 8.41004C11.2494 8.41158 11.2494 8.41314 11.2494 8.41472C11.2494 8.4163 11.2494 8.4179 11.2494 8.41952C11.2494 8.42113 11.2494 8.42277 11.2494 8.42442C11.2494 8.42608 11.2494 8.42775 11.2494 8.42944C11.2494 8.43113 11.2494 8.43284 11.2494 8.43457C11.2494 8.4363 11.2494 8.43804 11.2494 8.43981C11.2494 8.44157 11.2494 8.44335 11.2494 8.44516C11.2494 8.44696 11.2494 8.44878 11.2494 8.45061C11.2494 8.45245 11.2494 8.45431 11.2494 8.45618C11.2494 8.45805 11.2494 8.45995 11.2494 8.46186C11.2494 8.46377 11.2494 8.4657 11.2494 8.46764C11.2494 8.46959 11.2494 8.47155 11.2494 8.47353C11.2494 8.47552 11.2494 8.47752 11.2494 8.47954C11.2494 8.48155 11.2494 8.48359 11.2494 8.48564C11.2494 8.4877 11.2494 8.48977 11.2494 8.49186C11.2494 8.49395 11.2494 8.49606 11.2494 8.49818C11.2494 8.50031 11.2494 8.50245 11.2494 8.50461C11.2494 8.50677 11.2494 8.50895 11.2494 8.51115C11.2494 8.51334 11.2494 8.51556 11.2494 8.51779C11.2494 8.52002 11.2494 8.52227 11.2494 8.52454C11.2494 8.5268 11.2494 8.52909 11.2494 8.53139C11.2494 8.53369 11.2494 8.53601 11.2494 8.53835C11.2494 8.54068 11.2494 8.54304 11.2494 8.54541C11.2494 8.54778 11.2494 8.55017 11.2494 8.55257C11.2494 8.55498 11.2494 8.5574 11.2494 8.55984C11.2494 8.56228 11.2494 8.56474 11.2494 8.56722C11.2494 8.56969 11.2494 8.57218 11.2494 8.57469C11.2494 8.5772 11.2494 8.57973 11.2494 8.58227C11.2494 8.58482 11.2494 8.58738 11.2494 8.58995C11.2494 8.59253 11.2494 8.59513 11.2494 8.59774C11.2494 8.60035 11.2494 8.60298 11.2494 8.60562C11.2494 8.60827 11.2494 8.61093 11.2494 8.61361C11.2494 8.61629 11.2494 8.61899 11.2494 8.6217C11.2494 8.62441 11.2494 8.62714 11.2494 8.62989C11.2494 8.63264 11.2494 8.6354 11.2494 8.63818C11.2494 8.64096 11.2494 8.64375 11.2494 8.64657C11.2494 8.64938 11.2494 8.65221 11.2494 8.65506C11.2494 8.6579 11.2494 8.66077 11.2494 8.66365C11.2494 8.66653 11.2494 8.66942 11.2494 8.67233C11.2494 8.67525 11.2494 8.67818 11.2494 8.68112C11.2494 8.68407 11.2494 8.68703 11.2494 8.69001C11.2494 8.69298 11.2494 8.69598 11.2494 8.69899C11.2494 8.702 11.2494 8.70503 11.2494 8.70807C11.2494 8.71111 11.2494 8.71417 11.2494 8.71725C11.2494 8.72033 11.2494 8.72342 11.2494 8.72652C11.2494 8.72963 11.2494 8.73276 11.2494 8.7359C11.2494 8.73904 11.2494 8.74219 11.2494 8.74537C11.2494 8.74854 11.2494 8.75173 11.2494 8.75493C11.2494 8.75813 11.2494 8.76135 11.2494 8.76459C11.2494 8.76783 11.2494 8.77108 11.2494 8.77435C11.2494 8.77761 11.2494 8.7809 11.2494 8.7842C11.2494 8.7875 11.2494 8.79081 11.2494 8.79414C11.2494 8.79747 11.2494 8.80082 11.2494 8.80418C11.2494 8.80754 11.2494 8.81092 11.2494 8.81432C11.2494 8.81771 11.2494 8.82112 11.2494 8.82454C11.2494 8.82797 11.2494 8.83141 11.2494 8.83486C11.2494 8.83832 11.2494 8.84179 11.2494 8.84528C11.2494 8.84876 11.2494 8.85227 11.2494 8.85578C11.2494 8.8593 11.2494 8.86283 11.2494 8.86638C11.2494 8.86993 11.2494 8.87349 11.2494 8.87707C11.2494 8.88065 11.2494 8.88425 11.2494 8.88786C11.2494 8.89146 11.2494 8.89509 11.2494 8.89873C11.2494 8.90237 11.2494 8.90602 11.2494 8.90969C11.2494 8.91336 11.2494 8.91705 11.2494 8.92075C11.2494 8.92445 11.2494 8.92816 11.2494 8.93189C11.2494 8.93562 11.2494 8.93937 11.2494 8.94313C11.2494 8.94689 11.2494 8.95066 11.2494 8.95445C11.2494 8.95824 11.2494 8.96205 11.2494 8.96587C11.2494 8.96969 11.2494 8.97352 11.2494 8.97737C11.2494 8.98122 11.2494 8.98508 11.2494 8.98896C11.2494 8.99284 11.2494 8.99673 11.2494 9.00064C11.2494 9.00455 11.2494 9.00847 11.2494 9.01241C11.2494 9.01635 11.2494 9.0203 11.2494 9.02426C11.2494 9.02823 11.2494 9.03221 11.2494 9.03621C11.2494 9.0402 11.2494 9.04421 11.2494 9.04823C11.2494 9.05226 11.2494 9.0563 11.2494 9.06035C11.2494 9.0644 11.2494 9.06847 11.2494 9.07255C11.2494 9.07663 11.2494 9.08073 11.2494 9.08484C11.2494 9.08895 11.2494 9.09307 11.2494 9.09721C11.2494 9.10135 11.2494 9.1055 11.2494 9.10967C11.2494 9.11384 11.2494 9.11802 11.2494 9.12221C11.2494 9.12641 11.2494 9.13062 11.2494 9.13484C11.2494 9.13906 11.2494 9.1433 11.2494 9.14755C11.2494 9.1518 11.2494 9.15607 11.2494 9.16035C11.2494 9.16463 11.2494 9.16892 11.2494 9.17323C11.2494 9.17753 11.2494 9.18186 11.2494 9.18619C11.2494 9.19052 11.2494 9.19487 11.2494 9.19923C11.2494 9.2036 11.2494 9.20797 11.2494 9.21236C11.2494 9.21675 11.2494 9.22115 11.2494 9.22557C11.2494 9.22999 11.2494 9.23442 11.2494 9.23886C11.2494 9.24331 11.2494 9.24776 11.2494 9.25223C11.2494 9.25671 11.2494 9.26119 11.2494 9.26569C11.2494 9.27019 11.2494 9.2747 11.2494 9.27922C11.2494 9.28375 11.2494 9.28829 11.2494 9.29284C11.2494 9.29739 11.2494 9.30195 11.2494 9.30653C11.2494 9.31111 11.2494 9.3157 11.2494 9.32031C11.2494 9.32491 11.2494 9.32953 11.2494 9.33416C11.2494 9.33879 11.2494 9.34344 11.2494 9.34809C11.2494 9.35275 11.2494 9.35742 11.2494 9.36211C11.2494 9.36679 11.2494 9.37149 11.2494 9.3762C11.2494 9.3809 11.2494 9.38563 11.2494 9.39036C11.2494 9.3951 11.2494 9.39985 11.2494 9.40461C11.2494 9.40937 11.2494 9.41414 11.2494 9.41893C11.2494 9.42372 11.2494 9.42852 11.2494 9.43333C11.2494 9.43814 11.2494 9.44297 11.2494 9.44781C11.2494 9.45265 11.2494 9.4575 11.2494 9.46236C11.2494 9.46722 11.2494 9.4721 11.2494 9.47699C11.2494 9.48188 11.2494 9.48678 11.2494 9.49169C11.2494 9.49661 11.2494 9.50154 11.2494 9.50647C11.2494 9.51141 11.2494 9.51637 11.2494 9.52133C11.2494 9.52629 11.2494 9.53127 11.2494 9.53626C11.2494 9.54125 11.2494 9.54625 11.2494 9.55126C11.2494 9.55628 11.2494 9.5613 11.2494 9.56634C11.2494 9.57138 11.2494 9.57643 11.2494 9.58149C11.2494 9.58655 11.2494 9.59163 11.2494 9.59672C11.2494 9.6018 11.2494 9.6069 11.2494 9.61201C11.2494 9.61712 11.2494 9.62225 11.2494 9.62738C11.2494 9.63252 11.2494 9.63767 11.2494 9.64283C11.2494 9.64798 11.2494 9.65316 11.2494 9.65834C11.2494 9.66352 11.2494 9.66872 11.2494 9.67392C11.2494 9.67913 11.2494 9.68435 11.2494 9.68958C11.2494 9.69481 11.2494 9.70006 11.2494 9.70531C11.2494 9.71056 11.2494 9.71583 11.2494 9.72111C11.2494 9.72639 11.2494 9.73167 11.2494 9.73698C11.2494 9.74228 11.2494 9.74759 11.2494 9.75291C11.2494 9.75824 11.2494 9.76357 11.2494 9.76892C11.2494 9.77427 11.2494 9.77963 11.2494 9.785C11.2494 9.79037 11.2494 9.79575 11.2494 9.80114C11.2494 9.80654 11.2494 9.81194 11.2494 9.81736C11.2494 9.82278 11.2494 9.8282 11.2494 9.83364C11.2494 9.83908 11.2494 9.84453 11.2494 9.84999C11.2494 9.85545 11.2494 9.86093 11.2494 9.86641C11.2494 9.87189 11.2494 9.87739 11.2494 9.88289C11.2494 9.8884 11.2494 9.89392 11.2494 9.89945C11.2494 9.90497 11.2494 9.91051 11.2494 9.91606C11.2494 9.92161 11.2494 9.92718 11.2494 9.93275C11.2494 9.93832 11.2494 9.9439 11.2494 9.9495C11.2494 9.95509 11.2494 9.9607 11.2494 9.96631C11.2494 9.97193 11.2494 9.97756 11.2494 9.98319C11.2494 9.98883 11.2494 9.99448 11.2494 10.0001C11.2494 10.0058 11.2494 10.0115 11.2494 10.0171C11.2494 10.0228 11.2494 10.0285 11.2494 10.0342C11.2494 10.0399 11.2494 10.0456 11.2494 10.0514C11.2494 10.0571 11.2494 10.0628 11.2494 10.0686C11.2494 10.0743 11.2494 10.0801 11.2494 10.0858C11.2494 10.0916 11.2494 10.0974 11.2494 10.1032C11.2494 10.1089 11.2494 10.1147 11.2494 10.1205C11.2494 10.1263 11.2494 10.1322 11.2494 10.138C11.2494 10.1438 11.2494 10.1497 11.2494 10.1555C11.2494 10.1614 11.2494 10.1672 11.2494 10.1731C11.2494 10.1789 11.2494 10.1848 11.2494 10.1907C11.2494 10.1966 11.2494 10.2025 11.2494 10.2084C11.2494 10.2143 11.2494 10.2202 11.2494 10.2262C11.2494 10.2321 11.2494 10.238 11.2494 10.244C11.2494 10.2499 11.2494 10.2559 11.2494 10.2619C11.2494 10.2678 11.2494 10.2738 11.2494 10.2798C11.2494 10.2858 11.2494 10.2918 11.2494 10.2978C11.2494 10.3038 11.2494 10.3098 11.2494 10.3158C11.2494 10.3219 11.2494 10.3279 11.2494 10.334C11.2494 10.34 11.2494 10.3461 11.2494 10.3521C11.2494 10.3582 11.2494 10.3643 11.2494 10.3703C11.2494 10.3764 11.2494 10.3825 11.2494 10.3886C11.2494 10.3947 11.2494 10.4008 11.2494 10.407C11.2494 10.4131 11.2494 10.4192 11.2494 10.4254C11.2494 10.4315 11.2494 10.4377 11.2494 10.4438C11.2494 10.45 11.2494 10.4562 11.2494 10.4623C11.2494 10.4685 11.2494 10.4747 11.2494 10.4809C11.2494 10.4871 11.2494 10.4933 11.2494 10.4995C11.2494 10.5057 11.2494 10.512 11.2494 10.5182C11.2494 10.5244 11.2494 10.5307 11.2494 10.5369C11.2494 10.5432 11.2494 10.5494 11.2494 10.5557C11.2494 10.562 11.2494 10.5683 11.2494 10.5745C11.2494 10.5808 11.2494 10.5871 11.2494 10.5934C11.2494 10.5997 11.2494 10.6061 11.2494 10.6124C11.2494 10.6187 11.2494 10.625 11.2494 10.6314C11.2494 10.6377 11.2494 10.6441 11.2494 10.6504C11.2494 10.6568 11.2494 10.6632 11.2494 10.6695C11.2494 10.6759 11.2494 10.6823 11.2494 10.6887C11.2494 10.6951 11.2494 10.7015 11.2494 10.7079C11.2494 10.7143 11.2494 10.7207 11.2494 10.7271C11.2494 10.7336 11.2494 10.74 11.2494 10.7465C11.2494 10.7529 11.2494 10.7593 11.2494 10.7658C11.2494 10.7723 11.2494 10.7787 11.2494 10.7852C11.2494 10.7917 11.2494 10.7982 11.2494 10.8047C11.2494 10.8112 11.2494 10.8177 11.2494 10.8242C11.2494 10.8307 11.2494 10.8372 11.2494 10.8437C11.2494 10.8503 11.2494 10.8568 11.2494 10.8633C11.2494 10.8699 11.2494 10.8764 11.2494 10.883C11.2494 10.8896 11.2494 10.8961 11.2494 10.9027C11.2494 10.9093 11.2494 10.9159 11.2494 10.9224C11.2494 10.929 11.2494 10.9356 11.2494 10.9422C11.2494 10.9489 11.2494 10.9555 11.2494 10.9621C11.2494 10.9687 11.2494 10.9753 11.2494 10.982C11.2494 10.9886 11.2494 10.9953 11.2494 11.0019C11.2494 11.0086 11.2494 11.0152 11.2494 11.0219C11.2494 11.0286 11.2494 11.0352 11.2494 11.0419C11.2494 11.0486 11.2494 11.0553 11.2494 11.062C11.2494 11.0687 11.2494 11.0754 11.2494 11.0821C11.2494 11.0888 11.2494 11.0956 11.2494 11.1023C11.2494 11.109 11.2494 11.1157 11.2494 11.1225C11.2494 11.1292 11.2494 11.136 11.2494 11.1427C11.2494 11.1495 11.2494 11.1563 11.2494 11.163C11.2494 11.1698 11.2494 11.1766 11.2494 11.1834C11.2494 11.1902 11.2494 11.197 11.2494 11.2038C11.2494 11.2106 11.2494 11.2174 11.2494 11.2242C11.2494 11.231 11.2494 11.2378 11.2494 11.2447C11.2494 11.2515 11.2494 11.2583 11.2494 11.2652C11.2494 11.272 11.2494 11.2789 11.2494 11.2857C11.2494 11.2926 11.2494 11.2994 11.2494 11.3063C11.2494 11.3132 11.2494 11.3201 11.2494 11.3269C11.2494 11.3338 11.2494 11.3407 11.2494 11.3476C11.2494 11.3545 11.2494 11.3614 11.2494 11.3683C11.2494 11.3752 11.2494 11.3822 11.2494 11.3891C11.2494 11.396 11.2494 11.4029 11.2494 11.4099C11.2494 11.4168 11.2494 11.4238 11.2494 11.4307C11.2494 11.4377 11.2494 11.4446 11.2494 11.4516C11.2494 11.4585 11.2494 11.4655 11.2494 11.4725C11.2494 11.4795 11.2494 11.4864 11.2494 11.4934C11.2494 11.5004 11.2494 11.5074 11.2494 11.5144C11.2494 11.5214 11.2494 11.5284 11.2494 11.5354C11.2494 11.5425 11.2494 11.5495 11.2494 11.5565C11.2494 11.5635 11.2494 11.5706 11.2494 11.5776C11.2494 11.5846 11.2494 11.5917 11.2494 11.5987C11.2494 11.6058 11.2494 11.6128 11.2494 11.6199C11.2494 11.627 11.2494 11.634 11.2494 11.6411C11.2494 11.6482 11.2494 11.6553 11.2494 11.6624C11.2494 11.6694 11.2494 11.6765 11.2494 11.6836C11.2494 11.6907 11.2494 11.6978 11.2494 11.7049C11.2494 11.7121 11.2494 11.7192 11.2494 11.7263C11.2494 11.7334 11.2494 11.7405 11.2494 11.7477C11.2494 11.7548 11.2494 11.7619 11.2494 11.7691C11.2494 11.7762 11.2494 11.7834 11.2494 11.7905C11.2494 11.7977 11.2494 11.8048 11.2494 11.812C11.2494 11.8192 11.2494 11.8264 11.2494 11.8335C11.2494 11.8407 11.2494 11.8479 11.2494 11.8551C11.2494 11.8623 11.2494 11.8695 11.2494 11.8767C11.2494 11.8839 11.2494 11.8911 11.2494 11.8983C11.2494 11.9055 11.2494 11.9127 11.2494 11.9199C11.2494 11.9271 11.2494 11.9343 11.2494 11.9416C11.2494 11.9488 11.2494 11.956 11.2494 11.9633C11.2494 11.9705 11.2494 11.9778 11.2494 11.985C11.2494 11.9923 11.2494 11.9995 11.2494 12.0068C11.2494 12.014 11.2494 12.0213 11.2494 12.0286C11.2494 12.0358 11.2494 12.0431 11.2494 12.0504C11.2494 12.0577 11.2494 12.065 11.2494 12.0722C11.2494 12.0795 11.2494 12.0868 11.2494 12.0941C11.2494 12.1014 11.2494 12.1087 11.2494 12.116C11.2494 12.1233 11.2494 12.1307 11.2494 12.138C11.2494 12.1453 11.2494 12.1526 11.2494 12.1599C11.2494 12.1673 11.2494 12.1746 11.2494 12.1819C11.2494 12.1893 11.2494 12.1966 11.2494 12.2039C11.2494 12.2113 11.2494 12.2186 11.2494 12.226C11.2494 12.2333 11.2494 12.2407 11.2494 12.2481C11.2494 12.2554 11.2494 12.2628 11.2494 12.2702C11.2494 12.2775 11.2494 12.2849 11.2494 12.2923C11.2494 12.2997 11.2494 12.307 11.2494 12.3144C11.2494 12.3218 11.2494 12.3292 11.2494 12.3366C11.2494 12.344 11.2494 12.3514 11.2494 12.3588C11.2494 12.3662 11.2494 12.3736 11.2494 12.381C11.2494 12.3884 11.2494 12.3959 11.2494 12.4033C11.2494 12.4107 11.2494 12.4181 11.2494 12.4255C11.2494 12.433 11.2494 12.4404 11.2494 12.4478C11.2494 12.4553 11.2494 12.4627 11.2494 12.4702C11.2494 12.4776 11.2494 12.485 11.2494 12.4925C11.2494 12.4999 11.2494 12.5074 11.2494 12.5149C11.2494 12.5223 11.2494 12.5298 11.2494 12.5372C11.2494 12.5447 11.2494 12.5522 11.2494 12.5596C11.2494 12.5671 11.2494 12.5746 11.2494 12.5821C11.2494 12.5896 11.2494 12.597 11.2494 12.6045C11.2494 12.612 11.2494 12.6195 11.2494 12.627C11.2494 12.6345 11.2494 12.642 11.2494 12.6495C11.2494 12.657 11.2494 12.6645 11.2494 12.672C11.2494 12.6795 11.2494 12.687 11.2494 12.6945C11.2494 12.702 11.2494 12.7095 11.2494 12.7171C11.2494 12.7246 11.2494 12.7321 11.2494 12.7396C11.2494 12.7471 11.2494 12.7547 11.2494 12.7622C11.2494 12.7697 11.2494 12.7773 11.2494 12.7848C11.2494 12.7923 11.2494 12.7999 11.2494 12.8074C11.2494 12.815 11.2494 12.8225 11.2494 12.8301C11.2494 12.8376 11.2494 12.8452 11.2494 12.8527C11.2494 12.8603 11.2494 12.8678 11.2494 12.8754C11.2494 12.8829 11.2494 12.8905 11.2494 12.8981C11.2494 12.9056 11.2494 12.9132 11.2494 12.9208C11.2494 12.9284 11.2494 12.9359 11.2494 12.9435C11.2494 12.9511 11.2494 12.9587 11.2494 12.9662C11.2494 12.9738 11.2494 12.9814 11.2494 12.989C11.2494 12.9966 11.2494 13.0042 11.2494 13.0117C11.2494 13.0193 11.2494 13.0269 11.2494 13.0345C11.2494 13.0421 11.2494 13.0497 11.2494 13.0573C11.2494 13.0649 11.2494 13.0725 11.2494 13.0801C11.2494 13.0877 11.2494 13.0953 11.2494 13.1029C11.2494 13.1106 11.2494 13.1182 11.2494 13.1258C11.2494 13.1334 11.2494 13.141 11.2494 13.1486C11.2494 13.1562 11.2494 13.1639 11.2494 13.1715C11.2494 13.1791 11.2494 13.1867 11.2494 13.1944C11.2494 13.202 11.2494 13.2096 11.2494 13.2172C11.2494 13.2249 11.2494 13.2325 11.2494 13.2401C11.2494 13.2478 11.2494 13.2554 11.2494 13.263C11.2494 13.2707 11.2494 13.2783 11.2494 13.286C11.2494 13.2936 11.2494 13.3012 11.2494 13.3089C11.2494 13.3165 11.2494 13.3242 11.2494 13.3318C11.2494 13.3395 11.2494 13.3471 11.2494 13.3548C11.2494 13.3624 11.2494 13.3701 11.2494 13.3777C11.2494 13.3854 11.2494 13.393 11.2494 13.4007C11.2494 13.4083 11.2494 13.416 11.2494 13.4237C11.2494 13.4313 11.2494 13.439 11.2494 13.4466C11.2494 13.4543 11.2494 13.462 11.2494 13.4696C11.2494 13.4773 11.2494 13.485 11.2494 13.4926C11.2494 13.5003 11.2494 13.508 11.2494 13.5156C11.2494 13.5233 11.2494 13.531 11.2494 13.5386C11.2494 13.5463 11.2494 13.554 11.2494 13.5616C11.2494 13.5693 11.2494 13.577 11.2494 13.5847C11.2494 13.5923 11.2494 13.6 11.2494 13.6077C11.2494 13.6154 11.2494 13.6231 11.2494 13.6307C11.2494 13.6384 11.2494 13.6461 11.2494 13.6538C11.2494 13.6615 11.2494 13.6691 11.2494 13.6768C11.2494 13.6845 11.2494 13.6922 11.2494 13.6999C11.2494 13.7076 11.2494 13.7152 11.2494 13.7229C11.2494 13.7306 11.2494 13.7383 11.2494 13.746C11.2494 13.7537 11.2494 13.7614 11.2494 13.769C11.2494 13.7767 11.2494 13.7844 11.2494 13.7921C11.2494 13.7998 11.2494 13.8075 11.2494 13.8152C11.2494 13.8229 11.2494 13.8306 11.2494 13.8382C11.2494 13.8459 11.2494 13.8536 11.2494 13.8613C11.2494 13.869 11.2494 13.8767 11.2494 13.8844C11.2494 13.8921 11.2494 13.8998 11.2494 13.9075C11.2494 13.9152 11.2494 13.9229 11.2494 13.9305C11.2494 13.9382 11.2494 13.9459 11.2494 13.9536C11.2494 13.9613 11.2494 13.969 11.2494 13.9767C11.2494 13.9844 11.2494 13.9921 11.2494 13.9998C11.2494 14.0075 11.2494 14.0152 11.2494 14.0229C11.2494 14.0305 11.2494 14.0382 11.2494 14.0459C11.2494 14.0536 11.2494 14.0613 11.2494 14.069C11.2494 14.0767 11.2494 14.0844 11.2494 14.0921C11.2494 14.0998 11.2494 14.1075 11.2494 14.1152C11.2494 14.1228 11.2494 14.1305 11.2494 14.1382C11.2494 14.1459 11.2494 14.1536 11.2494 14.1613C11.2494 14.169 11.2494 14.1767 11.2494 14.1844C11.2494 14.1921 11.2494 14.1997 11.2494 14.2074C11.2494 14.2151 11.2494 14.2228 11.2494 14.2305C11.2494 14.2382 11.2494 14.2459 11.2494 14.2535C11.2494 14.2612 11.2494 14.2689 11.2494 14.2766C11.2494 14.2843 11.2494 14.292 11.2494 14.2996C11.2494 14.3073 11.2494 14.315 11.2494 14.3227C11.2494 14.3304 11.2494 14.3381 11.2494 14.3457C11.2494 14.3534 11.2494 14.3611 11.2494 14.3688C11.2494 14.3764 11.2494 14.3841 11.2494 14.3918C11.2494 14.3995 11.2494 14.4071 11.2494 14.4148C11.2494 14.4225 11.2494 14.4302 11.2494 14.4378C11.2494 14.4455 11.2494 14.4532 11.2494 14.4608C11.2494 14.4685 11.2494 14.4762 11.2494 14.4838C11.2494 14.4915 11.2494 14.4992 11.2494 14.5068C11.2494 14.5145 11.2494 14.5222 11.2494 14.5298C11.2494 14.5375 11.2494 14.5451 11.2494 14.5528C11.2494 14.5605 11.2494 14.5681 11.2494 14.5758C11.2494 14.5834 11.2494 14.5911 11.2494 14.5987C11.2494 14.6064 11.2494 14.614 11.2494 14.6217C11.2494 14.6293 11.2494 14.637 11.2494 14.6446C11.2494 14.6523 11.2494 14.6599 11.2494 14.6676C11.2494 14.6752 11.2494 14.6829 11.2494 14.6905C11.2494 14.6981 11.2494 14.7058 11.2494 14.7134C11.2494 14.721 11.2494 14.7287 11.2494 14.7363C11.2494 14.7439 11.2494 14.7516 11.2494 14.7592C11.2494 14.7668 11.2494 14.7745 11.2494 14.7821C11.2494 14.7897 11.2494 14.7973 11.2494 14.805C11.2494 14.8126 11.2494 14.8202 11.2494 14.8278C11.2494 14.8354 11.2494 14.843 11.2494 14.8507C11.2494 14.8583 11.2494 14.8659 11.2494 14.8735C11.2494 14.8811 11.2494 14.8887 11.2494 14.8963C11.2494 14.9039 11.2494 14.9115 11.2494 14.9191C11.2494 14.9267 11.2494 14.9343 11.2494 14.9419C11.2494 14.9495 11.2494 14.9571 11.2494 14.9647C11.2494 14.9723 11.2494 14.9799 11.2494 14.9874C11.2494 14.995 11.2494 15.0026 11.2494 15.0102C11.2494 15.0178 11.2494 15.0253 11.2494 15.0329C11.2494 15.0405 11.2494 15.0481 11.2494 15.0556C11.2494 15.0632 11.2494 15.0708 11.2494 15.0783C11.2494 15.0859 11.2494 15.0935 11.2494 15.101C11.2494 15.1086 11.2494 15.1161 11.2494 15.1237C11.2494 15.1312 11.2494 15.1388 11.2494 15.1463C11.2494 15.1539 11.2494 15.1614 11.2494 15.169C11.2494 15.1765 11.2494 15.1841 11.2494 15.1916C11.2494 15.1991 11.2494 15.2067 11.2494 15.2142C11.2494 15.2217 11.2494 15.2292 11.2494 15.2368C11.2494 15.2443 11.2494 15.2518 11.2494 15.2593C11.2494 15.2669 11.2494 15.2744 11.2494 15.2819C11.2494 15.2894 11.2494 15.2969 11.2494 15.3044C11.2494 15.3119 11.2494 15.3194 11.2494 15.3269C11.2494 15.3344 11.2494 15.3419 11.2494 15.3494C11.2494 15.3569 11.2494 15.3644 11.2494 15.3719C11.2494 15.3793 11.2494 15.3868 11.2494 15.3943C11.2494 15.4018 11.2494 15.4093 11.2494 15.4167C11.2494 15.4242 11.2494 15.4317 11.2494 15.4391C11.2494 15.4466 11.2494 15.454 11.2494 15.4615C11.2494 15.469 11.2494 15.4764 11.2494 15.4839C11.2494 15.4913 11.2494 15.4988 11.2494 15.5062C11.2494 15.5136 11.2494 15.5211 11.2494 15.5285C11.2494 15.5359 11.2494 15.5434 11.2494 15.5508C11.2494 15.5582 11.2494 15.5656 11.2494 15.5731C11.2494 15.5805 11.2494 15.5879 11.2494 15.5953C11.2494 15.6027 11.2494 15.6101 11.2494 15.6175C11.2494 15.6249 11.2494 15.6323 11.2494 15.6397C11.2494 15.6471 11.2494 15.6545 11.2494 15.6619C11.2494 15.6693 11.2494 15.6767 11.2494 15.684C11.2494 15.6914 11.2494 15.6988 11.2494 15.7062C11.2494 15.7135 11.2494 15.7209 11.2494 15.7283C11.2494 15.7356 11.2494 15.743 11.2494 15.7503C11.2494 15.7577 11.2494 15.765 11.2494 15.7724C11.2494 15.7797 11.2494 15.787 11.2494 15.7944C11.2494 15.8017 11.2494 15.809 11.2494 15.8164C11.2494 15.8237 11.2494 15.831 11.2494 15.8383C11.2494 15.8456 11.2494 15.8529 11.2494 15.8603C11.2494 15.8676 11.2494 15.8749 11.2494 15.8822C11.2494 15.8895 11.2494 15.8967 11.2494 15.904C11.2494 15.9113 11.2494 15.9186 11.2494 15.9259C11.2494 15.9332 11.2494 15.9404 11.2494 15.9477C11.2494 15.955 11.2494 15.9622 11.2494 15.9695C11.2494 15.9767 11.2494 15.984 11.2494 15.9912C11.2494 15.9985 11.2494 16.0057 11.2494 16.013C11.2494 16.0202 11.2494 16.0274 11.2494 16.0347C11.2494 16.0419 11.2494 16.0491 11.2494 16.0563C11.2494 16.0636 11.2494 16.0708 11.2494 16.078C11.2494 16.0852 11.2494 16.0924 11.2494 16.0996C11.2494 16.1068 11.2494 16.114 11.2494 16.1212C11.2494 16.1283 11.2494 16.1355 11.2494 16.1427C11.2494 16.1499 11.2494 16.157 11.2494 16.1642C11.2494 16.1714 11.2494 16.1785 11.2494 16.1857C11.2494 16.1928 11.2494 16.2 11.2494 16.2071C11.2494 16.2143 11.2494 16.2214 11.2494 16.2285C11.2494 16.2357 11.2494 16.2428 11.2494 16.2499C11.2494 16.257 11.2494 16.2641 11.2494 16.2712C11.2494 16.2784 11.2494 16.2855 11.2494 16.2926C11.2494 16.2997 11.2494 16.3067 11.2494 16.3138C11.2494 16.3209 11.2494 16.328 11.2494 16.3351C11.2494 16.3421 11.2494 16.3492 11.2494 16.3563C11.2494 16.3633 11.2494 16.3704 11.2494 16.3774C11.2494 16.3845 11.2494 16.3915 11.2494 16.3986C11.2494 16.4056 11.2494 16.4126 11.2494 16.4196C11.2494 16.4267 11.2494 16.4337 11.2494 16.4407C11.2494 16.4477 11.2494 16.4547 11.2494 16.4617C11.2494 16.4687 11.2494 16.4757 11.2494 16.4827C11.2494 16.4897 11.2494 16.4967 11.2494 16.5036C11.2494 16.5106 11.2494 16.5176 11.2494 16.5245C11.2494 16.5315 11.2494 16.5385 11.2494 16.5454C11.2494 16.5524 11.2494 16.5593 11.2494 16.5662C11.2494 16.5732 11.2494 16.5801 11.2494 16.587C11.2494 16.5939 11.2494 16.6009 11.2494 16.6078C11.2494 16.6147 11.2494 16.6216 11.2494 16.6285C11.2494 16.6354 11.2494 16.6423 11.2494 16.6491C11.2494 16.656 11.2494 16.6629 11.2494 16.6698C11.2494 16.6766 11.2494 16.6835 11.2494 16.6904C11.2494 16.6972 11.2494 16.7041 11.2494 16.7109C11.2494 16.7177 11.2494 16.7246 11.2494 16.7314C11.2494 16.7382 11.2494 16.7451 11.2494 16.7519C11.2494 16.7587 11.2494 16.7655 11.2494 16.7723C11.2494 16.7791 11.2494 16.7859 11.2494 16.7927C11.2494 16.7994 11.2494 16.8062 11.2494 16.813C11.2494 16.8198 11.2494 16.8265 11.2494 16.8333C11.2494 16.84 11.2494 16.8468 11.2494 16.8535C11.2494 16.8603 11.2494 16.867 11.2494 16.8737C11.2494 16.8805 11.2494 16.8872 11.2494 16.8939C11.2494 16.9006 11.2494 16.9073 11.2494 16.914C11.2494 16.9207 11.2494 16.9274 11.2494 16.9341C11.2494 16.9407 11.2494 16.9474 11.2494 16.9541C11.2494 16.9607 11.2494 16.9674 11.2494 16.9741C11.2494 16.9807 11.2494 16.9874 11.2494 16.994C11.2494 17.0006 11.2494 17.0072 11.2494 17.0139C11.2494 17.0205 11.2494 17.0271 11.2494 17.0337C11.2494 17.0403 11.2494 17.0469 11.2494 17.0535C11.2494 17.0601 11.2494 17.0667 11.2494 17.0732C11.2494 17.0798 11.2494 17.0864 11.2494 17.0929C11.2494 17.0995 11.2494 17.106 11.2494 17.1126C11.2494 17.1191 11.2494 17.1256 11.2494 17.1322H12.7494ZM16.8066 11.4696C15.5281 10.1911 13.7008 8.36387 12.9141 7.57715L11.8535 8.63781C12.6402 9.42453 14.4674 11.2518 15.7459 12.5303L16.8066 11.4696ZM11.0834 7.57845L7.1922 11.4696L8.25286 12.5303L12.144 8.63911L11.0834 7.57845ZM12.9141 7.57715C12.4059 7.06891 11.5869 7.07488 11.0834 7.57845L12.144 8.63911C12.0665 8.71665 11.9357 8.72002 11.8535 8.63781L12.9141 7.57715Z" fill="#44475B"/>
</svg>
