<svg width="24" height="24" viewBox="0 0 24 24" fill="none" xmlns="http://www.w3.org/2000/svg">
<path d="M14.3984 18.5977C14.3984 16.3877 11.7124 14.5977 8.39844 14.5977C5.08444 14.5977 2.39844 16.3877 2.39844 18.5977M18.3984 15.5977V12.5977M18.3984 12.5977V9.59766M18.3984 12.5977H15.3984M18.3984 12.5977H21.3984M8.39844 11.5977C7.33757 11.5977 6.32016 11.1762 5.57001 10.4261C4.81986 9.67594 4.39844 8.65852 4.39844 7.59766C4.39844 6.53679 4.81986 5.51937 5.57001 4.76923C6.32016 4.01908 7.33757 3.59766 8.39844 3.59766C9.4593 3.59766 10.4767 4.01908 11.2269 4.76923C11.977 5.51937 12.3984 6.53679 12.3984 7.59766C12.3984 8.65852 11.977 9.67594 11.2269 10.4261C10.4767 11.1762 9.4593 11.5977 8.39844 11.5977Z" stroke="#737790" stroke-width="1.5" stroke-linecap="round" stroke-linejoin="round"/>
</svg>
