<svg width="40" height="40" viewBox="0 0 40 40" fill="none" xmlns="http://www.w3.org/2000/svg">
<g clip-path="url(#clip0_565_4457)">
<path d="M6.66667 28.8885H2.22187M20 6.66667V0M28.8885 6.66667V2.22187M11.1115 6.66667V2.22187M33.3333 20H40M33.3333 28.8885H37.7781M33.3333 11.1115H37.7781M20 33.3333V40M11.1115 33.3333V37.7781M28.8885 33.3333V37.7781M6.66667 20H0M6.66667 11.1115H2.22187" stroke="#737790" stroke-width="2.13333" stroke-linecap="round" stroke-linejoin="round"/>
<path d="M31.1115 33.3334H8.88853C8.29926 33.3334 7.73412 33.0993 7.31744 32.6826C6.90076 32.2659 6.66667 31.7008 6.66667 31.1115V8.88855C6.66667 8.29928 6.90076 7.73414 7.31744 7.31746C7.73412 6.90078 8.29926 6.66669 8.88853 6.66669H31.1115C31.7007 6.66669 32.2659 6.90078 32.6826 7.31746C33.0992 7.73414 33.3333 8.29928 33.3333 8.88855V31.1115C33.3333 31.7008 33.0992 32.2659 32.6826 32.6826C32.2659 33.0993 31.7007 33.3334 31.1115 33.3334ZM24.4448 15.5552H15.5552V24.4448H24.4448V15.5552Z" stroke="#737790" stroke-width="2.13333" stroke-linecap="round" stroke-linejoin="round"/>
</g>
<defs>
<clipPath id="clip0_565_4457">
<rect width="40" height="40" fill="white"/>
</clipPath>
</defs>
</svg>
