<svg width="20" height="20" viewBox="0 0 20 20" fill="none" xmlns="http://www.w3.org/2000/svg">
<g clip-path="url(#clip0_2426_25577)">
<path d="M14.0007 8.66732H10.6673M16.6673 9.86598C16.6673 8.11132 16.6673 7.23332 16.154 6.66332C16.1069 6.61072 16.057 6.56065 16.0047 6.51332C15.4347 6.00065 14.5567 6.00065 12.802 6.00065H12.5527C11.784 6.00065 11.3993 6.00065 11.0407 5.89865C10.8438 5.84239 10.6541 5.76365 10.4753 5.66398C10.15 5.48332 9.87798 5.21065 9.33398 4.66732L8.96732 4.30065C8.78465 4.11798 8.69398 4.02732 8.59798 3.94732C8.18509 3.60508 7.67861 3.39528 7.14465 3.34532C7.02065 3.33398 6.89132 3.33398 6.63398 3.33398C6.04532 3.33398 5.75132 3.33398 5.50598 3.38065C4.97921 3.48013 4.49465 3.73608 4.11552 4.11509C3.73639 4.4941 3.4803 4.97858 3.38065 5.50532C3.33398 5.75132 3.33398 6.04598 3.33398 6.63398M10.334 16.6673H8.66732C6.15332 16.6673 4.89598 16.6673 4.11532 15.886C3.33465 15.1047 3.33398 13.848 3.33398 11.334V9.33398" stroke="white" stroke-width="1.25" stroke-linecap="round"/>
<path fill-rule="evenodd" clip-rule="evenodd" d="M15 18C14.8011 18 14.6103 17.921 14.4697 17.7803C14.329 17.6397 14.25 17.4489 14.25 17.25V15.75H12.75C12.5511 15.75 12.3603 15.671 12.2197 15.5303C12.079 15.3897 12 15.1989 12 15C12 14.8011 12.079 14.6103 12.2197 14.4697C12.3603 14.329 12.5511 14.25 12.75 14.25H14.25V12.75C14.25 12.5511 14.329 12.3603 14.4697 12.2197C14.6103 12.079 14.8011 12 15 12C15.1989 12 15.3897 12.079 15.5303 12.2197C15.671 12.3603 15.75 12.5511 15.75 12.75V14.25H17.25C17.4489 14.25 17.6397 14.329 17.7803 14.4697C17.921 14.6103 18 14.8011 18 15C18 15.1989 17.921 15.3897 17.7803 15.5303C17.6397 15.671 17.4489 15.75 17.25 15.75H15.75V17.25C15.75 17.4489 15.671 17.6397 15.5303 17.7803C15.3897 17.921 15.1989 18 15 18Z" fill="white"/>
</g>
<defs>
<clipPath id="clip0_2426_25577">
<rect width="16" height="16" fill="white" transform="translate(2 2)"/>
</clipPath>
</defs>
</svg>
