<svg width="24" height="24" viewBox="0 0 24 24" fill="none" xmlns="http://www.w3.org/2000/svg">
<g clip-path="url(#clip0_38_4413)">
<path d="M12.0059 20.798C7.15486 20.798 3.20586 16.849 3.20586 11.998C3.20586 7.14705 7.15486 3.19805 12.0059 3.19805C16.8569 3.19805 20.8059 7.14705 20.8059 11.998C20.8059 16.849 16.8569 20.798 12.0059 20.798ZM12.0059 0.998047C10.5613 0.998047 9.13092 1.28257 7.79634 1.83537C6.46176 2.38817 5.24913 3.19843 4.22768 4.21987C2.16478 6.28277 1.00586 9.08067 1.00586 11.998C1.00586 14.9154 2.16478 17.7133 4.22768 19.7762C5.24913 20.7977 6.46176 21.6079 7.79634 22.1607C9.13092 22.7135 10.5613 22.998 12.0059 22.998C14.9232 22.998 17.7211 21.8391 19.784 19.7762C21.8469 17.7133 23.0059 14.9154 23.0059 11.998C23.0059 10.5535 22.7213 9.12311 22.1685 7.78853C21.6157 6.45395 20.8055 5.24132 19.784 4.21987C18.7626 3.19843 17.55 2.38817 16.2154 1.83537C14.8808 1.28257 13.4504 0.998047 12.0059 0.998047Z" fill="#737790" stroke="white" stroke-width="0.65"/>
<path d="M12.8388 5.49805C12.5293 5.49805 12.2325 5.62642 12.0136 5.85491C11.7948 6.08341 11.6718 6.39332 11.6718 6.71646C11.6718 7.03961 11.7948 7.34952 12.0136 7.57802C12.2325 7.80651 12.5293 7.93488 12.8388 7.93488C13.1484 7.93488 13.4452 7.80651 13.664 7.57802C13.8829 7.34952 14.0059 7.03961 14.0059 6.71646C14.0059 6.39332 13.8829 6.08341 13.664 5.85491C13.4452 5.62642 13.1484 5.49805 12.8388 5.49805ZM12.5588 9.37261C11.6329 9.45384 9.10439 11.5576 9.10439 11.5576C8.94878 11.6795 8.99547 11.6714 9.11995 11.8988C9.24443 12.1181 9.22887 12.1344 9.37669 12.0288C9.53229 11.9232 9.78904 11.7526 10.2169 11.4764C11.8663 10.3717 10.4815 12.9223 9.77348 17.2192C9.49339 19.3474 11.3295 18.2508 11.8041 17.9259C12.2709 17.6091 13.5235 16.7075 13.648 16.6181C13.8191 16.4963 13.6947 16.3988 13.5624 16.1958C13.469 16.0577 13.3757 16.1551 13.3757 16.1551C12.87 16.5044 11.9441 17.2355 11.8196 16.7725C11.6718 16.3095 12.621 13.1335 13.1423 10.9484C13.2278 10.4286 13.4613 9.29139 12.5588 9.37261Z" fill="#737790"/>
</g>
<defs>
<clipPath id="clip0_38_4413">
<rect width="24" height="24" fill="white"/>
</clipPath>
</defs>
</svg>
