<svg width="16" height="16" viewBox="0 0 16 16" fill="none" xmlns="http://www.w3.org/2000/svg">
<g clip-path="url(#clip0_38_3393)">
<path d="M12.0008 6.66683H8.66752M14.6675 7.8655C14.6675 6.11083 14.6675 5.23283 14.1542 4.66283C14.1071 4.61023 14.0572 4.56016 14.0048 4.51283C13.4348 4.00016 12.5568 4.00016 10.8022 4.00016H10.5528C9.78418 4.00016 9.39952 4.00016 9.04085 3.89816C8.84402 3.8419 8.65433 3.76316 8.47552 3.6635C8.15018 3.48283 7.87818 3.21016 7.33418 2.66683L6.96752 2.30016C6.78485 2.1175 6.69418 2.02683 6.59818 1.94683C6.18529 1.60459 5.67881 1.39479 5.14485 1.34483C5.02085 1.3335 4.89152 1.3335 4.63418 1.3335C4.04552 1.3335 3.75152 1.3335 3.50618 1.38016C2.97941 1.47965 2.49485 1.73559 2.11572 2.1146C1.73659 2.49361 1.4805 2.97809 1.38085 3.50483C1.33418 3.75083 1.33418 4.0455 1.33418 4.6335M14.6615 10.6668C14.6375 12.3202 14.5148 13.2568 13.8862 13.8855C13.1055 14.6668 11.8482 14.6668 9.33418 14.6668H6.66752C4.15352 14.6668 2.89618 14.6668 2.11552 13.8855C1.33485 13.1042 1.33418 11.8475 1.33418 9.3335V7.3335" stroke="#727799" stroke-linecap="round"/>
</g>
<defs>
<clipPath id="clip0_38_3393">
<rect width="16" height="16" fill="white"/>
</clipPath>
</defs>
</svg>
