<svg width="24" height="24" viewBox="0 0 24 24" fill="none" xmlns="http://www.w3.org/2000/svg">
<path d="M14.2489 13.0549C15.0937 13.0549 15.9202 13.1951 16.7016 13.4658C16.784 13.4932 16.8601 13.5368 16.9254 13.594C16.9908 13.6512 17.0441 13.7209 17.0821 13.7989C17.1202 13.8769 17.1423 13.9618 17.1472 14.0485C17.1521 14.1352 17.1396 14.222 17.1105 14.3038C17.0495 14.4696 16.9256 14.6046 16.7657 14.6797C16.6058 14.7548 16.4227 14.7639 16.2562 14.7051C15.6107 14.4824 14.9327 14.3688 14.2499 14.3691C10.9217 14.3691 8.22517 17.0157 8.22517 20.2815C8.22517 20.4812 8.23477 20.6792 8.25397 20.8757C8.26971 21.0505 8.21548 21.2243 8.10317 21.3591C7.99087 21.4939 7.82967 21.5786 7.65496 21.5947C7.47974 21.6133 7.3043 21.5617 7.16703 21.4513C7.02976 21.3408 6.94184 21.1804 6.92251 21.0053C6.89897 20.7647 6.88679 20.5232 6.88603 20.2815C6.88603 16.291 10.1825 13.0549 14.2489 13.0549ZM19.4289 15.5691C19.6056 15.5708 19.7746 15.6414 19.9001 15.7658C20.0256 15.8902 20.0976 16.0587 20.1009 16.2353V18.4039L22.1302 18.3991C22.29 18.4025 22.4435 18.462 22.5638 18.5671C22.6842 18.6722 22.7638 18.8162 22.7887 18.9741L22.7964 19.072C22.7971 19.1586 22.7804 19.2444 22.7473 19.3244C22.7143 19.4044 22.6655 19.4769 22.604 19.5378C22.5424 19.5986 22.4693 19.6465 22.3889 19.6786C22.3085 19.7108 22.2225 19.7264 22.136 19.7248L20.1009 19.7296V22.0047C20.1027 22.0913 20.0871 22.1773 20.055 22.2578C20.0229 22.3382 19.975 22.4114 19.9142 22.473C19.8533 22.5346 19.7807 22.5833 19.7006 22.6163C19.6206 22.6493 19.5347 22.6659 19.4481 22.6651C19.2714 22.6634 19.1023 22.5928 18.9769 22.4684C18.8514 22.344 18.7794 22.1756 18.7761 21.9989L18.7752 19.7325L16.3657 19.7392C16.2062 19.7355 16.0531 19.6761 15.9329 19.5712C15.8128 19.4663 15.7332 19.3226 15.7081 19.1651L15.7004 19.0662C15.6998 18.9798 15.7164 18.894 15.7494 18.8141C15.7824 18.7342 15.8311 18.6616 15.8925 18.6008C15.954 18.54 16.027 18.4921 16.1073 18.4599C16.1876 18.4277 16.2734 18.4119 16.3599 18.4135L18.7752 18.4068V16.2286C18.7736 16.1421 18.7894 16.0561 18.8217 15.9758C18.8539 15.8954 18.9019 15.8224 18.9628 15.7609C19.0238 15.6994 19.0964 15.6508 19.1765 15.6178C19.2565 15.5849 19.3423 15.5683 19.4289 15.5691ZM8.5611 10.2893C8.64817 10.2884 8.73455 10.3047 8.81532 10.3372C8.89608 10.3698 8.96964 10.4179 9.03179 10.4789C9.09393 10.5399 9.14344 10.6125 9.17749 10.6926C9.21153 10.7728 9.22944 10.8588 9.2302 10.9459C9.22957 11.0331 9.21175 11.1192 9.17776 11.1995C9.14377 11.2797 9.09428 11.3525 9.03212 11.4136C8.96997 11.4746 8.89637 11.5229 8.81554 11.5555C8.73471 11.588 8.64825 11.6044 8.5611 11.6035C5.23293 11.6035 2.53641 14.2501 2.53641 17.5159C2.53641 17.7149 2.54601 17.9126 2.56521 18.1091C2.58121 18.284 2.5271 18.4581 2.41477 18.5931C2.30244 18.7281 2.14109 18.813 1.96619 18.8291C1.79098 18.8477 1.61554 18.7961 1.47826 18.6856C1.34099 18.5751 1.25307 18.4148 1.23374 18.2397C1.2102 17.9991 1.19803 17.7576 1.19727 17.5159C1.19727 13.5244 4.49472 10.2893 8.5611 10.2893ZM14.5004 5.24567C16.596 5.24567 18.2942 6.91312 18.2942 8.96839C18.2942 11.0237 16.595 12.6911 14.5004 12.6911C12.4058 12.6911 10.7076 11.0246 10.7076 8.96839C10.7076 6.91312 12.4058 5.24567 14.5004 5.24567ZM14.5004 6.55986C13.145 6.55986 12.0458 7.63789 12.0458 8.96935C12.0458 10.2989 13.145 11.3769 14.5004 11.3769C15.8559 11.3769 16.955 10.2989 16.955 8.96839C16.955 7.63789 15.8559 6.55986 14.5004 6.55986ZM8.90093 2.39844C10.0961 2.39844 11.2 2.94561 11.9133 3.85757C12.1379 4.14556 12.0822 4.55834 11.7885 4.77913C11.6471 4.88506 11.4699 4.93159 11.2948 4.90882C11.1196 4.88604 10.9602 4.79577 10.8506 4.65722C10.6189 4.3618 10.3229 4.12316 9.985 3.95946C9.64713 3.79577 9.27636 3.71134 8.90093 3.71262C7.54547 3.71262 6.44632 4.79065 6.44632 6.12116C6.44632 7.28462 7.293 8.27626 8.44399 8.48841C8.80685 8.55561 9.04684 8.89831 8.97869 9.25542C8.94367 9.42825 8.84183 9.58028 8.69532 9.67843C8.54882 9.77658 8.36948 9.81292 8.19632 9.77956C6.4156 9.45125 5.10718 7.91916 5.10718 6.12116C5.10718 4.06492 6.8063 2.39844 8.90093 2.39844Z" fill="#737790"/>
</svg>
