<svg width="24" height="24" viewBox="0 0 24 24" fill="none" xmlns="http://www.w3.org/2000/svg">
<path d="M9 16.1698L5.53 12.6998C5.34302 12.5129 5.08943 12.4078 4.825 12.4078C4.56057 12.4078 4.30698 12.5129 4.12 12.6998C3.93302 12.8868 3.82798 13.1404 3.82798 13.4048C3.82798 13.5358 3.85377 13.6654 3.90387 13.7864C3.95398 13.9073 4.02742 14.0173 4.12 14.1098L8.3 18.2898C8.69 18.6798 9.32 18.6798 9.71 18.2898L20.29 7.70983C20.477 7.52286 20.582 7.26926 20.582 7.00483C20.582 6.74041 20.477 6.48681 20.29 6.29983C20.103 6.11286 19.8494 6.00781 19.585 6.00781C19.3206 6.00781 19.067 6.11286 18.88 6.29983L9 16.1698Z" fill="#737790"/>
</svg>
