<svg width="24" height="24" viewBox="0 0 24 24" fill="none" xmlns="http://www.w3.org/2000/svg">
<path d="M12.6942 11.9686V8.87501H14.2661C14.4695 8.85835 14.674 8.88608 14.8656 8.95627C15.0572 9.02647 15.2313 9.13745 15.3758 9.28155C15.5203 9.42566 15.6319 9.59944 15.7027 9.7909C15.7735 9.98236 15.8019 10.1869 15.786 10.3905C15.8041 10.5981 15.7766 10.8071 15.7053 11.0029C15.6341 11.1987 15.5208 11.3766 15.3736 11.5239C15.2263 11.6713 15.0486 11.7846 14.8529 11.8559C14.6572 11.9272 14.4483 11.9547 14.2408 11.9366H12.6942V11.9686ZM11.0224 16.5136H12.6942V13.3893H14.5608C14.9503 13.4016 15.3382 13.3326 15.6998 13.187C16.0613 13.0413 16.3887 12.822 16.661 12.5431C16.9334 12.2641 17.1449 11.9316 17.2821 11.5665C17.4193 11.2015 17.4791 10.8119 17.4579 10.4225C17.4808 10.0337 17.4216 9.64445 17.2843 9.28004C17.147 8.91564 16.9345 8.58425 16.6607 8.30742C16.387 8.0306 16.058 7.81453 15.6953 7.67329C15.3326 7.53205 14.9442 7.46879 14.5554 7.48762H11.0224V16.5136ZM7.58398 16.5136H9.25585V7.48762H7.58398V16.5136Z" fill="#445B45"/>
<path d="M12 21C9.38697 21 7.32017 20.7269 5.94234 20.4661C4.70527 20.232 3.76802 19.2947 3.53389 18.0577C3.27312 16.6798 3 14.613 3 12C3 9.38697 3.27312 7.32017 3.53389 5.94234C3.76802 4.70527 4.70527 3.76802 5.94234 3.53389C7.32017 3.27312 9.38697 3 12 3C14.613 3 16.6798 3.27312 18.0577 3.53389C19.2947 3.76802 20.232 4.70527 20.4661 5.94234C20.7269 7.32017 21 9.38697 21 12" stroke="#445B45" stroke-width="1.75" stroke-linecap="round"/>
<circle cx="19" cy="19" r="5" fill="#65C13B"/>
</svg>
