<svg width="28" height="24" viewBox="0 0 28 24" fill="none" xmlns="http://www.w3.org/2000/svg">
<g clip-path="url(#clip0_1620_9157)">
<path d="M14.4227 7.65378L23.3571 23.1328C23.579 23.5261 24.1437 23.5361 24.3958 23.163L27.7034 18.0504C27.8244 17.8588 27.8345 17.6168 27.7235 17.4151L17.821 0.302521C17.5891 -0.10084 17.0042 -0.10084 16.7723 0.302521L13.858 5.32437C13.7471 5.51597 13.5454 5.62689 13.3336 5.62689H7.24286C7.02101 5.62689 6.82941 5.73782 6.71849 5.92941L0.0831933 17.4454C-0.0277311 17.637 -0.0277311 17.8588 0.0831933 18.0504L3.33025 23.6975C3.44118 23.8891 3.64286 24 3.85462 24H16.8832C17.3471 24 17.6395 23.4958 17.4076 23.0924L14.4126 17.9193C14.1807 17.516 13.5958 17.516 13.3639 17.9193L11.0345 21.9731C10.8025 22.3765 10.2176 22.3765 9.98571 21.9731L7.72689 18.0504C7.61597 17.8588 7.61597 17.637 7.72689 17.4454L13.3639 7.66387C13.5958 7.2605 14.1807 7.2605 14.4126 7.66387L14.4227 7.65378Z" fill="#FF802C"/>
</g>
<defs>
<clipPath id="clip0_1620_9157">
<rect width="27.8008" height="24" fill="white"/>
</clipPath>
</defs>
</svg>
