<svg width="24" height="24" viewBox="0 0 24 24" fill="none" xmlns="http://www.w3.org/2000/svg">
<path d="M6.48692 3.65802C6.31069 3.46327 6.09782 3.30513 5.86047 3.19265C5.62313 3.08017 5.36595 3.01553 5.10362 3.00244C4.8413 2.98935 4.57896 3.02805 4.33159 3.11634C4.08423 3.20463 3.85667 3.34078 3.66192 3.51702C3.46717 3.69325 3.30904 3.90612 3.19656 4.14346C3.08407 4.38081 3.01944 4.63799 3.00634 4.90031C2.99325 5.16264 3.03196 5.42497 3.12025 5.67234C3.20854 5.91971 3.34469 6.14727 3.52092 6.34202C3.87684 6.73533 4.37443 6.97115 4.90422 6.99759C5.43401 7.02404 5.95261 6.83894 6.34592 6.48302C6.73924 6.1271 6.97506 5.62951 7.0015 5.09972C7.02794 4.56993 6.84284 4.05133 6.48692 3.65802ZM6.48692 3.65802C8.1222 2.57343 10.0417 1.99658 12.0039 2.00002C12.6906 2.00135 13.3573 2.06802 14.0039 2.20002M20.3569 6.50002C21.4344 8.13169 22.0073 10.0447 22.0039 12C22.0026 12.6867 21.9359 13.3533 21.8039 14M17.5209 20.342C15.8856 21.4266 13.9662 22.0035 12.0039 22C11.3173 21.9987 10.6506 21.932 10.0039 21.8M17.5209 20.342C17.6972 20.5368 17.91 20.6949 18.1474 20.8074C18.3847 20.9199 18.6419 20.9845 18.9042 20.9976C19.1665 21.0107 19.4289 20.972 19.6763 20.8837C19.9236 20.7954 20.1512 20.6593 20.3459 20.483C20.5407 20.3068 20.6988 20.0939 20.8113 19.8566C20.9238 19.6192 20.9884 19.362 21.0015 19.0997C21.0146 18.8374 20.9759 18.5751 20.8876 18.3277C20.7993 18.0803 20.6632 17.8528 20.4869 17.658C20.131 17.2647 19.6334 17.0289 19.1036 17.0024C18.5738 16.976 18.0552 17.1611 17.6619 17.517C17.2686 17.8729 17.0328 18.3705 17.0063 18.9003C16.9799 19.4301 17.165 19.9487 17.5209 20.342ZM3.66192 17.517C2.57734 15.8817 2.00049 13.9623 2.00392 12C2.00525 11.3133 2.07192 10.6467 2.20392 10M3.66192 17.517C3.26861 17.8729 3.03279 18.3705 3.00634 18.9003C2.9799 19.4301 3.165 19.9487 3.52092 20.342C3.87684 20.7353 4.37443 20.9712 4.90422 20.9976C5.43401 21.024 5.95261 20.8389 6.34592 20.483C6.54067 20.3068 6.6988 20.0939 6.81129 19.8566C6.92377 19.6192 6.98841 19.362 7.0015 19.0997C7.01459 18.8374 6.97589 18.5751 6.8876 18.3277C6.79931 18.0803 6.66316 17.8528 6.48692 17.658C6.31069 17.4633 6.09782 17.3051 5.86047 17.1927C5.62313 17.0802 5.36595 17.0155 5.10362 17.0024C4.57383 16.976 4.05524 17.1611 3.66192 17.517ZM8.00392 10.478C9.15292 9.54302 10.5239 9.00002 11.9989 9.00002C13.4769 9.00002 14.8529 9.54702 16.0039 10.487M14.1779 13C13.5261 12.5856 12.7704 12.3637 11.9979 12.36C11.2295 12.3638 10.4775 12.5835 9.82792 12.994M12.0039 16H12.0099M21.0039 5.00002C21.0039 5.53045 20.7932 6.03916 20.4181 6.41423C20.0431 6.7893 19.5344 7.00002 19.0039 7.00002C18.4735 7.00002 17.9648 6.7893 17.5897 6.41423C17.2146 6.03916 17.0039 5.53045 17.0039 5.00002C17.0039 4.46958 17.2146 3.96087 17.5897 3.5858C17.9648 3.21073 18.4735 3.00002 19.0039 3.00002C19.5344 3.00002 20.0431 3.21073 20.4181 3.5858C20.7932 3.96087 21.0039 4.46958 21.0039 5.00002Z" stroke="#727799" stroke-width="1.5" stroke-linecap="round" stroke-linejoin="round"/>
</svg>
