<svg width="40" height="40" viewBox="0 0 40 40" fill="none" xmlns="http://www.w3.org/2000/svg">
<path d="M36.25 9.0625H3.75C3.16984 9.0625 2.61344 9.29297 2.2032 9.7032C1.79297 10.1134 1.5625 10.6698 1.5625 11.25V31.25C1.5625 31.4986 1.66127 31.7371 1.83709 31.9129C2.0129 32.0887 2.25136 32.1875 2.5 32.1875C2.74864 32.1875 2.9871 32.0887 3.16291 31.9129C3.33873 31.7371 3.4375 31.4986 3.4375 31.25V28.4375H6.5625V31.25C6.5625 31.4986 6.66127 31.7371 6.83709 31.9129C7.0129 32.0887 7.25136 32.1875 7.5 32.1875C7.74864 32.1875 7.9871 32.0887 8.16291 31.9129C8.33873 31.7371 8.4375 31.4986 8.4375 31.25V28.4375H11.5625V31.25C11.5625 31.4986 11.6613 31.7371 11.8371 31.9129C12.0129 32.0887 12.2514 32.1875 12.5 32.1875C12.7486 32.1875 12.9871 32.0887 13.1629 31.9129C13.3387 31.7371 13.4375 31.4986 13.4375 31.25V28.4375H16.5625V31.25C16.5625 31.4986 16.6613 31.7371 16.8371 31.9129C17.0129 32.0887 17.2514 32.1875 17.5 32.1875C17.7486 32.1875 17.9871 32.0887 18.1629 31.9129C18.3387 31.7371 18.4375 31.4986 18.4375 31.25V28.4375H21.5625V31.25C21.5625 31.4986 21.6613 31.7371 21.8371 31.9129C22.0129 32.0887 22.2514 32.1875 22.5 32.1875C22.7486 32.1875 22.9871 32.0887 23.1629 31.9129C23.3387 31.7371 23.4375 31.4986 23.4375 31.25V28.4375H26.5625V31.25C26.5625 31.4986 26.6613 31.7371 26.8371 31.9129C27.0129 32.0887 27.2514 32.1875 27.5 32.1875C27.7486 32.1875 27.9871 32.0887 28.1629 31.9129C28.3387 31.7371 28.4375 31.4986 28.4375 31.25V28.4375H31.5625V31.25C31.5625 31.4986 31.6613 31.7371 31.8371 31.9129C32.0129 32.0887 32.2514 32.1875 32.5 32.1875C32.7486 32.1875 32.9871 32.0887 33.1629 31.9129C33.3387 31.7371 33.4375 31.4986 33.4375 31.25V28.4375H36.5625V31.25C36.5625 31.4986 36.6613 31.7371 36.8371 31.9129C37.0129 32.0887 37.2514 32.1875 37.5 32.1875C37.7486 32.1875 37.9871 32.0887 38.1629 31.9129C38.3387 31.7371 38.4375 31.4986 38.4375 31.25V11.25C38.4375 10.6698 38.207 10.1134 37.7968 9.7032C37.3866 9.29297 36.8302 9.0625 36.25 9.0625ZM3.4375 11.25C3.4375 11.1671 3.47042 11.0876 3.52903 11.029C3.58763 10.9704 3.66712 10.9375 3.75 10.9375H36.25C36.3329 10.9375 36.4124 10.9704 36.471 11.029C36.5296 11.0876 36.5625 11.1671 36.5625 11.25V26.5625H3.4375V11.25ZM17.5 23.4375C17.7486 23.4375 17.9871 23.3387 18.1629 23.1629C18.3387 22.9871 18.4375 22.7486 18.4375 22.5V15C18.4375 14.7514 18.3387 14.5129 18.1629 14.3371C17.9871 14.1613 17.7486 14.0625 17.5 14.0625H7.5C7.25136 14.0625 7.0129 14.1613 6.83709 14.3371C6.66127 14.5129 6.5625 14.7514 6.5625 15V22.5C6.5625 22.7486 6.66127 22.9871 6.83709 23.1629C7.0129 23.3387 7.25136 23.4375 7.5 23.4375H17.5ZM8.4375 15.9375H16.5625V21.5625H8.4375V15.9375ZM22.5 23.4375H32.5C32.7486 23.4375 32.9871 23.3387 33.1629 23.1629C33.3387 22.9871 33.4375 22.7486 33.4375 22.5V15C33.4375 14.7514 33.3387 14.5129 33.1629 14.3371C32.9871 14.1613 32.7486 14.0625 32.5 14.0625H22.5C22.2514 14.0625 22.0129 14.1613 21.8371 14.3371C21.6613 14.5129 21.5625 14.7514 21.5625 15V22.5C21.5625 22.7486 21.6613 22.9871 21.8371 23.1629C22.0129 23.3387 22.2514 23.4375 22.5 23.4375ZM23.4375 15.9375H31.5625V21.5625H23.4375V15.9375Z" fill="#737790"/>
</svg>
