<svg width="24" height="24" viewBox="0 0 24 24" fill="none" xmlns="http://www.w3.org/2000/svg">
<path d="M7.99609 11.0039C7.44381 11.0039 6.99609 11.4516 6.99609 12.0039C6.99609 12.5562 7.44381 13.0039 7.99609 13.0039H15.9961C16.5484 13.0039 16.9961 12.5562 16.9961 12.0039C16.9961 11.4516 16.5484 11.0039 15.9961 11.0039H7.99609Z" fill="#737790"/>
<path fill-rule="evenodd" clip-rule="evenodd" d="M22.9961 11.9961C22.9961 18.0712 18.0712 22.9961 11.9961 22.9961C5.92096 22.9961 0.996094 18.0712 0.996094 11.9961C0.996094 5.92096 5.92096 0.996094 11.9961 0.996094C18.0712 0.996094 22.9961 5.92096 22.9961 11.9961ZM20.9961 11.9961C20.9961 16.9667 16.9667 20.9961 11.9961 20.9961C7.02553 20.9961 2.99609 16.9667 2.99609 11.9961C2.99609 7.02553 7.02553 2.99609 11.9961 2.99609C16.9667 2.99609 20.9961 7.02553 20.9961 11.9961Z" fill="#737790"/>
</svg>
