<svg width="24" height="24" viewBox="0 0 24 24" fill="none" xmlns="http://www.w3.org/2000/svg">
<path fill-rule="evenodd" clip-rule="evenodd" d="M11.3181 3C6.72469 3 3 6.72289 3 11.3163C3 15.9096 6.72469 19.6325 11.3181 19.6325C13.2909 19.6367 15.2003 18.9357 16.7019 17.656L19.8321 20.7853C19.8939 20.8516 19.9683 20.9048 20.0511 20.9416C20.1338 20.9785 20.2231 20.9983 20.3137 20.9999C20.4042 21.0015 20.4942 20.9848 20.5782 20.9509C20.6621 20.917 20.7384 20.8665 20.8025 20.8025C20.8665 20.7384 20.917 20.6621 20.9509 20.5782C20.9848 20.4942 21.0015 20.4042 20.9999 20.3137C20.9983 20.2231 20.9785 20.1338 20.9416 20.0511C20.9048 19.9683 20.8516 19.8939 20.7853 19.8321L17.656 16.7028C18.9376 15.201 19.6399 13.2905 19.6361 11.3163C19.6361 6.72289 15.9114 3 11.3181 3ZM4.34887 11.3163C4.34935 9.46822 5.08381 7.69605 6.39073 6.38946C7.69766 5.08288 9.47002 4.34887 11.3181 4.34887C12.2424 4.33402 13.1605 4.50326 14.0189 4.84674C14.8772 5.19022 15.6586 5.70106 16.3176 6.34951C16.9765 6.99797 17.4999 7.77107 17.8571 8.62377C18.2143 9.47648 18.3983 10.3917 18.3983 11.3163C18.3983 12.2408 18.2143 13.156 17.8571 14.0087C17.4999 14.8614 16.9765 15.6345 16.3176 16.283C15.6586 16.9314 14.8772 17.4423 14.0189 17.7858C13.1605 18.1292 12.2424 18.2985 11.3181 18.2836C9.47002 18.2836 7.69766 17.5496 6.39073 16.243C5.08381 14.9365 4.34935 13.1643 4.34887 11.3163Z" fill="#9AA1B7"/>
</svg>
