<svg width="24" height="24" viewBox="0 0 24 24" fill="none" xmlns="http://www.w3.org/2000/svg">
<path d="M12.0037 19.7995C13.2343 19.7995 14.2319 18.8016 14.2319 17.5706C14.2319 16.3397 13.2343 15.3418 12.0037 15.3418C10.773 15.3418 9.77539 16.3397 9.77539 17.5706C9.77539 18.8016 10.773 19.7995 12.0037 19.7995Z" fill="#44475B"/>
<path d="M1.97461 9.10609C3.22923 7.56453 4.77221 6.3299 6.50104 5.48422C8.22987 4.63854 10.105 4.20117 12.0018 4.20117C13.8986 4.20117 15.7737 4.63854 17.5025 5.48422C19.2314 6.3299 20.7743 7.56453 22.029 9.10609L20.3578 10.6663C19.3122 9.35003 18.0264 8.29584 16.5857 7.57376C15.145 6.85168 13.5825 6.47824 12.0018 6.47824C10.4211 6.47824 8.85852 6.85168 7.41783 7.57376C5.97714 8.29584 4.69133 9.35003 3.6458 10.6663L1.97461 9.10609ZM6.09689 12.6722C6.82898 11.7672 7.74166 11.0397 8.77118 10.5408C9.80071 10.0418 10.9223 9.78323 12.0575 9.78323C13.1927 9.78323 14.3143 10.0418 15.3438 10.5408C16.3733 11.0397 17.286 11.7672 18.0181 12.6722L16.4583 14.2324C15.9363 13.5426 15.2749 12.9859 14.5229 12.6033C13.7708 12.2207 12.9473 12.0221 12.1132 12.0221C11.2791 12.0221 10.4556 12.2207 9.70354 12.6033C8.95149 12.9859 8.29007 13.5426 7.76809 14.2324L6.09689 12.6722Z" fill="#44475B"/>
</svg>
