<svg width="24" height="24" viewBox="0 0 24 24" fill="none" xmlns="http://www.w3.org/2000/svg">
<path d="M13.0558 20.4467L14.5927 19.3717C16.5579 17.9964 18.0791 16.0774 18.9695 13.8502C19.86 11.623 20.0811 9.18424 19.6058 6.83316C19.5821 6.71738 19.5322 6.60856 19.46 6.51507C19.3877 6.42158 19.2949 6.3459 19.1889 6.29385L12.0002 2.77911L4.81241 6.29385C4.70615 6.34579 4.61322 6.42142 4.54078 6.51492C4.46835 6.60842 4.41833 6.71729 4.39458 6.83316C3.91931 9.18433 4.14057 11.6231 5.03121 13.8504C5.92185 16.0776 7.44315 17.9965 9.40853 19.3717L10.9455 20.4467C11.2548 20.6631 11.6231 20.7791 12.0006 20.7791C12.3781 20.7791 12.7465 20.6631 13.0558 20.4467Z" stroke="#44475B" stroke-width="1.5" stroke-linecap="round" stroke-linejoin="round"/>
</svg>
