<svg width="20" height="20" viewBox="0 0 20 20" fill="none" xmlns="http://www.w3.org/2000/svg">
<path d="M10 10.0009C9.76389 10.0009 9.56611 9.92094 9.40667 9.76094C9.24722 9.60094 9.16722 9.40316 9.16667 9.16761V2.50094C9.16667 2.26483 9.24667 2.06705 9.40667 1.90761C9.56667 1.74816 9.76444 1.66816 10 1.66761C10.2356 1.66705 10.4336 1.74705 10.5942 1.90761C10.7547 2.06816 10.8344 2.26594 10.8333 2.50094V9.16761C10.8333 9.40372 10.7533 9.60177 10.5933 9.76177C10.4333 9.92177 10.2356 10.0015 10 10.0009ZM10 17.5009C8.95833 17.5009 7.98278 17.3032 7.07333 16.9076C6.16389 16.5121 5.37222 15.9773 4.69833 15.3034C4.02444 14.6296 3.48972 13.8379 3.09417 12.9284C2.69861 12.019 2.50056 11.0432 2.5 10.0009C2.5 9.15372 2.63889 8.33066 2.91667 7.53177C3.19444 6.73288 3.59722 6.00038 4.125 5.33427C4.27778 5.13983 4.47222 5.04622 4.70833 5.05344C4.94444 5.06066 5.15278 5.15427 5.33333 5.33427C5.48611 5.48705 5.55556 5.67455 5.54167 5.89677C5.52778 6.11899 5.45139 6.32733 5.3125 6.52177C4.9375 7.02177 4.65278 7.57038 4.45833 8.16761C4.26389 8.76483 4.16667 9.37594 4.16667 10.0009C4.16667 11.6259 4.73278 13.0046 5.865 14.1368C6.99722 15.269 8.37556 15.8348 10 15.8343C11.6244 15.8337 13.0031 15.2679 14.1358 14.1368C15.2686 13.0057 15.8344 11.6271 15.8333 10.0009C15.8333 9.36205 15.7397 8.74038 15.5525 8.13594C15.3653 7.5315 15.07 6.97955 14.6667 6.48011C14.5278 6.29955 14.4514 6.10177 14.4375 5.88677C14.4236 5.67177 14.4931 5.48761 14.6458 5.33427C14.8125 5.16761 15.0139 5.08094 15.25 5.07427C15.4861 5.06761 15.6806 5.15427 15.8333 5.33427C16.375 6.00094 16.7883 6.73011 17.0733 7.52177C17.3583 8.31344 17.5006 9.13983 17.5 10.0009C17.5 11.0426 17.3022 12.0184 16.9067 12.9284C16.5111 13.8384 15.9764 14.6301 15.3025 15.3034C14.6286 15.9768 13.8369 16.5115 12.9275 16.9076C12.0181 17.3037 11.0422 17.5015 10 17.5009Z" fill="#727799"/>
</svg>
