<svg width="18" height="18" viewBox="0 0 18 18" fill="none" xmlns="http://www.w3.org/2000/svg">
<path d="M12.4534 8.28695C12.9102 7.50852 13.1075 6.60493 13.0167 5.70695C12.8824 4.36895 12.1354 3.1862 10.9144 2.37695L10.0857 3.62645C10.9249 4.18295 11.4357 4.9757 11.5242 5.85695C11.565 6.26653 11.514 6.68005 11.3749 7.06744C11.2358 7.45483 11.0122 7.80636 10.7202 8.09645L9.82617 8.99045L11.0397 9.3467C14.2137 10.2767 14.2504 13.4687 14.2504 13.501H15.7504C15.7504 12.1592 15.0334 9.5372 12.4534 8.28695Z" fill="#737790"/>
<path d="M7.125 9C8.7795 9 10.125 7.6545 10.125 6C10.125 4.3455 8.7795 3 7.125 3C5.4705 3 4.125 4.3455 4.125 6C4.125 7.6545 5.4705 9 7.125 9ZM7.125 4.5C7.95225 4.5 8.625 5.17275 8.625 6C8.625 6.82725 7.95225 7.5 7.125 7.5C6.29775 7.5 5.625 6.82725 5.625 6C5.625 5.17275 6.29775 4.5 7.125 4.5ZM8.25 9.75H6C3.51825 9.75 1.5 11.7682 1.5 14.25V15H3V14.25C3 12.5955 4.3455 11.25 6 11.25H8.25C9.9045 11.25 11.25 12.5955 11.25 14.25V15H12.75V14.25C12.75 11.7682 10.7318 9.75 8.25 9.75Z" fill="#737790"/>
</svg>
