<svg width="24" height="24" viewBox="0 0 24 24" fill="none" xmlns="http://www.w3.org/2000/svg">
<path d="M16.5987 11.0538C17.2077 10.0159 17.4708 8.81114 17.3497 7.61383C17.1707 5.82983 16.1747 4.25283 14.5467 3.17383L13.4417 4.83983C14.5607 5.58183 15.2417 6.63883 15.3597 7.81383C15.4141 8.35993 15.3461 8.91129 15.1607 9.42781C14.9753 9.94433 14.677 10.413 14.2877 10.7998L13.0957 11.9918L14.7137 12.4668C18.9457 13.7068 18.9947 17.9628 18.9947 18.0058H20.9947C20.9947 16.2168 20.0387 12.7208 16.5987 11.0538Z" fill="#737790"/>
<path d="M9.50391 11.9961C11.7099 11.9961 13.5039 10.2021 13.5039 7.99609C13.5039 5.79009 11.7099 3.99609 9.50391 3.99609C7.29791 3.99609 5.50391 5.79009 5.50391 7.99609C5.50391 10.2021 7.29791 11.9961 9.50391 11.9961ZM9.50391 5.99609C10.6069 5.99609 11.5039 6.89309 11.5039 7.99609C11.5039 9.09909 10.6069 9.99609 9.50391 9.99609C8.40091 9.99609 7.50391 9.09909 7.50391 7.99609C7.50391 6.89309 8.40091 5.99609 9.50391 5.99609ZM11.0039 12.9961H8.00391C4.69491 12.9961 2.00391 15.6871 2.00391 18.9961V19.9961H4.00391V18.9961C4.00391 16.7901 5.79791 14.9961 8.00391 14.9961H11.0039C13.2099 14.9961 15.0039 16.7901 15.0039 18.9961V19.9961H17.0039V18.9961C17.0039 15.6871 14.3129 12.9961 11.0039 12.9961Z" fill="#737790"/>
</svg>
