<svg width="72" height="72" viewBox="0 0 72 72" fill="none" xmlns="http://www.w3.org/2000/svg">
<path d="M54 68.25C50.658 68.25 47.823 67.086 45.495 64.758C43.165 62.426 42 59.59 42 56.25C42 52.91 43.165 50.075 45.495 47.745C47.825 45.415 50.66 44.25 54 44.25C57.34 44.25 60.176 45.415 62.508 47.745C64.84 50.075 66.004 52.91 66 56.25C65.996 59.59 64.832 62.426 62.508 64.758C60.184 67.09 57.348 68.254 54 68.25ZM52.845 59.61L48.843 55.602C48.619 55.38 48.355 55.26 48.051 55.242C47.749 55.222 47.467 55.342 47.205 55.602C46.943 55.866 46.812 56.14 46.812 56.424C46.812 56.708 46.942 56.981 47.202 57.243L52.302 62.343C52.564 62.603 52.834 62.787 53.112 62.895C53.392 62.999 53.69 63.051 54.006 63.051C54.322 63.051 54.618 62.999 54.894 62.895C55.17 62.791 55.438 62.607 55.698 62.343L60.798 57.243C61.02 57.019 61.14 56.755 61.158 56.451C61.178 56.149 61.058 55.867 60.798 55.605C60.534 55.343 60.26 55.212 59.976 55.212C59.692 55.212 59.412 55.349 59.136 55.623L55.152 59.607V49.617C55.152 49.307 55.037 49.037 54.807 48.807C54.577 48.577 54.308 48.462 54 48.462C53.692 48.462 53.422 48.577 53.19 48.807C52.962 49.039 52.848 49.309 52.848 49.617L52.845 59.61Z" fill="url(#paint0_linear_654_179)"/>
<path d="M14.2368 20.651L14.2368 20.651L33.3855 9.61887C33.3861 9.61855 33.3866 9.61823 33.3872 9.6179C33.8337 9.35479 34.2667 9.1667 34.685 9.0621C35.0951 8.95959 35.5346 8.91078 36.0017 8.91291C36.4669 8.91502 36.914 8.96368 37.3423 9.06005L37.345 9.06065L37.345 9.06066C37.7927 9.16483 38.2195 9.35384 38.6248 9.62307L57.7662 20.651L57.7692 20.6527C58.5905 21.1361 59.2342 21.777 59.6922 22.5741C60.1496 23.3704 60.3771 24.2383 60.375 25.1708M14.2368 20.651L60 25.1699M14.2368 20.651L14.2338 20.6527C13.4125 21.1361 12.7688 21.777 12.3108 22.5741C11.8535 23.3701 11.625 24.2377 11.625 25.1699V46.8299C11.625 47.7621 11.8535 48.6297 12.3108 49.4257C12.7688 50.2228 13.4125 50.8637 14.2338 51.3471L14.2376 51.3493L32.4686 61.7953L32.4708 61.7965C33.0782 62.1391 33.7071 62.1534 34.307 61.8188M14.2368 20.651L34.307 61.8188M60.375 25.1708L60 25.1699M60.375 25.1708V25.1699H60M60.375 25.1708V34.0349C60.375 34.5553 60.195 35.0092 59.8332 35.3711C59.4709 35.7334 59.0162 35.9124 58.4952 35.9099C57.9771 35.9075 57.5249 35.7296 57.1648 35.372C56.8028 35.0125 56.625 34.5574 56.625 34.0349V26.2185M60 25.1699V34.0349C60 34.4609 59.856 34.8179 59.568 35.1059C59.28 35.3939 58.923 35.5369 58.497 35.5349C58.071 35.5329 57.715 35.3899 57.429 35.1059C57.143 34.8219 57 34.4649 57 34.0349V26.0019L56.625 26.2185M56.625 26.2185V25.7854L57 25.5689L38.349 36.3389C37.579 36.7749 36.768 36.9929 35.916 36.9929C35.064 36.9929 34.259 36.7759 33.501 36.3419L15.375 25.7873V26.2212M56.625 26.2185L38.5365 36.6637L38.5338 36.6652C37.7097 37.1319 36.8353 37.3679 35.916 37.3679C34.9969 37.3679 34.1279 37.133 33.3147 36.6673L33.3123 36.666L15.375 26.2212M15.375 26.2212L15 26.0028V46.8089C15 47.1189 15.077 47.4089 15.231 47.6789C15.385 47.9489 15.615 48.1789 15.921 48.3689M15.375 26.2212V46.8089C15.375 47.0536 15.4349 47.2796 15.5567 47.4931C15.6746 47.6997 15.8554 47.8859 16.1145 48.0476M16.1145 48.0476L16.1097 48.0448L15.921 48.3689M16.1145 48.0476C16.1159 48.0485 16.1174 48.0494 16.1188 48.0503L15.921 48.3689M16.1145 48.0476L34.2818 58.6231L34.098 58.9499M15.921 48.3689L34.098 58.9499M34.098 58.9499L34.2867 58.6258L34.2843 58.6244M34.098 58.9499C34.322 59.0759 34.502 59.2509 34.638 59.4749C34.774 59.6989 34.844 59.9489 34.848 60.2249C34.848 60.8029 34.607 61.2249 34.125 61.4909L34.2843 58.6244M34.2843 58.6244C34.5645 58.7826 34.7903 59.0031 34.9585 59.2803C35.1311 59.5645 35.218 59.8804 35.223 60.2195L35.223 60.2249C35.223 60.5668 35.1514 60.8834 34.9929 61.1609C34.834 61.4391 34.5997 61.6571 34.307 61.8188M34.2843 58.6244L34.307 61.8188M35.2638 12.8435L35.2639 12.8436L35.2744 12.8371C35.5315 12.6768 35.7717 12.6089 36 12.6089C36.2262 12.6089 36.4664 12.6785 36.7256 12.8401L36.7255 12.8403L36.7361 12.8464L54.526 23.1446L36.0001 33.8508L17.4739 23.1388L35.2638 12.8435Z" fill="url(#paint1_linear_654_179)" stroke="url(#paint2_linear_654_179)" stroke-width="0.75"/>
<defs>
<linearGradient id="paint0_linear_654_179" x1="39" y1="9.28784" x2="39" y2="68.2499" gradientUnits="userSpaceOnUse">
<stop stop-color="#3D98FF"/>
<stop offset="1" stop-color="#1F77DB"/>
</linearGradient>
<linearGradient id="paint1_linear_654_179" x1="39" y1="9.28784" x2="39" y2="68.2499" gradientUnits="userSpaceOnUse">
<stop stop-color="#3D98FF"/>
<stop offset="1" stop-color="#1F77DB"/>
</linearGradient>
<linearGradient id="paint2_linear_654_179" x1="36" y1="9.28784" x2="36" y2="61.6868" gradientUnits="userSpaceOnUse">
<stop stop-color="#3E98FF"/>
<stop offset="1" stop-color="#237CE0"/>
</linearGradient>
</defs>
</svg>
