<svg width="16" height="17" viewBox="0 0 16 17" fill="none" xmlns="http://www.w3.org/2000/svg">
<path d="M5.5 13C5.5 13.5304 5.28929 14.0391 4.91421 14.4142C4.53914 14.7893 4.03043 15 3.5 15C2.96957 15 2.46086 14.7893 2.08579 14.4142C1.71071 14.0391 1.5 13.5304 1.5 13C1.5 12.4696 1.71071 11.9609 2.08579 11.5858C2.46086 11.2107 2.96957 11 3.5 11C4.03043 11 4.53914 11.2107 4.91421 11.5858C5.28929 11.9609 5.5 12.4696 5.5 13ZM14.5 11C14.5 11.5304 14.2893 12.0391 13.9142 12.4142C13.5391 12.7893 13.0304 13 12.5 13C11.9696 13 11.4609 12.7893 11.0858 12.4142C10.7107 12.0391 10.5 11.5304 10.5 11C10.5 10.4696 10.7107 9.96086 11.0858 9.58579C11.4609 9.21071 11.9696 9 12.5 9C13.0304 9 13.5391 9.21071 13.9142 9.58579C14.2893 9.96086 14.5 10.4696 14.5 11Z" stroke="#44475B" stroke-linecap="round" stroke-linejoin="round"/>
<path d="M5.5 13V5.5C5.5 4.96 5.94 4.29 6.85 4L13.15 2C14.05 2 14.5 2.88 14.5 3.5V11.08M5.5 8L14.5 5" stroke="#44475B" stroke-linecap="round" stroke-linejoin="round"/>
</svg>
