<svg width="18" height="19" viewBox="0 0 18 19" fill="none" xmlns="http://www.w3.org/2000/svg">
<path d="M5.58774 10.3136L9.57719 14.303C9.74003 14.4659 9.81819 14.6558 9.81168 14.8729C9.80516 15.0901 9.72022 15.28 9.55684 15.4429C9.394 15.5921 9.20403 15.6703 8.98692 15.6774C8.7698 15.6844 8.57983 15.6062 8.417 15.4429L3.04345 10.0693C2.96203 9.9879 2.90422 9.8997 2.87003 9.80471C2.83583 9.70973 2.81928 9.60796 2.82036 9.4994C2.82145 9.39084 2.83855 9.28907 2.87166 9.19408C2.90477 9.0991 2.9623 9.0109 3.04426 8.92948L8.41781 3.55593C8.56707 3.40666 8.75379 3.33203 8.97796 3.33203C9.20213 3.33203 9.39536 3.40666 9.55765 3.55593C9.72049 3.71876 9.80191 3.91227 9.80191 4.13644C9.80191 4.3606 9.72049 4.55383 9.55765 4.71613L5.58774 8.68523H14.6861C14.9168 8.68523 15.1103 8.76339 15.2666 8.91971C15.423 9.07603 15.5009 9.26926 15.5003 9.4994C15.4998 9.72954 15.4216 9.92304 15.2658 10.0799C15.11 10.2368 14.9168 10.3147 14.6861 10.3136H5.58774Z" fill="#44475B"/>
</svg>
