<svg width="16" height="17" viewBox="0 0 16 17" fill="none" xmlns="http://www.w3.org/2000/svg">
<path d="M6.00075 11.2786L3.68741 8.96525C3.56276 8.8406 3.3937 8.77057 3.21741 8.77057C3.04113 8.77057 2.87207 8.8406 2.74741 8.96525C2.62276 9.0899 2.55273 9.25897 2.55273 9.43525C2.55273 9.52254 2.56993 9.60897 2.60333 9.68961C2.63673 9.77026 2.68569 9.84353 2.74741 9.90525L5.53408 12.6919C5.79408 12.9519 6.21408 12.9519 6.47408 12.6919L13.5274 5.63859C13.6521 5.51393 13.7221 5.34487 13.7221 5.16859C13.7221 4.9923 13.6521 4.82324 13.5274 4.69859C13.4028 4.57394 13.2337 4.50391 13.0574 4.50391C12.8811 4.50391 12.7121 4.57394 12.5874 4.69859L6.00075 11.2786Z" fill="#146EFE"/>
</svg>
