<svg width="16" height="16" viewBox="0 0 16 16" fill="none" xmlns="http://www.w3.org/2000/svg">
<path d="M8.00039 10.7977C9.16019 10.7977 10.1004 9.85745 10.1004 8.69766C10.1004 7.53786 9.16019 6.59766 8.00039 6.59766C6.84059 6.59766 5.90039 7.53786 5.90039 8.69766C5.90039 9.85745 6.84059 10.7977 8.00039 10.7977Z" stroke="#44475B"/>
<path d="M1 8.95405C1 6.80855 1 5.73615 1.5243 4.96615C1.7522 4.63155 2.04382 4.34515 2.3825 4.12335C2.8865 3.79225 3.5179 3.67395 4.4846 3.63195C4.9459 3.63195 5.3428 3.28895 5.4331 2.84445C5.50211 2.51886 5.68141 2.22708 5.94071 2.01842C6.2 1.80976 6.52338 1.69702 6.8562 1.69925H9.1438C9.8354 1.69925 10.4311 2.17875 10.5669 2.84445C10.6572 3.28895 11.0541 3.63195 11.5154 3.63195C12.4814 3.67395 13.1128 3.79295 13.6175 4.12335C13.957 4.34595 14.2489 4.63225 14.4757 4.96615C15 5.73615 15 6.80855 15 8.95405C15 11.0996 15 12.1713 14.4757 12.942C14.2478 13.2766 13.9562 13.5629 13.6175 13.7848C12.8328 14.2993 11.7401 14.2993 9.5554 14.2993H6.4446C4.2599 14.2993 3.1672 14.2993 2.3825 13.7848C2.04401 13.5627 1.75262 13.276 1.525 12.9413C1.37292 12.7147 1.26092 12.4637 1.1939 12.1993M12.9 6.59925H12.2" stroke="#44475B" stroke-linecap="round"/>
</svg>
