<svg width="16" height="16" viewBox="0 0 16 16" fill="none" xmlns="http://www.w3.org/2000/svg">
<path d="M4 7.33203C4 5.4467 4 4.50336 4.586 3.91803C5.17133 3.33203 6.11467 3.33203 8 3.33203H10C11.8853 3.33203 12.8287 3.33203 13.414 3.91803C14 4.50336 14 5.4467 14 7.33203V10.6654C14 12.5507 14 13.494 13.414 14.0794C12.8287 14.6654 11.8853 14.6654 10 14.6654H8C6.11467 14.6654 5.17133 14.6654 4.586 14.0794C4 13.494 4 12.5507 4 10.6654V7.33203Z" stroke="#44475B"/>
<path d="M4 12.6654C3.46957 12.6654 2.96086 12.4547 2.58579 12.0796C2.21071 11.7045 2 11.1958 2 10.6654V6.66536C2 4.15136 2 2.89403 2.78133 2.11336C3.56267 1.3327 4.81933 1.33203 7.33333 1.33203H10C10.5304 1.33203 11.0391 1.54274 11.4142 1.91782C11.7893 2.29289 12 2.8016 12 3.33203" stroke="#44475B"/>
</svg>
