<svg width="16" height="16" viewBox="0 0 16 16" fill="none" xmlns="http://www.w3.org/2000/svg">
<g clip-path="url(#clip0_3130_8597)">
<path d="M4.81796 7.81913L11.1828 7.81913M9.65236 4.0676L11.1822 4.0676C12.177 4.06767 13.131 4.46291 13.8343 5.16635C14.5377 5.8698 14.9328 6.82384 14.9327 7.8186C14.9326 8.81335 14.5374 9.76734 13.8339 10.4707C13.1305 11.174 12.1765 11.5691 11.1817 11.5691L9.65236 11.6046M6.34836 11.6046H4.85456C3.85384 11.5986 2.89582 11.1984 2.1882 10.4908C1.48057 9.78317 1.08038 8.82514 1.07439 7.82443C1.07141 7.33108 1.16638 6.84204 1.3538 6.38567C1.54122 5.9293 1.81737 5.51466 2.16623 5.1658C2.51509 4.81695 2.92972 4.5408 3.38609 4.35338C3.84247 4.16596 4.3315 4.07099 4.82485 4.07397L6.34836 4.0676" stroke="#44475B" stroke-linecap="round" stroke-linejoin="round"/>
</g>
<defs>
<clipPath id="clip0_3130_8597">
<rect width="16" height="16" fill="white"/>
</clipPath>
</defs>
</svg>
