<svg width="16" height="16" viewBox="0 0 16 16" fill="none" xmlns="http://www.w3.org/2000/svg">
<path d="M1.33594 5.56688V10.8837C1.33594 11.6481 1.63959 12.3812 2.1801 12.9217C2.72061 13.4622 3.4537 13.7659 4.2181 13.7659H11.7838C12.5482 13.7659 13.2813 13.4622 13.8218 12.9217C14.3623 12.3812 14.6659 11.6481 14.6659 10.8837V6.78387C14.6659 6.01947 14.3623 5.28638 13.8218 4.74587C13.2813 4.20536 12.5482 3.90171 11.7838 3.90171H8.00094M1.33594 5.56688V4.396C1.33594 3.8227 1.56368 3.27288 1.96906 2.8675C2.37444 2.46212 2.92426 2.23438 3.49756 2.23438H5.58713C5.8237 2.23433 6.05796 2.28089 6.27654 2.37139C6.49512 2.46188 6.69374 2.59455 6.86104 2.76181L8.00094 3.90243L6.86392 5.03944C6.69662 5.2067 6.49801 5.33937 6.27943 5.42986C6.06085 5.52036 5.82658 5.56692 5.59001 5.56688H1.33594Z" stroke="#44475B" stroke-linejoin="round"/>
</svg>
