<svg width="16" height="17" viewBox="0 0 16 17" fill="none" xmlns="http://www.w3.org/2000/svg">
<path d="M1.44141 12.9916V14.7717C1.44141 14.8918 1.53877 14.9892 1.65887 14.9892H3.43901C3.49669 14.9892 3.552 14.9663 3.59278 14.9255L11.726 6.79224C11.811 6.70731 11.811 6.56962 11.726 6.48469L9.9459 4.70455C9.86098 4.61963 9.72329 4.61963 9.63836 4.70455L1.5051 12.8378C1.46432 12.8786 1.44141 12.9339 1.44141 12.9916Z" stroke="#44475B"/>
<path d="M9.20534 13.3137C9.24612 13.2729 9.30143 13.25 9.35911 13.25H14.2708C14.3909 13.25 14.4882 13.3474 14.4882 13.4675V14.7723C14.4882 14.8924 14.3909 14.9897 14.2708 14.9897H8.05431C7.86057 14.9897 7.76354 14.7555 7.90054 14.6185L9.20534 13.3137Z" stroke="#44475B"/>
<path d="M12.3677 1.75533C12.4526 1.67041 12.5903 1.67041 12.6753 1.75533L14.6388 3.71887C14.7237 3.8038 14.7237 3.94149 14.6388 4.02642L13.4368 5.2284C13.3519 5.31333 13.2142 5.31333 13.1293 5.2284L11.1657 3.26486C11.0808 3.17993 11.0808 3.04224 11.1657 2.95732L12.3677 1.75533Z" stroke="#44475B"/>
</svg>
