<svg width="16" height="16" viewBox="0 0 16 16" fill="none" xmlns="http://www.w3.org/2000/svg">
<path d="M13.3333 4.66536H11.3333C10.9797 4.66536 10.6406 4.52489 10.3905 4.27484C10.1405 4.02479 10 3.68565 10 3.33203V1.33203" stroke="#44475B" stroke-linecap="round" stroke-linejoin="round"/>
<path d="M6.0013 11.9987C5.64768 11.9987 5.30854 11.8582 5.05849 11.6082C4.80844 11.3581 4.66797 11.019 4.66797 10.6654V2.66536C4.66797 2.31174 4.80844 1.9726 5.05849 1.72256C5.30854 1.47251 5.64768 1.33203 6.0013 1.33203H10.668L13.3346 3.9987V10.6654C13.3346 11.019 13.1942 11.3581 12.9441 11.6082C12.6941 11.8582 12.3549 11.9987 12.0013 11.9987H6.0013Z" stroke="#44475B" stroke-linecap="round" stroke-linejoin="round"/>
<path d="M2 5.06641V13.5997C2 13.8826 2.11238 14.1539 2.31242 14.354C2.51246 14.554 2.78377 14.6664 3.06667 14.6664H9.6" stroke="#44475B" stroke-linecap="round" stroke-linejoin="round"/>
</svg>
