<svg width="16" height="16" viewBox="0 0 16 16" fill="none" xmlns="http://www.w3.org/2000/svg">
<path d="M5 15H3.63636C3.20237 15 2.78616 14.8525 2.47928 14.5899C2.1724 14.3274 2 13.9713 2 13.6V2.4C2 2.0287 2.1724 1.6726 2.47928 1.41005C2.78616 1.1475 3.20237 1 3.63636 1H8.89756C9.37435 1 9.83546 1.17033 10.1977 1.4803L13.3002 4.13461C13.7443 4.51458 14 5.06982 14 5.65431V13.6C14 13.9713 13.8276 14.3274 13.5207 14.5899C13.2138 14.8525 12.7976 15 12.3636 15H11" stroke="#44475B" stroke-linecap="round"/>
<path d="M9.93359 1V4.2C9.93359 4.75228 10.3813 5.2 10.9336 5.2H14.1336" stroke="#44475B" stroke-linejoin="round"/>
<path d="M8 9V15M8 9C7.3 9 5.991 10.994 5.5 11.5M8 9C8.7 9 10.009 10.994 10.5 11.5" stroke="#44475B" stroke-width="1.25" stroke-linecap="round" stroke-linejoin="round"/>
</svg>
