<svg width="16" height="16" viewBox="0 0 16 16" fill="none" xmlns="http://www.w3.org/2000/svg">
<path d="M8.56921 2.33355C8.5125 2.23239 8.42986 2.14815 8.3298 2.08953C8.22973 2.0309 8.11585 2 7.99987 2C7.8839 2 7.77002 2.0309 7.66995 2.08953C7.56988 2.14815 7.48724 2.23239 7.43054 2.33355C7.29721 2.57622 7.16898 2.822 7.04587 3.07089C6.658 3.85819 6.32823 4.67281 6.05921 5.50822C5.96654 5.79555 5.69187 5.99489 5.37721 6.00355C4.42335 6.02863 3.4726 6.12333 2.53254 6.28689C2.01654 6.37755 1.82254 6.96555 2.18921 7.32422C2.27276 7.40644 2.35721 7.48755 2.44254 7.56755C3.08058 8.17012 3.7552 8.73275 4.46254 9.25222C4.70721 9.43155 4.80787 9.73889 4.71454 10.0202C4.359 11.0889 4.10455 12.1886 3.95454 13.3049C3.88787 13.8082 4.42654 14.1636 4.89454 13.9236C5.82257 13.4477 6.70999 12.8965 7.54787 12.2756C7.67911 12.1798 7.83739 12.1281 7.99987 12.1281C8.16235 12.1281 8.32063 12.1798 8.45187 12.2756C9.28959 12.8968 10.177 13.448 11.1052 13.9236C11.5725 14.1636 12.1119 13.8082 12.0452 13.3049C12.0194 13.116 11.9912 12.9282 11.9605 12.7416C11.8065 11.8183 11.5807 10.9084 11.2852 10.0202C11.1919 9.73889 11.2919 9.43155 11.5372 9.25222C12.3397 8.66421 13.0994 8.01992 13.8105 7.32422C14.1772 6.96555 13.9839 6.37755 13.4672 6.28689C12.5273 6.12237 11.5765 6.02767 10.6225 6.00355C10.4717 6.00115 10.3253 5.9523 10.2033 5.86366C10.0812 5.77502 9.98947 5.6509 9.94054 5.50822C9.58634 4.40867 9.12711 3.3451 8.56921 2.33355Z" fill="#44475B"/>
</svg>
