<svg width="16" height="16" viewBox="0 0 16 16" fill="none" xmlns="http://www.w3.org/2000/svg">
<g clip-path="url(#clip0_3138_8472)">
<path d="M0.835938 4.38328V10.099C0.835938 10.9208 1.16237 11.7088 1.74343 12.2899C2.32449 12.871 3.11257 13.1974 3.93432 13.1974H7.06756M0.835938 4.38328V3.12457C0.835938 2.50826 1.08076 1.9172 1.51656 1.4814C1.95235 1.04561 2.54342 0.800781 3.15972 0.800781H5.40605C5.66037 0.800734 5.91221 0.850783 6.14718 0.94807C6.38216 1.04536 6.59567 1.18798 6.77553 1.36778L8.00094 2.59319M0.835938 4.38328H5.40914C5.66347 4.38333 5.9153 4.33328 6.15028 4.23599C6.38526 4.13871 6.59877 3.99609 6.77863 3.81628L8.00094 2.59319M15.1659 8.09901V5.69157C15.1659 4.86983 14.8395 4.08175 14.2584 3.50069C13.6774 2.91963 12.8893 2.59319 12.0676 2.59319H8.00094" stroke="#44475B" stroke-width="1.25" stroke-linecap="round" stroke-linejoin="round"/>
<path d="M11.5 9V15M11.5 9C10.8 9 9.491 10.994 9 11.5M11.5 9C12.2 9 13.509 10.994 14 11.5" stroke="#44475B" stroke-width="1.25" stroke-linecap="round" stroke-linejoin="round"/>
</g>
<defs>
<clipPath id="clip0_3138_8472">
<rect width="16" height="16" fill="white"/>
</clipPath>
</defs>
</svg>
