<svg width="16" height="16" viewBox="0 0 16 16" fill="none" xmlns="http://www.w3.org/2000/svg">
<path d="M8.00156 1.60156H3.20156C2.31791 1.60156 1.60156 2.31791 1.60156 3.20156V12.8016C1.60156 13.6852 2.31791 14.4016 3.20156 14.4016H12.8016C13.6852 14.4016 14.4016 13.6852 14.4016 12.8016V11.0016" stroke="#44475B" stroke-linecap="round"/>
<path d="M9.74147 7.61841C9.58299 7.40738 9.26718 7.40496 9.10548 7.61355L7.57976 9.58173C7.50126 9.683 7.34912 9.68536 7.26751 9.58659L6.31791 8.43731C6.15482 8.23993 5.85085 8.24446 5.69372 8.44663L4.25083 10.3032C4.14872 10.4345 4.24235 10.6259 4.40874 10.6259H11.5997C11.7646 10.6259 11.8586 10.4376 11.7596 10.3058L9.74147 7.61841Z" fill="#44475B"/>
<path d="M14.8281 2.915L12.9131 1M12.9131 1L10.9981 2.915M12.9131 1L12.9131 8.745" stroke="#44475B" stroke-miterlimit="10" stroke-linecap="round" stroke-linejoin="round"/>
</svg>
