<svg width="26" height="26" viewBox="0 0 26 26" fill="none" xmlns="http://www.w3.org/2000/svg">
<path d="M12.9993 2.66797C18.7065 2.66797 23.3327 7.2942 23.3327 13.0013C23.3327 18.7084 18.7065 23.3346 12.9993 23.3346C7.29224 23.3346 2.66602 18.7084 2.66602 13.0013C2.66602 7.2942 7.29224 2.66797 12.9993 2.66797Z" stroke="#60A3F0"/>
<path d="M13.0007 4.33203C11.6747 4.33115 10.3664 4.63488 9.17644 5.21979C7.98653 5.8047 6.94688 6.65515 6.13773 7.70553L5.95898 7.94495V9.77037C5.95898 11.1245 6.79857 12.3368 8.06607 12.8135L8.2589 12.8785L9.6564 13.3064C11.1438 13.7614 12.5922 12.5513 12.4482 11.0357L12.4276 10.8786L12.238 9.7422C12.1961 9.49047 12.2444 9.23203 12.3744 9.01243C12.5044 8.79284 12.7078 8.62619 12.9487 8.54187L13.0657 8.50937L13.7287 8.3577C14.1048 8.27172 14.46 8.11126 14.7731 7.88578C15.0863 7.66031 15.3511 7.37439 15.5519 7.0449C15.7528 6.71542 15.8856 6.34904 15.9425 5.96739C15.9994 5.58573 15.9793 5.19654 15.8834 4.82278C14.9572 4.4971 13.9824 4.33116 13.0007 4.33203ZM15.1673 14.5154L13.473 15.8706C13.4135 15.9182 13.3647 15.9778 13.3299 16.0456C13.295 16.1133 13.2748 16.1876 13.2706 16.2637C13.2664 16.3398 13.2783 16.4158 13.3056 16.487C13.3328 16.5582 13.3747 16.6228 13.4286 16.6766L14.7708 18.0189C15.0308 18.2789 15.2204 18.6017 15.3212 18.9549L15.5107 19.619C15.67 20.1834 16.0741 20.646 16.6125 20.8789C17.6491 20.4032 18.5816 19.7277 19.3566 18.891L19.1031 16.8575C19.0587 16.5038 18.9277 16.1664 18.7217 15.8754C18.5158 15.5844 18.2411 15.3487 17.9222 15.1892L16.3297 14.3919C16.1445 14.2991 15.9365 14.2615 15.7304 14.2834C15.5244 14.3053 15.329 14.3858 15.1673 14.5154Z" fill="#60A3F0"/>
</svg>
