<svg width="24" height="24" viewBox="0 0 24 24" fill="none" xmlns="http://www.w3.org/2000/svg">
<mask id="path-1-inside-1_3130_8623" fill="white">
<path d="M3 6C3 4.89543 3.89543 4 5 4H9H15H19C20.1046 4 21 4.89543 21 6V9.33333V14.6667V18C21 19.1046 20.1046 20 19 20H15H9H5C3.89543 20 3 19.1046 3 18V14.6667V9.33333V6Z"/>
</mask>
<path d="M9.5 20V4H8.5V20H9.5ZM15.5 20V4H14.5V20H15.5ZM3 15.1667H21V14.1667H3V15.1667ZM3 9.83333H21V8.83333H3V9.83333ZM9 19H5V21H9V19ZM5 5H9V3H5V5ZM19 19H15V21H19V19ZM15 19H9V21H15V19ZM9 5H15V3H9V5ZM15 5H19V3H15V5ZM4 18V14.6667H2V18H4ZM20 14.6667V18H22V14.6667H20ZM4 14.6667V9.33333H2V14.6667H4ZM4 9.33333V6H2V9.33333H4ZM20 6V9.33333H22V6H20ZM20 9.33333V14.6667H22V9.33333H20ZM5 19C4.44772 19 4 18.5523 4 18H2C2 19.6569 3.34315 21 5 21V19ZM19 21C20.6569 21 22 19.6569 22 18H20C20 18.5523 19.5523 19 19 19V21ZM19 5C19.5523 5 20 5.44772 20 6H22C22 4.34315 20.6569 3 19 3V5ZM5 3C3.34315 3 2 4.34315 2 6H4C4 5.44772 4.44772 5 5 5V3Z" fill="#44475B" mask="url(#path-1-inside-1_3130_8623)"/>
</svg>
