<svg width="16" height="16" viewBox="0 0 16 16" fill="none" xmlns="http://www.w3.org/2000/svg">
<path d="M7.313 1.26162C7.49867 1.08609 7.74449 0.988281 8 0.988281C8.25551 0.988281 8.50133 1.08609 8.687 1.26162L13.531 5.84062C13.831 6.12362 14 6.51862 14 6.93062V12.5006C14 12.8984 13.842 13.28 13.5607 13.5613C13.2794 13.8426 12.8978 14.0006 12.5 14.0006H10.5C10.3029 14.0006 10.1078 13.9618 9.92574 13.8863C9.74369 13.8109 9.57829 13.7003 9.43899 13.5609C9.29969 13.4215 9.18922 13.2561 9.11389 13.074C9.03857 12.8919 8.99987 12.6967 9 12.4996V9.99962C9 9.86702 8.94732 9.73984 8.85355 9.64607C8.75979 9.5523 8.63261 9.49962 8.5 9.49962H7.5C7.36739 9.49962 7.24021 9.5523 7.14645 9.64607C7.05268 9.73984 7 9.86702 7 9.99962V12.4996C7 12.8974 6.84196 13.279 6.56066 13.5603C6.27936 13.8416 5.89782 13.9996 5.5 13.9996H3.5C3.10218 13.9996 2.72064 13.8416 2.43934 13.5603C2.15804 13.279 2 12.8974 2 12.4996V6.92962C2 6.51762 2.17 6.12262 2.47 5.83962L7.313 1.26162ZM8 1.98762L3.156 6.56762C3.10682 6.61424 3.06764 6.67037 3.04082 6.7326C3.014 6.79483 3.00012 6.86186 3 6.92962V12.4996C3 12.6322 3.05268 12.7594 3.14645 12.8532C3.24021 12.9469 3.36739 12.9996 3.5 12.9996H5.5C5.63261 12.9996 5.75979 12.9469 5.85355 12.8532C5.94732 12.7594 6 12.6322 6 12.4996V9.99962C6 9.6018 6.15804 9.22027 6.43934 8.93896C6.72064 8.65766 7.10218 8.49962 7.5 8.49962H8.5C8.89782 8.49962 9.27936 8.65766 9.56066 8.93896C9.84196 9.22027 10 9.6018 10 9.99962V12.4996C10 12.6322 10.0527 12.7594 10.1464 12.8532C10.2402 12.9469 10.3674 12.9996 10.5 12.9996H12.5C12.6326 12.9996 12.7598 12.9469 12.8536 12.8532C12.9473 12.7594 13 12.6322 13 12.4996V6.92962C13 6.86169 12.9862 6.79447 12.9594 6.73206C12.9326 6.66965 12.8933 6.61336 12.844 6.56662L8 1.98762Z" fill="#3D4366"/>
</svg>
