<svg width="26" height="26" viewBox="0 0 26 26" fill="none" xmlns="http://www.w3.org/2000/svg">
<path d="M7.99806 11.3324V9.66537C7.99806 9.38143 8.02112 9.1036 8.06724 8.83187M18.0001 11.3324V9.66537C18.0001 8.64954 17.6908 7.65777 17.1133 6.82205C16.5358 5.98633 15.7175 5.34629 14.7673 4.98711C13.8171 4.62793 12.78 4.56664 11.7941 4.81139C10.8082 5.05614 9.92023 5.59534 9.24831 6.35721M11.1656 21.3344H9.66506C7.30792 21.3344 6.12852 21.3344 5.39671 20.6017C4.66406 19.8699 4.66406 18.6905 4.66406 16.3334C4.66406 13.9762 4.66406 12.7968 5.39671 12.065C6.12852 11.3324 7.30792 11.3324 9.66506 11.3324H16.3331C18.6902 11.3324 19.8696 11.3324 20.6014 12.065C21.3341 12.7968 21.3341 13.9762 21.3341 16.3334C21.3341 18.6905 21.3341 19.8699 20.6014 20.6017C19.8696 21.3344 18.6902 21.3344 16.3331 21.3344H15.4996" stroke="#6C6E7A" stroke-width="1.5" stroke-linecap="round"/>
</svg>
