<svg width="16" height="16" viewBox="0 0 16 16" fill="none" xmlns="http://www.w3.org/2000/svg">
<path d="M9.55556 4.88845V3.3329C9.55556 2.92034 9.39167 2.52468 9.09994 2.23296C8.80822 1.94123 8.41256 1.77734 8 1.77734H2.55556C2.143 1.77734 1.74733 1.94123 1.45561 2.23296C1.16389 2.52468 1 2.92034 1 3.3329V12.6662C1 13.0788 1.16389 13.4745 1.45561 13.7662C1.74733 14.0579 2.143 14.2218 2.55556 14.2218H8C8.41256 14.2218 8.80822 14.0579 9.09994 13.7662C9.39167 13.4745 9.55556 13.0788 9.55556 12.6662V11.1107" stroke="#44475B" stroke-linecap="round" stroke-linejoin="round"/>
<path d="M5.66602 8.0013H14.9993M14.9993 8.0013L12.666 5.66797M14.9993 8.0013L12.666 10.3346" stroke="#44475B" stroke-linecap="round" stroke-linejoin="round"/>
</svg>
