<svg width="16" height="17" viewBox="0 0 16 17" fill="none" xmlns="http://www.w3.org/2000/svg">
<mask id="path-1-inside-1_3130_9815" fill="white">
<path d="M1 14V4.95416C1 4.65803 1.08766 4.36851 1.25192 4.12211L2.5547 2.16795C2.8329 1.75065 3.30125 1.5 3.80278 1.5H12.1972C12.6988 1.5 13.1671 1.75065 13.4453 2.16795L14.7481 4.12211C14.9123 4.36851 15 4.65803 15 4.95416V14C15 14.8284 14.3284 15.5 13.5 15.5H2.5C1.67157 15.5 1 14.8284 1 14Z"/>
</mask>
<path d="M5.85355 9.64645C5.65829 9.45118 5.34171 9.45118 5.14645 9.64645C4.95118 9.84171 4.95118 10.1583 5.14645 10.3536L5.85355 9.64645ZM10.8536 10.3536C11.0488 10.1583 11.0488 9.84171 10.8536 9.64645C10.6583 9.45118 10.3417 9.45118 10.1464 9.64645L10.8536 10.3536ZM8.5 7.5C8.5 7.22386 8.27614 7 8 7C7.72386 7 7.5 7.22386 7.5 7.5H8.5ZM2 5H14V4H2V5ZM5.14645 10.3536L7.29289 12.5L8 11.7929L5.85355 9.64645L5.14645 10.3536ZM10.1464 9.64645L8 11.7929L8.70711 12.5L10.8536 10.3536L10.1464 9.64645ZM7.5 7.5V12H8.5V7.5H7.5ZM7.29289 12.5C7.68342 12.8905 8.31658 12.8905 8.70711 12.5L8 11.7929H8L7.29289 12.5ZM2.5547 2.16795L1.72265 1.61325L1.72265 1.61325L2.5547 2.16795ZM1.25192 4.12211L0.419874 3.56741L1.25192 4.12211ZM14.7481 4.12211L13.916 4.67681V4.67681L14.7481 4.12211ZM13.4453 2.16795L12.6132 2.72265V2.72265L13.4453 2.16795ZM0 4.95416V14H2V4.95416H0ZM2.5 16.5H13.5V14.5H2.5V16.5ZM16 14V4.95416H14V14H16ZM1.72265 1.61325L0.419874 3.56741L2.08397 4.67681L3.38675 2.72265L1.72265 1.61325ZM15.5801 3.56741L14.2773 1.61325L12.6132 2.72265L13.916 4.67681L15.5801 3.56741ZM12.1972 0.5H3.80278V2.5H12.1972V0.5ZM14.2773 1.61325C13.8137 0.917753 13.0331 0.5 12.1972 0.5V2.5C12.3644 2.5 12.5205 2.58355 12.6132 2.72265L14.2773 1.61325ZM3.38675 2.72265C3.47948 2.58355 3.6356 2.5 3.80278 2.5V0.5C2.96689 0.5 2.18631 0.917753 1.72265 1.61325L3.38675 2.72265ZM16 4.95416C16 4.4606 15.8539 3.97808 15.5801 3.56741L13.916 4.67681C13.9708 4.75895 14 4.85545 14 4.95416H16ZM13.5 16.5C14.8807 16.5 16 15.3807 16 14H14C14 14.2761 13.7761 14.5 13.5 14.5V16.5ZM0 14C0 15.3807 1.11929 16.5 2.5 16.5V14.5C2.22386 14.5 2 14.2761 2 14H0ZM2 4.95416C2 4.85545 2.02922 4.75895 2.08397 4.67681L0.419874 3.56741C0.146095 3.97808 0 4.4606 0 4.95416H2Z" fill="#44475B" mask="url(#path-1-inside-1_3130_9815)"/>
</svg>
