<svg width="16" height="17" viewBox="0 0 16 17" fill="none" xmlns="http://www.w3.org/2000/svg">
<path d="M4.66602 12.4974V10.8307M4.66602 10.8307V9.83073C4.66602 9.51673 4.66602 9.3594 4.76868 9.2614C4.87135 9.16406 5.03602 9.16406 5.36602 9.16406H5.83268C6.31602 9.16406 6.70802 9.5374 6.70802 9.9974C6.70802 10.4574 6.31602 10.8307 5.83268 10.8307H4.66602ZM13.9993 9.16406H13.1247C12.5747 9.16406 12.2993 9.16406 12.1287 9.32673C11.958 9.4894 11.958 9.7514 11.958 10.2754V10.8307M11.958 10.8307V12.4974M11.958 10.8307H13.416M10.4993 10.8307C10.4993 11.7507 9.71602 12.4974 8.74935 12.4974C8.53135 12.4974 8.42268 12.4974 8.34068 12.4527C8.14668 12.3461 8.16602 12.1294 8.16602 11.9421V9.7194C8.16602 9.53206 8.14602 9.3154 8.34068 9.20873C8.42202 9.16406 8.53135 9.16406 8.74935 9.16406C9.71602 9.16406 10.4993 9.91073 10.4993 10.8307Z" stroke="#44475B" stroke-width="0.8" stroke-linecap="round" stroke-linejoin="round"/>
<path d="M10 15.1654H7.15133C4.978 15.1654 3.89 15.1654 3.13533 14.6334C2.92057 14.4828 2.7286 14.302 2.56533 14.0967C2 13.386 2 12.3634 2 10.3167V8.62003C2 6.6447 2 5.6567 2.31267 4.86803C2.81533 3.59936 3.878 2.59936 5.226 2.12603C6.06333 1.83203 7.112 1.83203 9.212 1.83203C10.4107 1.83203 11.0107 1.83203 11.4893 2.00003C12.2593 2.2707 12.8667 2.84203 13.154 3.5667C13.3333 4.01736 13.3333 4.58203 13.3333 5.7107V7.16536" stroke="#44475B" stroke-linecap="round" stroke-linejoin="round"/>
<path d="M2 8.4987C2 7.90939 2.2341 7.34421 2.65081 6.92751C3.06751 6.5108 3.63269 6.2767 4.222 6.2767C4.666 6.2767 5.18933 6.35403 5.62067 6.2387C5.80914 6.18798 5.98096 6.0886 6.11892 5.95053C6.25687 5.81246 6.3561 5.64055 6.40667 5.45203C6.522 5.0207 6.44467 4.49736 6.44467 4.05336C6.44484 3.46417 6.67902 2.89917 7.09571 2.4826C7.5124 2.06604 8.07747 1.83203 8.66667 1.83203" stroke="#44475B" stroke-width="0.8" stroke-linecap="round" stroke-linejoin="round"/>
</svg>
