<svg width="16" height="17" viewBox="0 0 16 17" fill="none" xmlns="http://www.w3.org/2000/svg">
<path d="M7.05263 13.5526C7.05263 13.8039 7.15244 14.0449 7.33011 14.2225C7.50778 14.4002 7.74874 14.5 8 14.5C8.25126 14.5 8.49222 14.4002 8.66989 14.2225C8.84756 14.0449 8.94737 13.8039 8.94737 13.5526V9.44737H13.0526C13.3039 9.44737 13.5449 9.34756 13.7225 9.16989C13.9002 8.99222 14 8.75126 14 8.5C14 8.24874 13.9002 8.00778 13.7225 7.83011C13.5449 7.65244 13.3039 7.55263 13.0526 7.55263H8.94737V3.44737C8.94737 3.19611 8.84756 2.95514 8.66989 2.77748C8.49222 2.59981 8.25126 2.5 8 2.5C7.74874 2.5 7.50778 2.59981 7.33011 2.77748C7.15244 2.95514 7.05263 3.19611 7.05263 3.44737V7.55263H2.94737C2.69611 7.55263 2.45514 7.65244 2.27748 7.83011C2.09981 8.00778 2 8.24874 2 8.5C2 8.75126 2.09981 8.99222 2.27748 9.16989C2.45514 9.34756 2.69611 9.44737 2.94737 9.44737H7.05263V13.5526Z" fill="#3D4366"/>
</svg>
