<svg width="16" height="16" viewBox="0 0 16 16" fill="none" xmlns="http://www.w3.org/2000/svg">
<g clip-path="url(#clip0_3324_11427)">
<path d="M5.06314 5.96778L5.06314 11.6097C5.06314 11.84 4.98408 12.0296 4.82595 12.1785C4.66782 12.3274 4.47342 12.4017 4.24276 12.4013C4.02207 12.3917 3.83247 12.3127 3.67396 12.1641C3.51545 12.0156 3.43638 11.826 3.43677 11.5953L3.43676 3.99598C3.43676 3.88084 3.45826 3.7776 3.50124 3.68625C3.54423 3.5949 3.60449 3.51124 3.68202 3.43524C3.75955 3.35925 3.8436 3.29937 3.93418 3.25562C4.02475 3.21187 4.12781 3.19018 4.24333 3.19057L11.8427 3.19057C12.0538 3.19057 12.2386 3.26982 12.3971 3.42833C12.5556 3.58685 12.6395 3.77625 12.6487 3.99656C12.6487 4.22684 12.5694 4.42124 12.4109 4.57975C12.2524 4.73826 12.0582 4.81733 11.8283 4.81694L6.21456 4.81637L12.6481 11.2499C12.8112 11.413 12.8928 11.6051 12.8928 11.8262C12.8928 12.0473 12.8112 12.239 12.6481 12.4013C12.485 12.5637 12.2929 12.6452 12.0718 12.646C11.8507 12.6468 11.659 12.5652 11.4967 12.4013L5.06314 5.96778Z" fill="#44475B"/>
</g>
<defs>
<clipPath id="clip0_3324_11427">
<rect width="16" height="16" fill="white"/>
</clipPath>
</defs>
</svg>
