<svg width="16" height="16" viewBox="0 0 16 16" fill="none" xmlns="http://www.w3.org/2000/svg">
<g clip-path="url(#clip0_3324_11422)">
<path d="M7.96584 15.3435C6.10228 15.3435 4.47763 14.7347 3.09189 13.5172C1.70677 12.3004 0.905303 10.7678 0.6875 8.91952H1.6153C1.86492 10.498 2.5841 11.8103 3.77283 12.8565C4.96157 13.9027 6.35924 14.4258 7.96584 14.4258C9.75537 14.4258 11.2733 13.8026 12.5195 12.5564C13.7657 11.3102 14.3892 9.79196 14.3898 8.00182C14.3904 6.21168 13.767 4.69348 12.5195 3.44723C11.272 2.20099 9.75414 1.57786 7.96584 1.57786C7.0157 1.57786 6.12308 1.77854 5.28797 2.17988C4.45285 2.58061 3.71563 3.13277 3.07629 3.83634H5.35312V4.75405H1.54189V0.943728H2.45959V3.13521C3.16929 2.35639 4.00073 1.74948 4.95392 1.31448C5.90711 0.879488 6.91109 0.66138 7.96584 0.660156C8.98327 0.660156 9.93707 0.851651 10.8272 1.23464C11.7174 1.61763 12.495 2.14195 13.1601 2.80759C13.8251 3.47324 14.3494 4.25084 14.733 5.1404C15.1166 6.02997 15.3081 6.98377 15.3075 8.00182C15.3069 9.01986 15.1154 9.97366 14.733 10.8632C14.3506 11.7528 13.8263 12.5304 13.1601 13.196C12.4938 13.8617 11.7162 14.386 10.8272 14.769C9.9383 15.152 8.98449 15.3435 7.96584 15.3435ZM10.9062 11.5387L7.55929 8.1927V3.41328H8.477V7.81093L11.555 10.8889L10.9062 11.5387Z" fill="#44475B"/>
</g>
<defs>
<clipPath id="clip0_3324_11422">
<rect width="16" height="16" fill="white"/>
</clipPath>
</defs>
</svg>
