<svg width="16" height="17" viewBox="0 0 16 17" fill="none" xmlns="http://www.w3.org/2000/svg">
<path d="M5.33268 7.83203C4.9645 7.83203 4.66602 8.1305 4.66602 8.4987C4.66602 8.8669 4.9645 9.16536 5.33268 9.16536H10.666C11.0342 9.16536 11.3327 8.8669 11.3327 8.4987C11.3327 8.1305 11.0342 7.83203 10.666 7.83203H5.33268Z" fill="#44475B"/>
<path fill-rule="evenodd" clip-rule="evenodd" d="M14.6673 8.4987C14.6673 12.1806 11.6825 15.1654 8.00065 15.1654C4.31875 15.1654 1.33398 12.1806 1.33398 8.4987C1.33398 4.8168 4.31875 1.83203 8.00065 1.83203C11.6825 1.83203 14.6673 4.8168 14.6673 8.4987ZM13.4552 8.4987C13.4552 11.5112 11.0131 13.9532 8.00065 13.9532C4.98819 13.9532 2.54611 11.5112 2.54611 8.4987C2.54611 5.48624 4.98819 3.04415 8.00065 3.04415C11.0131 3.04415 13.4552 5.48624 13.4552 8.4987Z" fill="#44475B"/>
</svg>
