<svg width="16" height="16" viewBox="0 0 16 16" fill="none" xmlns="http://www.w3.org/2000/svg">
<path d="M1.5 12.39V14.1702C1.5 14.2903 1.59736 14.3876 1.71747 14.3876H3.4976C3.55528 14.3876 3.61059 14.3647 3.65138 14.3239L11.7846 6.19067C11.8696 6.10575 11.8696 5.96805 11.7846 5.88313L10.0045 4.10299C9.91957 4.01806 9.78188 4.01806 9.69695 4.10299L1.56369 12.2362C1.52291 12.277 1.5 12.3323 1.5 12.39Z" stroke="#44475B"/>
<path d="M9.26393 12.7121C9.30471 12.6713 9.36003 12.6484 9.4177 12.6484H14.3294C14.4495 12.6484 14.5468 12.7458 14.5468 12.8659V14.1707C14.5468 14.2908 14.4495 14.3882 14.3294 14.3882H8.1129C7.91916 14.3882 7.82213 14.1539 7.95913 14.0169L9.26393 12.7121Z" stroke="#44475B"/>
<path d="M12.4263 1.15377C12.5112 1.06885 12.6489 1.06885 12.7339 1.15377L14.6974 3.11731C14.7823 3.20224 14.7823 3.33993 14.6974 3.42486L13.4954 4.62684C13.4105 4.71176 13.2728 4.71176 13.1879 4.62684L11.2243 2.6633C11.1394 2.57837 11.1394 2.44068 11.2243 2.35575L12.4263 1.15377Z" stroke="#44475B"/>
</svg>
