<svg width="16" height="16" viewBox="0 0 16 16" fill="none" xmlns="http://www.w3.org/2000/svg">
<path d="M8.83383 1.99854C8.03151 1.97563 7.23274 2.11387 6.48478 2.4051C5.73683 2.69633 5.05488 3.13462 4.4793 3.69405C3.90372 4.25347 3.44619 4.92266 3.13378 5.66202C2.82138 6.40138 2.66044 7.19589 2.6605 7.99854H1.46717C1.16717 7.99854 1.0205 8.35854 1.23384 8.56521L3.09384 10.4319C3.22717 10.5652 3.43384 10.5652 3.56717 10.4319L5.42717 8.56521C5.6405 8.35854 5.48717 7.99854 5.19383 7.99854H3.99383C3.99383 5.39854 6.11383 3.29854 8.72717 3.33187C11.2072 3.36521 13.2938 5.45187 13.3272 7.93187C13.3605 10.5385 11.2605 12.6652 8.6605 12.6652C7.58717 12.6652 6.59383 12.2985 5.80717 11.6785C5.67948 11.578 5.51927 11.5278 5.35701 11.5376C5.19476 11.5475 5.04178 11.6166 4.92717 11.7319C4.64717 12.0185 4.66717 12.4852 4.9805 12.7319C6.03062 13.5545 7.32657 14.0005 8.6605 13.9985C12.0272 13.9985 14.7538 11.2185 14.6605 7.82521C14.5738 4.69854 11.9605 2.08521 8.83383 1.99854ZM8.49383 5.33187C8.2205 5.33187 7.99383 5.55854 7.99383 5.83187V8.28521C7.99383 8.51854 8.1205 8.73854 8.3205 8.85854L10.4005 10.0919C10.6405 10.2319 10.9472 10.1519 11.0872 9.91854C11.2272 9.67854 11.1472 9.37187 10.9138 9.23187L8.99383 8.09187V5.82521C8.99383 5.55854 8.77383 5.33187 8.49383 5.33187Z" fill="#44475B"/>
</svg>
