<svg width="16" height="16" viewBox="0 0 16 16" fill="none" xmlns="http://www.w3.org/2000/svg">
<g clip-path="url(#clip0_3197_11730)">
<path d="M1.03516 5.51266V3.02516C1.03516 2.49738 1.24482 1.99121 1.61801 1.61801C1.99121 1.24482 2.49738 1.03516 3.02516 1.03516H5.51266M10.4877 1.03516H12.9752C13.5029 1.03516 14.0091 1.24482 14.3823 1.61801C14.7555 1.99121 14.9652 2.49738 14.9652 3.02516V5.51266M1.03516 10.4877V12.9752C1.03516 13.5029 1.24482 14.0091 1.61801 14.3823C1.99121 14.7555 2.49738 14.9652 3.02516 14.9652H5.51266M14.9652 10.4877V12.9752C14.9652 13.5029 14.7555 14.0091 14.3823 14.3823C14.0091 14.7555 13.5029 14.9652 12.9752 14.9652H10.4877M4 8.00016H12" stroke="#44475B" stroke-width="1.15" stroke-linecap="round"/>
</g>
<defs>
<clipPath id="clip0_3197_11730">
<rect width="16" height="16" fill="white"/>
</clipPath>
</defs>
</svg>
