<svg width="16" height="16" viewBox="0 0 16 16" fill="none" xmlns="http://www.w3.org/2000/svg">
<path d="M6.93806 13.1261C8.31102 13.1258 9.64441 12.6662 10.7259 11.8204L13.5794 14.6739C13.8814 14.9759 14.3711 14.9759 14.6731 14.6739C14.9752 14.3719 14.9752 13.8822 14.6731 13.5802L11.8197 10.7267C12.6659 9.64507 13.1258 8.31137 13.1261 6.93806C13.1261 3.52612 10.35 0.75 6.93806 0.75C3.52612 0.75 0.75 3.52612 0.75 6.93806C0.75 10.35 3.52612 13.1261 6.93806 13.1261ZM6.93806 2.29701C9.49759 2.29701 11.5791 4.37852 11.5791 6.93806C11.5791 9.49759 9.49759 11.5791 6.93806 11.5791C4.37852 11.5791 2.29701 9.49759 2.29701 6.93806C2.29701 4.37852 4.37852 2.29701 6.93806 2.29701Z" fill="#44475B"/>
</svg>
