<svg width="16" height="16" viewBox="0 0 14 16" fill="none" xmlns="http://www.w3.org/2000/svg">
<path d="M12.6654 4.66536H10.6654C10.3117 4.66536 9.9726 4.52489 9.72256 4.27484C9.47251 4.02479 9.33203 3.68565 9.33203 3.33203V1.33203" stroke="#3D4366" stroke-linecap="round" stroke-linejoin="round"/>
<path d="M5.33333 11.9987C4.97971 11.9987 4.64057 11.8582 4.39052 11.6082C4.14048 11.3581 4 11.019 4 10.6654V2.66536C4 2.31174 4.14048 1.9726 4.39052 1.72256C4.64057 1.47251 4.97971 1.33203 5.33333 1.33203H10L12.6667 3.9987V10.6654C12.6667 11.019 12.5262 11.3581 12.2761 11.6082C12.0261 11.8582 11.687 11.9987 11.3333 11.9987H5.33333Z" fill="#3D4366" stroke="#3D4366" stroke-linecap="round" stroke-linejoin="round"/>
<path d="M1.33203 5.06641V13.5997C1.33203 13.8826 1.44441 14.1539 1.64445 14.354C1.84449 14.554 2.1158 14.6664 2.3987 14.6664H8.93203" stroke="#3D4366" stroke-linecap="round" stroke-linejoin="round"/>
</svg>
