<svg width="16" height="16" viewBox="0 0 16 12" fill="none" xmlns="http://www.w3.org/2000/svg">
<path d="M8 5C7.33696 5 6.70107 4.73661 6.23223 4.26777C5.76339 3.79893 5.5 3.16304 5.5 2.5C5.5 1.83696 5.76339 1.20107 6.23223 0.732233C6.70107 0.263392 7.33696 0 8 0C8.66304 0 9.29893 0.263392 9.76777 0.732233C10.2366 1.20107 10.5 1.83696 10.5 2.5C10.5 3.16304 10.2366 3.79893 9.76777 4.26777C9.29893 4.73661 8.66304 5 8 5ZM8 1C7.17 1 6.5 1.67 6.5 2.5C6.5 3.33 7.17 4 8 4C8.83 4 9.5 3.33 9.5 2.5C9.5 1.67 8.83 1 8 1Z" fill="#3D4366"/>
<path d="M8 1C7.17 1 6.5 1.67 6.5 2.5C6.5 3.33 7.17 4 8 4C8.83 4 9.5 3.33 9.5 2.5C9.5 1.67 8.83 1 8 1Z" fill="#3D4366"/>
<path d="M14 9C13.72 9 13.5 8.78 13.5 8.5C13.5 8.22 13.72 8 14 8C14.28 8 14.5 7.78 14.5 7.5C14.5 6.83696 14.2366 6.20107 13.7678 5.73223C13.2989 5.26339 12.663 5 12 5H11C10.72 5 10.5 4.78 10.5 4.5C10.5 4.22 10.72 4 11 4C11.83 4 12.5 3.33 12.5 2.5C12.5 1.67 11.83 1 11 1C10.72 1 10.5 0.78 10.5 0.5C10.5 0.22 10.72 0 11 0C11.663 0 12.2989 0.263392 12.7678 0.732233C13.2366 1.20107 13.5 1.83696 13.5 2.5C13.5 3.12 13.28 3.68 12.9 4.12C14.39 4.52 15.5 5.88 15.5 7.5C15.5 8.33 14.83 9 14 9ZM2 9C1.17 9 0.5 8.33 0.5 7.5C0.5 5.88 1.6 4.52 3.1 4.12C2.73 3.68 2.5 3.12 2.5 2.5C2.5 1.83696 2.76339 1.20107 3.23223 0.732233C3.70107 0.263392 4.33696 0 5 0C5.28 0 5.5 0.22 5.5 0.5C5.5 0.78 5.28 1 5 1C4.17 1 3.5 1.67 3.5 2.5C3.5 3.33 4.17 4 5 4C5.28 4 5.5 4.22 5.5 4.5C5.5 4.78 5.28 5 5 5H4C3.33696 5 2.70107 5.26339 2.23223 5.73223C1.76339 6.20107 1.5 6.83696 1.5 7.5C1.5 7.78 1.72 8 2 8C2.28 8 2.5 8.22 2.5 8.5C2.5 8.78 2.28 9 2 9ZM11 12H5C4.17 12 3.5 11.33 3.5 10.5V9.5C3.5 7.57 5.07 6 7 6H9C10.93 6 12.5 7.57 12.5 9.5V10.5C12.5 11.33 11.83 12 11 12ZM7 7C6.33696 7 5.70107 7.26339 5.23223 7.73223C4.76339 8.20107 4.5 8.83696 4.5 9.5V10.5C4.5 10.78 4.72 11 5 11H11C11.28 11 11.5 10.78 11.5 10.5V9.5C11.5 8.83696 11.2366 8.20107 10.7678 7.73223C10.2989 7.26339 9.66304 7 9 7H7Z" fill="#3D4366"/>
<path d="M7 7C6.33696 7 5.70107 7.26339 5.23223 7.73223C4.76339 8.20107 4.5 8.83696 4.5 9.5V10.5C4.5 10.78 4.72 11 5 11H11C11.28 11 11.5 10.78 11.5 10.5V9.5C11.5 8.83696 11.2366 8.20107 10.7678 7.73223C10.2989 7.26339 9.66304 7 9 7H7Z" fill="#3D4366"/>
</svg>
