<svg width="24" height="24" viewBox="0 0 24 24" fill="none" xmlns="http://www.w3.org/2000/svg">
<g clip-path="url(#clip0_3306_8664)">
<path d="M12.0045 22.2511V22.2639M17.1307 22.2511V22.2639M6.8782 22.2511V22.2639M1.75195 22.2511V22.2639M1.75195 17.1248V17.1377M1.75195 11.9986V12.0114M1.75195 6.87234V6.88516M1.75195 1.74609V1.75891M6.8782 1.74609V1.75891M12.0045 1.74609V1.75891M17.1307 1.74609V1.75891M22.257 1.74609V1.75891M22.257 6.87234V6.88516M22.257 11.9986V12.0114M22.257 17.1248V17.1377M22.257 22.2511V22.2639" stroke="#44475B" stroke-width="2.25" stroke-linecap="round" stroke-linejoin="round"/>
<path d="M7.25036 7.24645C7.01002 7.48679 6.875 7.81276 6.875 8.15266V15.842C6.875 16.1819 7.01002 16.5079 7.25036 16.7482C7.4907 16.9886 7.81667 17.1236 8.15656 17.1236H15.8459C16.1858 17.1236 16.5118 16.9886 16.7521 16.7482C16.9925 16.5079 17.1275 16.1819 17.1275 15.842V8.15266C17.1275 7.81276 16.9925 7.48679 16.7521 7.24645C16.5118 7.00612 16.1858 6.87109 15.8459 6.87109H8.15656C7.81667 6.87109 7.4907 7.00612 7.25036 7.24645Z" stroke="#44475B" stroke-width="1.25" stroke-linecap="round" stroke-linejoin="round"/>
</g>
<defs>
<clipPath id="clip0_3306_8664">
<rect width="24" height="24" fill="white"/>
</clipPath>
</defs>
</svg>
