<svg width="14" height="16" viewBox="0 0 12 12" fill="none" xmlns="http://www.w3.org/2000/svg">
<path d="M6.56921 0.333553C6.5125 0.232386 6.42986 0.148155 6.3298 0.0895289C6.22973 0.0309031 6.11585 0 5.99987 0C5.8839 0 5.77002 0.0309031 5.66995 0.0895289C5.56988 0.148155 5.48724 0.232386 5.43054 0.333553C5.29721 0.57622 5.16898 0.821998 5.04587 1.07089C4.658 1.85819 4.32823 2.67281 4.05921 3.50822C3.96654 3.79555 3.69187 3.99489 3.37721 4.00355C2.42335 4.02863 1.4726 4.12333 0.53254 4.28689C0.0165398 4.37755 -0.17746 4.96555 0.189206 5.32422C0.272762 5.40644 0.357206 5.48755 0.44254 5.56755C1.08058 6.17012 1.7552 6.73275 2.46254 7.25222C2.70721 7.43155 2.80787 7.73889 2.71454 8.02022C2.359 9.08892 2.10455 10.1886 1.95454 11.3049C1.88787 11.8082 2.42654 12.1636 2.89454 11.9236C3.82257 11.4477 4.70999 10.8965 5.54787 10.2756C5.67911 10.1798 5.83739 10.1281 5.99987 10.1281C6.16235 10.1281 6.32063 10.1798 6.45187 10.2756C7.28959 10.8968 8.17703 11.448 9.10521 11.9236C9.57254 12.1636 10.1119 11.8082 10.0452 11.3049C10.0194 11.116 9.99121 10.9282 9.96054 10.7416C9.80653 9.81826 9.58073 8.90839 9.2852 8.02022C9.19187 7.73889 9.29187 7.43155 9.53721 7.25222C10.3397 6.66421 11.0994 6.01992 11.8105 5.32422C12.1772 4.96555 11.9839 4.37755 11.4672 4.28689C10.5273 4.12237 9.57645 4.02767 8.62254 4.00355C8.47172 4.00115 8.32531 3.9523 8.20326 3.86366C8.08122 3.77502 7.98947 3.6509 7.94054 3.50822C7.58634 2.40867 7.12711 1.3451 6.56921 0.333553Z" fill="#3D4366"/>
</svg>
