<svg width="16" height="16" viewBox="0 0 12 14" fill="none" xmlns="http://www.w3.org/2000/svg">
<path d="M5.313 0.76553C5.49867 0.589994 5.74449 0.492187 6 0.492188C6.25551 0.492187 6.50133 0.589994 6.687 0.76553L11.531 5.34453C11.831 5.62753 12 6.02253 12 6.43453V12.0045C12 12.4024 11.842 12.7839 11.5607 13.0652C11.2794 13.3465 10.8978 13.5045 10.5 13.5045H8.5C8.30293 13.5045 8.1078 13.4657 7.92574 13.3903C7.74369 13.3148 7.57829 13.2042 7.43899 13.0648C7.29969 12.9254 7.18922 12.76 7.11389 12.5779C7.03857 12.3958 6.99987 12.2006 7 12.0035V9.50353C7 9.37092 6.94732 9.24374 6.85355 9.14998C6.75979 9.05621 6.63261 9.00353 6.5 9.00353H5.5C5.36739 9.00353 5.24021 9.05621 5.14645 9.14998C5.05268 9.24374 5 9.37092 5 9.50353V12.0035C5 12.4014 4.84196 12.7829 4.56066 13.0642C4.27936 13.3455 3.89782 13.5035 3.5 13.5035H1.5C1.10218 13.5035 0.720644 13.3455 0.43934 13.0642C0.158035 12.7829 0 12.4014 0 12.0035V6.43353C0 6.02153 0.17 5.62653 0.47 5.34353L5.313 0.76553ZM6 1.49153L1.156 6.07153C1.10682 6.11815 1.06764 6.17428 1.04082 6.23651C1.014 6.29874 1.00012 6.36577 1 6.43353V12.0035C1 12.1361 1.05268 12.2633 1.14645 12.3571C1.24021 12.4509 1.36739 12.5035 1.5 12.5035H3.5C3.63261 12.5035 3.75979 12.4509 3.85355 12.3571C3.94732 12.2633 4 12.1361 4 12.0035V9.50353C4 9.10571 4.15804 8.72417 4.43934 8.44287C4.72064 8.16157 5.10218 8.00353 5.5 8.00353H6.5C6.89782 8.00353 7.27936 8.16157 7.56066 8.44287C7.84196 8.72417 8 9.10571 8 9.50353V12.0035C8 12.1361 8.05268 12.2633 8.14645 12.3571C8.24021 12.4509 8.36739 12.5035 8.5 12.5035H10.5C10.6326 12.5035 10.7598 12.4509 10.8536 12.3571C10.9473 12.2633 11 12.1361 11 12.0035V6.43353C11 6.3656 10.9862 6.29838 10.9594 6.23597C10.9326 6.17356 10.8933 6.11727 10.844 6.07053L6 1.49153Z" fill="#3D4366"/>
<path d="M6 1.49153L1.156 6.07153C1.10682 6.11815 1.06764 6.17428 1.04082 6.23651C1.014 6.29874 1.00012 6.36577 1 6.43353V12.0035C1 12.1361 1.05268 12.2633 1.14645 12.3571C1.24021 12.4509 1.36739 12.5035 1.5 12.5035H3.5C3.63261 12.5035 3.75979 12.4509 3.85355 12.3571C3.94732 12.2633 4 12.1361 4 12.0035V9.50353C4 9.10571 4.15804 8.72417 4.43934 8.44287C4.72064 8.16157 5.10218 8.00353 5.5 8.00353H6.5C6.89782 8.00353 7.27936 8.16157 7.56066 8.44287C7.84196 8.72417 8 9.10571 8 9.50353V12.0035C8 12.1361 8.05268 12.2633 8.14645 12.3571C8.24021 12.4509 8.36739 12.5035 8.5 12.5035H10.5C10.6326 12.5035 10.7598 12.4509 10.8536 12.3571C10.9473 12.2633 11 12.1361 11 12.0035V6.43353C11 6.3656 10.9862 6.29838 10.9594 6.23597C10.9326 6.17356 10.8933 6.11727 10.844 6.07053L6 1.49153Z" fill="#3D4366"/>
</svg>
