<svg width="16" height="16" viewBox="0 0 16 16" fill="none" xmlns="http://www.w3.org/2000/svg">
<g clip-path="url(#clip0_3145_8640)">
<path d="M8.09579 10.508C8.42129 10.508 8.7436 10.4439 9.04431 10.3193C9.34503 10.1948 9.61827 10.0122 9.84843 9.78203C10.0786 9.55187 10.2612 9.27863 10.3857 8.97791C10.5103 8.67719 10.5744 8.35488 10.5744 8.02939C10.5744 7.70389 10.5103 7.38158 10.3857 7.08087C10.2612 6.78015 10.0786 6.50691 9.84843 6.27675C9.61827 6.04659 9.34503 5.86402 9.04431 5.73945C8.7436 5.61489 8.42129 5.55078 8.09579 5.55078C7.43843 5.55078 6.80798 5.81192 6.34315 6.27675C5.87833 6.74158 5.61719 7.37202 5.61719 8.02939C5.61719 8.68675 5.87833 9.3172 6.34315 9.78203C6.80798 10.2469 7.43843 10.508 8.09579 10.508Z" stroke="#44475B" stroke-linecap="round" stroke-linejoin="round"/>
<path d="M14.6183 10.28C14.3263 11.1195 13.8756 11.895 13.2905 12.5641L11.7256 12.209C11.132 12.7413 10.4269 13.1341 9.66179 13.3584L9.23886 14.8902C8.84244 14.9613 8.44062 14.998 8.03788 15C7.534 15.0006 7.03169 14.9437 6.54069 14.8305L6.09198 13.2494C5.42324 13.0028 4.80851 12.6293 4.28165 12.1493L2.73437 12.5472C2.12074 11.8301 1.66014 10.9952 1.38086 10.0936L2.5229 8.82485C2.41867 8.17599 2.43591 7.51341 2.57374 6.87085L1.44717 5.69565C1.77466 4.77383 2.29371 3.93185 2.97014 3.22515L4.56901 3.62302C5.00927 3.27002 5.49973 2.98469 6.02419 2.77643L6.44712 1.21146C6.96948 1.07619 7.50641 1.00517 8.04598 1C8.47701 1 8.90804 1.03979 9.3317 1.11789L9.73768 2.67475C10.3492 2.87295 10.9225 3.17578 11.4294 3.57144L13.0371 3.15662C13.6857 3.81034 14.1975 4.58685 14.5424 5.44071L13.4519 6.62476C13.6587 7.43615 13.6759 8.28427 13.502 9.10336L14.6183 10.28Z" stroke="#44475B" stroke-linecap="round" stroke-linejoin="round"/>
</g>
<defs>
<clipPath id="clip0_3145_8640">
<rect width="16" height="16" fill="white"/>
</clipPath>
</defs>
</svg>
