<svg width="16" height="16" viewBox="0 0 16 16" fill="none" xmlns="http://www.w3.org/2000/svg">
<path d="M8 7C7.33696 7 6.70107 6.73661 6.23223 6.26777C5.76339 5.79893 5.5 5.16304 5.5 4.5C5.5 3.83696 5.76339 3.20107 6.23223 2.73223C6.70107 2.26339 7.33696 2 8 2C8.66304 2 9.29893 2.26339 9.76777 2.73223C10.2366 3.20107 10.5 3.83696 10.5 4.5C10.5 5.16304 10.2366 5.79893 9.76777 6.26777C9.29893 6.73661 8.66304 7 8 7ZM8 3C7.17 3 6.5 3.67 6.5 4.5C6.5 5.33 7.17 6 8 6C8.83 6 9.5 5.33 9.5 4.5C9.5 3.67 8.83 3 8 3Z" fill="#44475B"/>
<path d="M14 11C13.72 11 13.5 10.78 13.5 10.5C13.5 10.22 13.72 10 14 10C14.28 10 14.5 9.78 14.5 9.5C14.5 8.83696 14.2366 8.20107 13.7678 7.73223C13.2989 7.26339 12.663 7 12 7H11C10.72 7 10.5 6.78 10.5 6.5C10.5 6.22 10.72 6 11 6C11.83 6 12.5 5.33 12.5 4.5C12.5 3.67 11.83 3 11 3C10.72 3 10.5 2.78 10.5 2.5C10.5 2.22 10.72 2 11 2C11.663 2 12.2989 2.26339 12.7678 2.73223C13.2366 3.20107 13.5 3.83696 13.5 4.5C13.5 5.12 13.28 5.68 12.9 6.12C14.39 6.52 15.5 7.88 15.5 9.5C15.5 10.33 14.83 11 14 11ZM2 11C1.17 11 0.5 10.33 0.5 9.5C0.5 7.88 1.6 6.52 3.1 6.12C2.73 5.68 2.5 5.12 2.5 4.5C2.5 3.83696 2.76339 3.20107 3.23223 2.73223C3.70107 2.26339 4.33696 2 5 2C5.28 2 5.5 2.22 5.5 2.5C5.5 2.78 5.28 3 5 3C4.17 3 3.5 3.67 3.5 4.5C3.5 5.33 4.17 6 5 6C5.28 6 5.5 6.22 5.5 6.5C5.5 6.78 5.28 7 5 7H4C3.33696 7 2.70107 7.26339 2.23223 7.73223C1.76339 8.20107 1.5 8.83696 1.5 9.5C1.5 9.78 1.72 10 2 10C2.28 10 2.5 10.22 2.5 10.5C2.5 10.78 2.28 11 2 11ZM11 14H5C4.17 14 3.5 13.33 3.5 12.5V11.5C3.5 9.57 5.07 8 7 8H9C10.93 8 12.5 9.57 12.5 11.5V12.5C12.5 13.33 11.83 14 11 14ZM7 9C6.33696 9 5.70107 9.26339 5.23223 9.73223C4.76339 10.2011 4.5 10.837 4.5 11.5V12.5C4.5 12.78 4.72 13 5 13H11C11.28 13 11.5 12.78 11.5 12.5V11.5C11.5 10.837 11.2366 10.2011 10.7678 9.73223C10.2989 9.26339 9.66304 9 9 9H7Z" fill="#44475B"/>
</svg>
