<svg width="16" height="16" viewBox="0 0 16 16" fill="none" xmlns="http://www.w3.org/2000/svg">
<path d="M1.22266 14.501V13.7788C1.22266 11.3881 3.16549 9.44531 5.55611 9.44531H7.50098" stroke="#44475B" stroke-linecap="round" stroke-linejoin="round"/>
<path d="M7.0003 7.27793C5.40414 7.27793 4.11133 5.98512 4.11133 4.38897C4.11133 2.79281 5.40414 1.5 7.0003 1.5C8.59645 1.5 9.88926 2.79281 9.88926 4.38897C9.88926 5.98512 8.59645 7.27793 7.0003 7.27793Z" stroke="#44475B" stroke-linecap="round" stroke-linejoin="round"/>
<path d="M12.3584 12.7559C12.5212 12.7559 12.6823 12.7239 12.8327 12.6616C12.9831 12.5993 13.1197 12.508 13.2348 12.393C13.3498 12.2779 13.4411 12.1413 13.5034 11.9909C13.5657 11.8405 13.5977 11.6794 13.5977 11.5166C13.5977 11.3539 13.5657 11.1927 13.5034 11.0424C13.4411 10.892 13.3498 10.7554 13.2348 10.6403C13.1197 10.5252 12.9831 10.434 12.8327 10.3717C12.6823 10.3094 12.5212 10.2773 12.3584 10.2773C12.0298 10.2773 11.7145 10.4079 11.4821 10.6403C11.2497 10.8727 11.1191 11.188 11.1191 11.5166C11.1191 11.8453 11.2497 12.1606 11.4821 12.393C11.7145 12.6254 12.0298 12.7559 12.3584 12.7559Z" stroke="#44475B" stroke-width="0.7" stroke-linecap="round" stroke-linejoin="round"/>
<path d="M15.6187 12.64C15.4727 13.0598 15.2474 13.4475 14.9548 13.7821L14.1724 13.6045C13.8756 13.8707 13.523 14.067 13.1405 14.1792L12.929 14.9451C12.7308 14.9806 12.5299 14.999 12.3285 15C12.0766 15.0003 11.8254 14.9719 11.5799 14.9153L11.3556 14.1247C11.0212 14.0014 10.7138 13.8146 10.4504 13.5747L9.67675 13.7736C9.36994 13.415 9.13964 12.9976 9 12.5468L9.57102 11.9124C9.51891 11.588 9.52753 11.2567 9.59644 10.9354L9.03316 10.3478C9.1969 9.88692 9.45643 9.46592 9.79464 9.11257L10.5941 9.31151C10.8142 9.13501 11.0594 8.99234 11.3217 8.88822L11.5331 8.10573C11.7943 8.03809 12.0628 8.00259 12.3326 8C12.5481 8 12.7636 8.01989 12.9754 8.05894L13.1784 8.83738C13.4842 8.93648 13.7708 9.08789 14.0243 9.28572L14.8281 9.07831C15.1524 9.40517 15.4083 9.79342 15.5808 10.2204L15.0355 10.8124C15.1389 11.2181 15.1475 11.6421 15.0606 12.0517L15.6187 12.64Z" stroke="#44475B" stroke-width="0.7" stroke-linecap="round" stroke-linejoin="round"/>
</svg>
