<svg width="16" height="17" viewBox="0 0 16 17" fill="none" xmlns="http://www.w3.org/2000/svg">
<rect x="2.09961" y="2.60156" width="11.8" height="11.8" rx="1.1" stroke="#44475B"/>
<path d="M6.81506 6.1464L10.0677 8.3144C10.1043 8.33875 10.1343 8.37175 10.155 8.41048C10.1758 8.44921 10.1867 8.49247 10.1867 8.5364C10.1867 8.58034 10.1758 8.6236 10.155 8.66233C10.1343 8.70106 10.1043 8.73406 10.0677 8.7584L6.81439 10.9264C6.77428 10.953 6.72771 10.9682 6.67964 10.9705C6.63156 10.9728 6.58377 10.962 6.54133 10.9393C6.49889 10.9166 6.46338 10.8829 6.43856 10.8416C6.41375 10.8004 6.40056 10.7532 6.40039 10.7051V6.36774C6.40048 6.3195 6.41365 6.2722 6.4385 6.23086C6.46334 6.18952 6.49894 6.15569 6.54149 6.13298C6.58404 6.11026 6.63195 6.09952 6.68013 6.10188C6.7283 6.10425 6.77493 6.11963 6.81506 6.1464Z" fill="#44475B"/>
</svg>
