<svg width="16" height="17" viewBox="0 0 16 17" fill="none" xmlns="http://www.w3.org/2000/svg">
<g clip-path="url(#clip0_3130_9810)">
<path d="M3.33333 2.16797C3.24493 2.16797 3.16014 2.20309 3.09763 2.2656C3.03512 2.32811 3 2.4129 3 2.5013V14.5013C3 14.5897 3.03512 14.6745 3.09763 14.737C3.16014 14.7995 3.24493 14.8346 3.33333 14.8346H4.5C4.63261 14.8346 4.75979 14.8873 4.85355 14.9811C4.94732 15.0749 5 15.202 5 15.3346C5 15.4672 4.94732 15.5944 4.85355 15.6882C4.75979 15.782 4.63261 15.8346 4.5 15.8346H3.33333C2.97971 15.8346 2.64057 15.6942 2.39052 15.4441C2.14048 15.1941 2 14.8549 2 14.5013V2.5013C2 2.14768 2.14048 1.80854 2.39052 1.55849C2.64057 1.30844 2.97971 1.16797 3.33333 1.16797H9.988C10.3416 1.16804 10.6807 1.30857 10.9307 1.55864L13.6093 4.2373C13.8594 4.48729 13.9999 4.82638 14 5.17997V14.5013C14 14.8549 13.8595 15.1941 13.6095 15.4441C13.3594 15.6942 13.0203 15.8346 12.6667 15.8346H10.8333C10.7007 15.8346 10.5735 15.782 10.4798 15.6882C10.386 15.5944 10.3333 15.4672 10.3333 15.3346C10.3333 15.202 10.386 15.0749 10.4798 14.9811C10.5735 14.8873 10.7007 14.8346 10.8333 14.8346H12.6667C12.7551 14.8346 12.8399 14.7995 12.9024 14.737C12.9649 14.6745 13 14.5897 13 14.5013V5.17997C13.0001 5.13617 12.9915 5.09278 12.9748 5.05228C12.9581 5.01179 12.9336 4.97498 12.9027 4.94397L10.224 2.2653C10.193 2.23437 10.1562 2.20985 10.1157 2.19315C10.0752 2.17645 10.0318 2.16789 9.988 2.16797H3.33333Z" fill="#44475B"/>
<path d="M7.66667 11C7.66667 10.8674 7.71935 10.7402 7.81311 10.6464C7.90688 10.5527 8.03406 10.5 8.16667 10.5H8.83333C8.96594 10.5 9.09312 10.5527 9.18689 10.6464C9.28065 10.7402 9.33333 10.8674 9.33333 11C9.33333 11.1326 9.28065 11.2598 9.18689 11.3536C9.09312 11.4473 8.96594 11.5 8.83333 11.5H8.16667C8.03406 11.5 7.90688 11.4473 7.81311 11.3536C7.71935 11.2598 7.66667 11.1326 7.66667 11ZM8.16667 8.5C8.03406 8.5 7.90688 8.55268 7.81311 8.64645C7.71935 8.74022 7.66667 8.86739 7.66667 9C7.66667 9.13261 7.71935 9.25979 7.81311 9.35355C7.90688 9.44732 8.03406 9.5 8.16667 9.5H8.83333C8.96594 9.5 9.09312 9.44732 9.18689 9.35355C9.28065 9.25979 9.33333 9.13261 9.33333 9C9.33333 8.86739 9.28065 8.74022 9.18689 8.64645C9.09312 8.55268 8.96594 8.5 8.83333 8.5H8.16667ZM7.66667 7C7.66667 6.86739 7.71935 6.74022 7.81311 6.64645C7.90688 6.55268 8.03406 6.5 8.16667 6.5H8.83333C8.96594 6.5 9.09312 6.55268 9.18689 6.64645C9.28065 6.74022 9.33333 6.86739 9.33333 7C9.33333 7.13261 9.28065 7.25979 9.18689 7.35355C9.09312 7.44732 8.96594 7.5 8.83333 7.5H8.16667C8.03406 7.5 7.90688 7.44732 7.81311 7.35355C7.71935 7.25979 7.66667 7.13261 7.66667 7ZM8.16667 4.5C8.03406 4.5 7.90688 4.55268 7.81311 4.64645C7.71935 4.74021 7.66667 4.86739 7.66667 5C7.66667 5.13261 7.71935 5.25979 7.81311 5.35355C7.90688 5.44732 8.03406 5.5 8.16667 5.5H8.83333C8.96594 5.5 9.09312 5.44732 9.18689 5.35355C9.28065 5.25979 9.33333 5.13261 9.33333 5C9.33333 4.86739 9.28065 4.74021 9.18689 4.64645C9.09312 4.55268 8.96594 4.5 8.83333 4.5H8.16667ZM7.66667 3C7.66667 2.86739 7.71935 2.74021 7.81311 2.64645C7.90688 2.55268 8.03406 2.5 8.16667 2.5H8.83333C8.96594 2.5 9.09312 2.55268 9.18689 2.64645C9.28065 2.74021 9.33333 2.86739 9.33333 3C9.33333 3.13261 9.28065 3.25979 9.18689 3.35355C9.09312 3.44732 8.96594 3.5 8.83333 3.5H8.16667C8.03406 3.5 7.90688 3.44732 7.81311 3.35355C7.71935 3.25979 7.66667 3.13261 7.66667 3ZM6.5 9.5C6.36739 9.5 6.24022 9.55268 6.14645 9.64645C6.05268 9.74022 6 9.86739 6 10C6 10.1326 6.05268 10.2598 6.14645 10.3536C6.24022 10.4473 6.36739 10.5 6.5 10.5H7.16667C7.29927 10.5 7.42645 10.4473 7.52022 10.3536C7.61399 10.2598 7.66667 10.1326 7.66667 10C7.66667 9.86739 7.61399 9.74022 7.52022 9.64645C7.42645 9.55268 7.29927 9.5 7.16667 9.5H6.5ZM6 8C6 7.86739 6.05268 7.74022 6.14645 7.64645C6.24022 7.55268 6.36739 7.5 6.5 7.5H7.16667C7.29927 7.5 7.42645 7.55268 7.52022 7.64645C7.61399 7.74022 7.66667 7.86739 7.66667 8C7.66667 8.13261 7.61399 8.25979 7.52022 8.35355C7.42645 8.44732 7.29927 8.5 7.16667 8.5H6.5C6.36739 8.5 6.24022 8.44732 6.14645 8.35355C6.05268 8.25979 6 8.13261 6 8ZM6.5 5.5C6.36739 5.5 6.24022 5.55268 6.14645 5.64645C6.05268 5.74021 6 5.86739 6 6C6 6.13261 6.05268 6.25979 6.14645 6.35355C6.24022 6.44732 6.36739 6.5 6.5 6.5H7.16667C7.29927 6.5 7.42645 6.44732 7.52022 6.35355C7.61399 6.25979 7.66667 6.13261 7.66667 6C7.66667 5.86739 7.61399 5.74021 7.52022 5.64645C7.42645 5.55268 7.29927 5.5 7.16667 5.5H6.5ZM6 4C6 3.86739 6.05268 3.74021 6.14645 3.64645C6.24022 3.55268 6.36739 3.5 6.5 3.5H7.16667C7.29927 3.5 7.42645 3.55268 7.52022 3.64645C7.61399 3.74021 7.66667 3.86739 7.66667 4C7.66667 4.13261 7.61399 4.25979 7.52022 4.35355C7.42645 4.44732 7.29927 4.5 7.16667 4.5H6.5C6.36739 4.5 6.24022 4.44732 6.14645 4.35355C6.05268 4.25979 6 4.13261 6 4ZM7.33333 11.8333H8C8.35362 11.8333 8.69276 11.9738 8.94281 12.2239C9.19286 12.4739 9.33333 12.813 9.33333 13.1667V16C9.33333 16.1326 9.28065 16.2598 9.18689 16.3536C9.09312 16.4473 8.96594 16.5 8.83333 16.5H6.5C6.36739 16.5 6.24022 16.4473 6.14645 16.3536C6.05268 16.2598 6 16.1326 6 16V13.1667C6 12.813 6.14048 12.4739 6.39052 12.2239C6.64057 11.9738 6.97971 11.8333 7.33333 11.8333ZM7 13.1667V15.5H8.33333V13.1667C8.33333 13.0783 8.29821 12.9935 8.2357 12.931C8.17319 12.8685 8.08841 12.8333 8 12.8333H7.33333C7.24493 12.8333 7.16014 12.8685 7.09763 12.931C7.03512 12.9935 7 13.0783 7 13.1667Z" fill="#44475B"/>
</g>
<defs>
<clipPath id="clip0_3130_9810">
<rect width="16" height="16" fill="white" transform="translate(0 0.5)"/>
</clipPath>
</defs>
</svg>
